<?xml version="1.0" encoding="UTF-8" standalone="no"?><!DOCTYPE svg PUBLIC "-//W3C//DTD SVG 1.1//EN" "http://www.w3.org/Graphics/SVG/1.1/DTD/svg11.dtd"><svg width="100%" height="100%" viewBox="0 0 4584 4584" version="1.1" xmlns="http://www.w3.org/2000/svg" xmlns:xlink="http://www.w3.org/1999/xlink" xml:space="preserve" xmlns:serif="http://www.serif.com/" style="fill-rule:evenodd;clip-rule:evenodd;stroke-linejoin:round;stroke-miterlimit:2;"><rect id="Page-1" serif:id="Page 1" x="0" y="0" width="4583.333" height="4583.333" style="fill:none;"/><g id="Calque-1" serif:id="Calque 1"><g><path d="M1288.1,354.487c36.387,-17.432 36.483,-16.576 39.309,-18.606c18.961,-13.618 52.919,-3.418 58.177,-0.023c12.745,8.228 27.475,14.077 31.31,17.2c0.887,0.722 8.417,6.854 11.556,8.413c17.598,8.742 15.359,13.032 34.191,18.45c3.455,0.994 5.578,6.114 9.866,8.057c27.387,12.409 26.125,14.624 28.545,15.579c1.724,1.368 0.902,2.81 7.137,3.901c0.527,0.521 5.408,5.342 7.161,5.876c14.944,4.555 12.804,8.757 27.42,14.504c1.504,1.202 0.589,2.858 7.163,3.941c3.676,3.709 49.299,27.822 62.691,37.3c0.305,0.162 -0.084,3.027 10.315,4.404c7.39,7.53 13.571,6.179 19.932,11.613c1.586,4.391 1.421,4.464 1.713,4.742c1.287,1.228 1.758,-0.642 3.137,0.673c2.368,2.177 2.596,1.494 6.187,4.098c4.031,2.924 2.878,3.638 5.954,7.766c34.109,45.76 34.343,120.341 56.56,208.037c21.011,82.934 17.539,83.659 19.802,90.735c13.637,42.66 31.261,151.636 53.254,239.488c12.052,48.143 52.591,251.71 56.8,260.16c4.312,8.656 1.959,9.163 4.744,18.332c2.628,8.65 0.942,8.811 3.462,17.365c6.948,23.59 4.963,27.574 6.928,34.744c9.95,36.307 7.234,36.785 10.425,48.66c11.968,44.548 9.349,44.839 10.393,48.682c7.746,28.526 6.295,28.812 6.972,31.285c7.835,28.644 6.14,28.853 6.932,31.292c16.737,51.545 13.536,62.091 23.165,103.48c1.045,3.531 -0.96,3.406 0.029,6.746c0.051,0.171 0.526,-1.757 2.145,0.598c0.576,0.838 -0.298,2.245 0.348,3.029c0.657,0.797 2.287,0.169 2.944,0.966c1.336,-1.043 5.275,1.38 6.629,-11.001c3.36,-10.456 1.999,-10.595 2.948,-31.201c0.232,-5.035 2.555,-4.836 2.741,-13.825c1.003,-48.445 3.399,-47.963 3.478,-52.143c1.027,-54.939 7.143,-109.76 7.541,-128.654c0.688,-32.642 14.735,-159.321 24.539,-319.851c0.156,-2.547 2.555,-9.299 2.615,-10.456c2.007,-38.651 3.346,-38.363 3.479,-41.709c1.923,-48.135 3.517,-47.881 3.552,-52.055c0.383,-45 3.566,-44.763 3.475,-48.665c-0.072,-3.066 -0.703,-30.135 1.369,-38.307c4.48,-17.662 0.944,-42.751 3.416,-52.168c2.965,-11.293 6.87,-97.044 6.947,-97.336c4.342,-16.493 2.267,-16.627 2.734,-45.082c0.621,-2.319 2.174,-1.052 2.834,-3.518c0,-0 -1.974,-9.675 -2.146,-10.516c4.62,-14.345 2.403,-14.507 2.784,-34.632c0.665,-2.473 2.227,-1.192 2.853,-3.517c0.223,-0.829 -0.159,-0.772 -2.159,-10.516c9.868,-31.021 0.167,-104.919 20.675,-125.541c58.415,-58.742 86.913,-85.447 122.643,-113.499c12.506,-9.819 38.712,-7.033 45.234,-1.371c0.248,0.215 75.23,33.173 90.549,44.397c0.072,0.037 0.039,2.883 10.333,4.332c4.688,4.604 39.189,22.161 41.662,24.307c14.436,12.53 67.538,21.13 63.136,66.689c-2.661,6.463 -3.084,6.405 -2.87,6.969c0.884,2.327 1.935,1.412 2.749,3.555c-2.849,10.723 -2.802,12.69 -2.774,13.817c0.775,32.298 -3.414,65.543 -3.532,69.598c-0.309,10.625 -0.255,10.373 -0.511,20.77c-0.232,0.558 -2.896,6.971 -2.896,6.971c0.898,2.329 1.938,1.416 2.764,3.559c-2.941,11.273 -19.989,185.132 -20.326,194.644c-0.493,13.931 -2.663,13.443 -3.241,20.896c-2.513,32.365 -3.288,31.972 -3.475,34.76c-2.159,32.282 -3.288,31.972 -3.471,34.76c-1.914,29.151 -3.337,28.769 -3.479,31.283c-5.219,91.987 -20.841,209.291 -21.528,232.831c-0.312,10.689 -1.498,10.382 -2.781,20.952c-16.678,137.393 -12.378,137.795 -15.385,149.43c-4.778,18.485 -0.178,18.894 -3.528,31.271c-4.453,16.451 -0.276,16.712 -2.769,27.912c-3.815,17.139 -0.863,17.244 -3.48,34.742c-6.019,40.253 -9.896,93.728 -10.245,111.099c-0.399,1.929 -4.512,3.594 -2.893,13.979c0.215,1.38 2.026,2.161 2.241,3.542c-0.99,5.803 -9.123,53.464 -9.732,72.933c-0.816,26.117 -3.109,25.623 -3.087,27.866c0.253,25.768 -3.724,25.395 -3.573,34.787c0.294,18.285 -2.21,17.747 -3.214,27.784c-0.667,6.669 -8.282,82.793 -8.437,83.359c-4.149,15.217 -1.35,15.831 -2.819,27.877c-16.266,133.388 -31.389,314.372 -31.879,316.285c-5.45,21.277 -1.044,29.176 -3.418,38.262c-6.358,24.337 -0.502,24.969 -3.46,34.777c-6.69,22.18 -6.842,26.982 -20.055,45.764c-1.386,1.971 -14.593,20.743 -17.971,24.168c-14.469,14.67 -13.346,16.723 -17.375,20.842c-19.143,19.573 -18.987,22.36 -20.939,24.27c-7.925,7.753 -10.266,13.834 -13.879,17.404c-8.065,7.971 -12.918,17.255 -15.233,19.527c-20.497,20.106 -39.399,49.057 -43.825,53.505c-37.557,37.738 -46.15,15.318 -177.809,14.576c-1.479,-0.436 -2.043,-2.565 -3.522,-3c-3.107,-0.915 -6.415,-0.203 -6.959,-0.086c-2.195,0.472 -1.243,1.85 -3.59,2.355c-16.205,-5.567 -70.216,-6.064 -76.342,-6.12c-1.553,-0.283 -2.015,-2.833 -3.568,-3.116c-8.967,-1.635 -25.855,-0.276 -28.095,-0.095c-7.529,-0.664 -7.431,-0.833 -86.491,-0.496c-1.396,-0.581 -2.116,-2.291 -3.513,-2.871c-0.558,-0.232 -0.509,0.2 -7.026,2.758c-10.524,-2.802 -10.418,-2.747 -48.634,-3.16c-45.141,-0.079 -45.069,-7.905 -73.29,-2.989c-17.448,-0.751 -17.109,-0.519 -34.42,-0.652c-12.035,-0.092 -35.483,-14.153 -40.78,-19.401c-8.426,-8.347 -40.815,-81.926 -41.049,-82.844c-3.107,-12.227 -44.885,-99.921 -48.634,-111.247c-7.516,-22.712 -22.011,-50.626 -26.298,-62.042c-15.007,-39.962 -18.18,-38.597 -19.017,-42.204c-0.402,-1.732 -1.943,-8.38 -7.643,-20.872c-24.333,-53.329 -20.287,-54.858 -45.265,-107.737c-2.429,-5.142 -96.683,-236.977 -100.713,-243.453c-0.53,-0.852 -95.273,-228.904 -102.001,-246.201c-3.418,-8.787 -12.224,-25.916 -13.939,-31.277c-2.505,-7.833 -56.951,-137.419 -57.947,-139.558c-5.941,-12.757 -11.38,-30.993 -12.723,-33.747c-6.705,-13.747 -35.794,-83.606 -39.419,-91.4c-1.145,-2.462 -9.296,-19.982 -13.066,-31.322c-9.202,-27.674 -14.671,-33.536 -17.382,-41.712c-10.928,-32.957 -15.001,-31.365 -22.836,-55.082c-7.8,-23.611 -10.993,-22.133 -18.852,-45.739c-10.011,-30.071 -41.533,-96.597 -45.232,-107.749c-8.874,-26.758 -20.087,-47.114 -25.052,-62.566c-2.988,-9.299 -11.1,-21.595 -12.527,-26.906c-1.223,-3.484 -2.446,-6.968 -3.669,-10.453c-1.238,-2.396 -8.902,-17.225 -10.806,-31.933c-0.036,-0.276 -0.237,-39.471 1.546,-45.165c0.602,-1.921 7.051,-22.515 7.934,-23.882c5.647,-8.744 19.796,-39.542 21.146,-41.247c8.423,-10.636 4.613,-12.461 10.185,-21.301c1.718,-2.725 14.547,-23.079 18.488,-35.773c10.638,-34.265 18.77,-35.963 24.278,-52.159c11.712,-34.443 16.629,-32.116 25.687,-55.161c2.331,-5.93 33.071,-31.062 34.534,-31.686c2.417,-1.03 1.754,-1.495 3.794,-3.302c5.401,-4.783 7.524,0.123 13.222,-4.637c8.976,-7.498 10.088,-5.444 10.839,-6.097c7.324,-6.376 9.938,-0.94 17.365,-6.936c12.847,-10.371 16.337,-6.674 20.867,-10.421c9.689,-8.014 11.798,-3.864 16.879,-7.984c4.755,-3.855 49.877,-25.468 57.016,-27.889c9.866,-3.347 6.886,-8.647 17.087,-10.58c1.768,-0.335 13.1,-2.482 21.133,-7.685c7.436,-4.816 6.708,-5.794 7.442,-6.01c3.241,-0.953 3.392,-0.119 5.927,-2.096c5.631,-4.393 7.526,-0.026 13.15,-4.711c11.852,-9.873 20.726,-8.728 29.174,-15.02c7.477,-5.568 8.794,-2.866 16.436,-8.403c4.284,-0.66 3.96,-1.125 10.329,-4.271c30.733,-14.595 29.26,-17.503 32.172,-17.96c9.464,-1.484 8.531,-3.719 17.481,-6.701c0.898,-0.299 18.416,-7.83 23.388,-12.713c1.8,-0.186 1.438,-0.437 3.303,-0.63c4.43,-0.459 3.68,-1.887 7.102,-3.641Z" style="fill:#efe70a;fill-opacity:1;"/><path d="M3096.058,438.737c1.58,0.265 4.102,4.8 14.049,2.36c1.487,-0.365 2.089,-2.517 3.576,-2.881c44.758,-0.008 46.535,-11.624 87.576,6.589c17.123,7.599 16.66,8.132 33.705,16.134c3.73,1.751 43.747,20.537 46.083,23.007c3.408,3.602 3.744,2.943 54.676,29.206c1.639,0.845 19.881,10.252 20.432,10.671c6.482,4.929 7.632,2.374 14.394,6.628c24.197,15.222 28.842,28.804 32.489,33.392c13.142,16.533 41.848,194.497 50.524,219.927c4.051,11.874 0.304,12.367 3.409,24.31c6.439,24.769 13.202,73.913 13.155,76.219c-0.926,45.653 -24.588,55.578 -97.663,119.854c-32.448,28.541 -32.612,27.94 -35.057,30.758c-17.387,20.038 -38.717,19.405 -48.994,11.63c-29.177,-22.077 -31.716,-26.033 -33.636,-29.024c-0.641,-0.999 -98.061,-82.554 -111.162,-104.674c-6.046,-10.208 -5.29,-10.304 -10.548,-20.886c-28.81,-57.983 -43.204,-110.593 -58.179,-125.323c-15.651,-15.395 -37.717,-4.153 -40.619,-2.674c-8.706,4.435 -48.758,13.792 -55.633,17.383c-10.029,5.239 -10.748,2.364 -21.23,5.982c-35.514,12.259 -35.919,11.225 -38.7,12.936c-5.823,-1.444 -5.812,-1.763 -6.289,-1.56c-1.536,0.653 -2.226,2.651 -3.762,3.304c-20.422,5.328 -19.486,7.403 -21.249,7.815c-2.668,0.624 -20.534,4.801 -22.353,25.957c-13.24,153.958 -18.33,153.495 -17.066,166.853c0.207,2.188 7.33,23.84 7.801,24.516c0.581,0.833 7.206,10.335 7.249,10.423c1.089,2.591 1.33,2.19 4.915,5.761c2.607,2.958 4.924,4.706 5.397,5.062c15.23,11.485 16.571,8.707 17.814,9.754c33.632,28.346 36.155,24.467 38.807,27.174c16.874,17.219 61.415,44.109 66.038,48.682c5.526,5.465 6.653,3.597 12.589,8.493c15.196,12.535 39.266,13.471 45.564,17.255c12.911,7.757 14.399,2.964 28.738,7.956c8.395,2.923 28.25,4.367 30.405,5.83c14.99,10.175 31.927,6.999 38.178,10.577c14.965,8.566 25.123,2.618 31.322,6.843c12.463,8.495 15.642,3.098 24.932,5.705c14.212,3.989 13.003,7.887 34.731,9.888c5.425,0.5 11.096,5.643 17.393,6.337c12.418,1.369 12.155,1.626 24.242,4.86c71.163,19.04 73.381,19.256 79.941,19.896c1.541,0.67 2.21,2.696 3.751,3.366c0,0 5.783,-1.404 6.286,-1.526c5.217,3.289 4.716,4.119 10.98,5.065c33.23,5.017 31.828,9.734 34.701,10.047c19.648,2.142 18.697,6.012 38.203,7.603c6.596,0.538 7.218,4.301 17.497,6.452c35.679,7.467 35.019,9.97 38.164,10.301c16.031,1.688 15.276,4.323 31.249,7.401c7.624,3.261 7.427,3.6 10.802,4.041c10.376,9.527 22.417,2.924 47.266,53.205c29.937,60.576 127.524,283.936 127.876,284.979c8.047,23.818 14.857,34.671 17.305,41.754c7.546,21.829 59.173,137.107 64.481,148.958c25.265,56.413 -17.402,102.401 -32.29,142.285c-10.941,29.311 -26.004,51.7 -31.306,66.036c-3.665,9.91 -7.438,20.114 -56.811,119.236c-89.312,179.308 -121.526,264.576 -144.367,287.45c-41.645,41.708 -49.043,30.61 -68.458,40.142c-2.951,1.449 -26.021,12.776 -38.751,13.66c-13.206,0.917 -40.56,16.541 -52.152,17.354c-7.385,0.518 -51.618,17.758 -52.442,17.967c-22.405,5.677 -22.047,6.23 -24.031,6.364c-14.803,1 -13.376,6.332 -28.228,7.615c-14.526,1.255 -12.273,8.504 -27.404,9.698c-11.203,0.884 -9.617,6.353 -20.841,7.047c-12.912,0.799 -11.47,5.926 -24.345,6.981c-16.677,1.366 -14.534,9.049 -31.295,10.342c-10.627,0.82 -14.036,7.227 -17.645,7.687c-18.231,2.324 -17.185,5.711 -34.815,10.266c-2.876,0.743 -31.823,8.221 -35.427,11.11c-9.384,7.523 -66.802,5.416 -75.259,0.211c-15.015,-9.24 -17.695,-1.945 -23.922,-7.119c-10.311,-8.568 -13.008,-1.707 -21.252,-6.788c-20.588,-12.689 -23.272,-5.627 -31.274,-10.456c-15.301,-9.234 -17.671,-2.245 -24.412,-6.812c-18.358,-12.439 -24.909,-6.544 -31.254,-10.509c-12.62,-7.888 -37.703,-10.222 -46.096,-15.305c-4.05,-2.453 -38.314,-12.736 -44.809,-13.972c-4.673,-1.898 -4.259,-2.96 -9.499,-2.179c-3.637,-3.038 -3.188,-3.755 -8.009,-4.53c-18.034,-2.902 -16.946,-5.91 -34.742,-10.471c-23.023,-5.901 -22.662,-6.511 -45.262,-14.182c-2.483,-0.843 -28.293,-9.604 -31.204,-10.024c-14.324,-2.069 -13.78,-3.605 -27.67,-7.329c-4.894,-2.062 -4.767,-2.946 -10.014,-1.8c-21.67,-13.322 -74.907,-23.391 -76.444,-24.404c-14.529,-9.583 -16.161,-5.14 -32.216,-11.793c-28.752,-11.915 -31.118,-12.408 -50.775,-40.158c-15.935,-22.497 -43.72,-199.22 -63.567,-277.536c-9.971,-39.344 -5.609,-64.388 3.222,-73.505c15.574,-16.078 17.548,-13.291 34.755,-27.974c0.919,-0.784 31.78,-19.755 34.552,-21.459c15.675,-9.636 15.88,-9.202 16.925,-10.399c0.873,-0.999 0.107,-1.95 21.127,-14.263c10.62,-6.222 27.931,-22.211 38.438,-24.48c1.084,-0.234 9.694,-6.844 11.203,-7.166c29.552,-6.297 61.004,40.304 63.622,42.121c20.274,14.072 107.813,115.892 141.97,143.225c27.613,22.097 73.771,10.116 79.34,10.256c44.188,1.113 51.031,-1.603 55.138,-3.233c2.377,-0.944 1.357,-1.846 3.722,-3.176c1.719,-0.966 4.057,-0.287 5.783,-1.238c7.949,-4.383 39.938,-110.344 42.886,-120.112c13.146,-43.545 37.179,-96.548 33.064,-128.76c-1.747,-13.68 -166.682,-311.797 -167.583,-313.103c-3.382,-4.899 -26.268,-63.678 -85.042,-106.08c-7.085,-5.111 -41.168,-34.668 -43.931,-36.705c-10.962,-8.081 -9.749,-9.122 -20.847,-17.398c-21.641,-16.138 -20.303,-17.404 -22.302,-18.586c-25.183,-14.882 -21.962,-18.962 -31.266,-24.321c-20.291,-11.686 -18.069,-14.457 -29.876,-23.103c-20.129,-14.74 -33.214,-28.298 -66.011,-55.656c-18.106,-15.103 -33.187,-58.073 -33.566,-61.939c-0.121,-1.238 -0.415,-72.132 1.561,-79.907c4.86,-19.127 0.429,-44.315 2.924,-66.077c1.795,-15.654 2.48,-15.372 2.404,-31.185c-0.289,-60.051 3.594,-59.827 3.476,-79.953c-0.165,-28.187 0.719,-59.191 1.603,-62.651c8.115,-31.749 -9.57,-46.349 15.059,-93.319c5.639,-10.754 8.464,-8.489 14.926,-18.825c11.169,-17.866 167.758,-228.498 171.107,-232.541c13.674,-16.505 10.965,-18.034 12.151,-19.432c19.903,-23.456 20.033,-23.289 21.789,-26.122c3.212,-5.18 28.477,-45.922 60.741,-45.991c13.976,-0.03 13.557,-2.689 27.676,-2.806c6.782,-0.056 36.418,-5.839 38.109,-6.386c6.99,2.579 6.983,3.881 10.531,2.34c1.591,-0.691 0.816,-2.645 14.06,-3.554c3.098,-0.129 29.375,-1.222 38.494,-4.471c15.001,-5.344 32.47,1.258 62.097,-8.179c1.374,0.479 2.204,2.023 3.578,2.502c0.582,0.203 0.507,-0.235 6.993,-3.243c38.54,-1.354 38.419,-1.339 38.548,-1.371c12.402,-3.103 47.978,-4.852 58.586,-8.404Z" style="fill:#efe709;fill-opacity:1;"/><path d="M1593.712,1080.427l4.562,5.46c-0.579,24.574 4.367,23.424 7.587,34.514c0.801,2.758 1.067,14.543 3.041,17.41c7.516,10.919 5.86,11.515 6.653,24.568c0.626,10.316 7.704,13.769 8.217,20.601c1.161,15.469 -0.539,16.005 7.374,29.124c5.056,8.382 4.386,18.503 9.136,9.983c6.487,-11.638 -6.059,-24.938 -6.453,-31.98c-0.831,-14.816 -1.656,-14.487 -6.921,-28.153c-4.875,-12.656 14.55,-30.313 14.744,-6.56c0.088,10.814 1.894,10.301 6.032,20.458c1.544,3.789 2.149,16.868 4.092,20.501c6.341,11.857 6.615,11.905 6.475,25.243c-7.569,6.747 -7.294,6.55 -15.096,12.827c-10.702,3.789 -6.115,7.464 -2.07,17.883c8.427,21.706 9.133,-12.152 9.16,-13.453c1.051,-0.94 7.268,-6.5 12.574,-12.364c5.107,9.665 3.996,26.482 4.641,29.77c1.428,7.284 2.838,6.62 4.521,13.725c2.303,9.722 -15.554,5.022 -18.722,10.261c-10.013,16.56 3.26,25.869 4.973,45.439c2.745,31.355 8.944,-2.628 8.95,-3.394c0.077,-9.825 -16.283,-25.702 0.273,-28.571c21.033,-3.644 12.5,17.546 21.502,28.107c6.495,7.62 2.036,30.081 6.372,38.725c7.773,15.495 4.328,16.816 12.737,31.857c3.399,6.079 1.315,37.82 1.099,41.102c-5.964,6.544 -9.097,5.512 -8.081,14.173c0.089,0.76 5.893,12.272 8.84,-3.653c0.235,-0.39 2.938,-4.87 2.938,-4.87c1.125,-0.466 2.298,1.739 3.423,1.273c3.068,16.28 4.108,18.741 4.757,20.275c9.715,22.97 7.581,23.41 8.647,25.261c7.467,12.971 1.367,14.968 8.328,26.983c1.382,2.385 12.759,22.023 1.542,34.424c-3.506,3.877 -4.268,7.29 -4.428,8.004c-0.147,0.66 3.54,17.005 8.444,-0.283c5.794,-20.429 9.649,14.151 9.794,14.481c18.425,42.075 15.086,43.944 15.867,55.054c0.549,7.808 6.586,9.893 7.562,17.307c1.737,13.189 5.216,11.896 8.443,24.634c3.969,15.668 -0.43,16.832 7.715,31.006c5.347,9.306 -0.984,11.177 4.664,20.129c7.028,11.139 1.344,12.735 5.705,25.143c14.616,41.582 15.376,41.33 16.06,48.842c1.028,11.289 6.89,9.243 8.27,20.717c0.275,2.285 0.197,4.607 0.536,6.884c1.163,7.809 7.309,11.743 8.141,17.731c1.608,11.561 0.707,11.816 7.151,21.467c5.991,8.974 -6.927,14.394 25.331,65.406c3.904,6.174 0.399,13.106 4.64,20.152c7.819,12.99 5.858,16.14 6.948,21.15c3.905,17.953 13.958,21.642 14.894,35.1c3.149,45.281 16.532,-26.579 22.221,-35.168c14.584,-22.017 -6.063,-27.418 11.088,-65.666c5.185,-11.562 -2.604,-13.221 3.547,-24.246c7.29,-13.067 1.92,-15.196 10.361,-27.793c7.119,-10.625 3.211,-17.298 7.178,-24.265c13.289,-23.339 1.428,-66.896 7.171,-79.959c18.373,-41.789 -1.567,-46.9 10.507,-65.803c17.924,-28.06 -5.08,-35.009 12.305,-63.559c4.388,-7.205 -0.922,-58.406 3.841,-69.26c15.52,-35.368 -2.843,-39.145 10.406,-73.002c12.499,-31.939 -2.105,-44.977 6.462,-62.848c16.1,-33.583 -1.521,-37.565 8.698,-58.223c15.691,-31.719 -0.934,-57.517 10.204,-72.958c10.672,-14.795 1.486,-32.974 5.686,-45.886c4.99,-15.338 8.918,-14.815 6.524,-30.898c-1.717,-11.532 5.164,-17.836 5.522,-20.857c1.105,-9.335 -7.794,-10.23 0.513,-23.487c7.658,-12.221 0.818,-17.913 6.673,-31.752c10.604,-25.067 -2.205,-28.178 9.722,-52.431c7.815,-15.891 0.028,-29.992 7.332,-41.403c12.104,-18.91 -1.487,-22.995 9.072,-42.563c4.317,-8 -4.117,-9.121 0.263,-17.222c9.559,-17.678 0.83,-20.567 10.714,-38.065c8.718,-15.434 -5.327,-19.667 8.957,-42.565c5.576,-8.939 -4.549,-17.086 5.487,-29.993c14.579,-18.751 -3.805,-24.638 11.975,-56.735c4.955,-10.079 -5.073,-28.962 6.512,-46.883c7.689,-11.894 -1.254,-45.969 6.151,-63.364c13.631,-32.022 -2.118,-48.819 10.039,-62.472c9.141,-10.265 9.606,-11.288 5.198,-24.396c-4.687,-13.936 5.235,-13.786 2.55,-28.518c-1.332,-7.31 6.463,-8.281 5.168,-37.911c-0.986,-22.561 -2.401,-23.487 17.949,-65.999c3.69,-7.709 68.569,-6.205 73.933,-1.231c33.923,31.459 10.435,48.456 9.697,56.822c-2.202,24.968 2.075,25.642 -7.512,48.536c-3.764,8.989 1.157,25.879 -3.699,34.569c-4.643,8.309 0.864,9.292 -2.33,17.973c-8.648,23.508 1.704,25.368 -6.832,48.658c-14.992,40.907 2.746,75.057 -8.391,93.165c-14.063,22.865 0.85,48.644 -7.469,65.919c-16.6,34.47 6.101,41.024 -12.29,66.921c-7.992,11.253 6.638,12.995 1.5,23.111c-7.258,14.287 -3.646,15.1 -4.073,46.107c-0.167,12.129 -8.247,15.175 -8.594,24.284c-1.208,31.662 3.009,32.178 -6.79,62.539c-6.991,21.659 2.387,43.373 -3.253,55.703c-18.208,39.809 1.468,46.253 -10.049,73.186c-10.466,24.473 -3.923,25.509 -5.93,52.095c-0.538,7.126 -7.41,10.886 -7.641,20.747c-0.422,18.017 -0.118,17.883 -6.026,35.263c-8.709,25.624 4.151,49.977 -7.488,73.045c-10.796,21.396 1.75,25.112 -5.479,37.207c-17.804,29.786 2.579,35.207 -11.03,62.233c-13.196,26.206 7.011,31.661 -11.597,67.232c-5.595,10.695 4.52,21.995 -3.942,34.64c-14.871,22.223 0.638,42.823 -8.272,58.287c-9.139,15.862 -4.463,16.882 -5.252,35.306c-0.865,20.189 3.111,21.238 -7.34,38.442c-2.874,4.732 -0.96,14.228 -4.876,19.965c-5.606,8.215 2.199,9.349 -0.873,18.588c-10.258,30.854 0.553,33.032 -6.578,47.337c-15.474,31.041 4.14,36.411 -12.577,66.736c-6.586,11.947 2.113,32.593 -4.553,44.578c-15.932,28.644 -0.332,39.251 -9.121,59.831c-16.049,37.578 4.5,42.662 -8.6,61.371c-17.907,25.574 3.497,31.506 -10.183,59.582c-9.949,20.418 0.908,38.071 -7.474,50.47c-12.963,19.176 1.888,23.583 -7.836,41.004c-7.858,14.078 -5.441,14.635 -5.043,30.879c0.536,21.878 -5.336,20.5 -10.35,41.527c-2.216,9.295 -14.58,25.666 -12.582,31.243c2.91,8.121 4.239,10.81 -7.954,16.713c-16.591,8.032 -15.711,9.178 -31.135,24.966c-12.928,13.232 -16.311,6.57 -31,14.201c-24.681,12.821 -48.402,-2.08 -68.598,8.515c-22.074,11.58 -95.673,-1.02 -108.038,6.457c-11.344,6.86 -13.096,-0.008 -25.309,5.093c-7.52,3.141 -47.024,0.519 -52.317,-1.82c-32.177,-14.219 -36.602,4.352 -61.301,-9.243c-17.6,-9.688 -23.254,3.523 -36.941,-11.22c-14.213,-15.31 -46.441,-39.142 -57.105,-84.857c-4.399,-18.858 -15.423,-22.256 -16.515,-41.625c-0.783,-13.888 -11.715,-13.28 -16.796,-41.481c-2.534,-14.067 -14.303,-30.082 -15.608,-35.082c-6.876,-26.353 -8.925,-25.614 -9.338,-27.934c-5.12,-28.753 -16.409,-31.624 -18.059,-45.05c-1.79,-14.56 -5.761,-13.316 -7.865,-27.679c-6.62,-45.201 -22.384,-41.223 -25.662,-86.839c-0.826,-11.493 -14.895,-17.091 -16.153,-27.881c-1.835,-15.746 -8.058,-13.909 -8.864,-27.963c-1.914,-33.376 -34.222,-67.076 -34.847,-86.886c-0.764,-24.219 -9.201,-21.589 -16.218,-44.78c-0.763,-2.522 -9.358,-30.929 -9.388,-31.576c-0.642,-14.066 0.4,-14.708 -8.943,-25.666c-10.508,-12.324 -7.22,-21.394 -9.667,-25.744c-7.504,-13.345 -2.441,-15.057 -9.579,-28.323c-4.516,-8.392 -3.668,-8.662 -1.037,-18.014c3.073,-10.918 -11.604,-12.389 -12.627,-27.393c-1.02,-14.959 -14.926,-29.061 -17.531,-41.666c-5.603,-27.11 -13.886,-24.603 -17.037,-52.199c-1.427,-12.492 -7.611,-17.361 -8.805,-24.6c-3.838,-23.273 -6.615,-22.215 -6.898,-24.209c-1.957,-13.77 -6.753,-16.964 -8.883,-24.119c-7.846,-26.353 -8.916,-38.527 -9.216,-41.949c-0.925,-10.529 -16.994,-29.549 -16.86,-41.581c0.148,-13.262 -1.596,-12.849 -7.357,-24.829c-12.04,-25.04 -8.597,-26.276 -10.886,-31.034c-20.583,-42.777 -16.952,-44.222 -19.088,-47.737c-7.803,-12.847 -3.407,-14.257 -6.616,-21.192c-4.764,-10.297 -6.3,-9.589 -7.429,-21.106c-0.884,-9.016 -14.12,-23.646 -16.566,-38.268c-2.201,-13.159 -7.667,-11.398 -8.466,-24.499c-1.81,-29.71 -12.809,-26.672 -17.384,-55.766c-0.997,-6.341 -6.206,-12.909 -7.088,-17.426c-2.449,-12.546 -5.802,-11.346 -8.525,-23.988c-5.698,-26.451 -8.366,-25.578 -8.623,-27.9c-2.02,-18.255 -7.191,-16.535 -9.37,-27.567c-4.753,-24.064 -12.448,-21.42 -16.66,-45.368c-2.204,-12.528 -9.402,-11.494 -8.937,-27.706c0.819,-28.554 -29.732,-44.132 -34.581,-73.35c-1.856,-11.182 -3.902,-10.327 -7.079,-21.022c-4.514,-15.195 6.923,-19.047 -10.442,-39.234c-11.359,-13.205 -5.489,-18.885 -9.877,-25.333c-9.265,-13.615 -1.852,-16.637 -9.703,-28.423c-13.234,-19.866 4.948,-31.361 -9.808,-52.543c-6.773,-9.723 0.302,-12.621 3.275,-21.022c6.187,-17.484 -5.835,-26.947 43.073,-60.924c16.858,-11.711 19.483,-5.57 37.067,-15.613c6.195,-3.538 16.288,-0.238 24.027,-7.25c13.002,-11.782 13.565,-10.63 28.75,-19.389c9.604,-5.539 16.404,2.529 27.346,-4.373c13.041,-8.226 15.399,-1.586 26.798,-8.603c9.856,-6.068 10.111,-5.036 21.589,-6.73c7.247,-1.07 8.575,-7.909 17.407,-7.588c27.994,1.015 35.875,-15.645 48.636,-16.82c28.296,-2.606 27.401,-6.995 55.565,-10.657c14.199,-1.846 27.97,-14.456 48.93,-14.719c59.644,-0.749 59.836,1.3 76.292,9.741c55.926,28.685 39.348,43.925 67.929,99.497c6.994,13.599 2.072,15.274 9.75,28.184c6.591,11.082 2.167,12.457 7.48,24.112c12.225,26.817 13.554,45.294 13.849,49.386c0.684,9.513 5.787,7.619 7.034,17.255c2.113,16.333 0.633,16.959 10.538,30.274c9.684,13.018 1.909,16.688 11.697,29.446c10.317,13.447 0.159,19.524 7.193,31.066c7.51,12.322 1.919,14.206 8.524,26.966c9.613,18.571 1.57,21.115 11.52,39.47c2.581,4.761 7.412,28.818 6.854,30.294c-4.716,12.491 -3.298,13.637 6.734,22.619c5.708,5.11 5.39,20.853 9.766,29.293c4.383,8.455 -3.766,10.731 2.201,17.92c10.03,12.083 7.873,13.104 13.436,28.034c9.095,24.407 7.446,24.956 8.598,26.899c6.844,11.539 6.102,11.736 6.618,25.049c0.292,7.536 6.144,11.976 4.42,20.518c-3.312,16.405 19.378,29.281 11.757,59.441c-5.156,20.405 -22.582,-19.853 -23.321,-21.218c-5.033,-9.3 1.405,-11.39 -5.825,-22.363c-8.758,-13.293 0.256,-30.038 -6.349,-38.929c-9.599,-12.921 -5.314,-20.368 -12.437,-17.258c-5.754,2.512 -1.866,4.486 4.014,19.757c2.003,5.201 -1.508,25.404 5.052,36.366Z"/><path d="M3026.774,670.617c-28.838,-0.528 -28.755,-0.741 -31.257,-0.761c-20.743,-0.168 -26.623,7.571 -38.318,8.925c-16.087,1.863 -15.112,4.699 -31.017,8.386c-16.225,3.761 -19.492,12.229 -25.171,15.197c-23.343,12.2 -21.271,14.967 -23.372,15.79c-19.993,7.836 -18.138,10.429 -33.769,25.025c-32.154,30.023 -28.394,47.625 -45.498,82.49c-10.517,21.439 -10.011,35.791 -10.972,37.958c-10.654,24.039 -7.764,24.901 -8.745,26.944c-17.204,35.849 3.816,41.714 -10.651,62.104c-1.605,2.262 -3.107,2.075 -4.183,49.803c-0.335,14.841 10.836,26.155 13.555,34.464c9.716,29.694 10.727,29.298 11.342,31.938c2.919,12.522 1.91,13.381 17.561,28.951c26.774,26.636 51.915,68.659 71.47,77.353c16.528,7.348 14.159,10.93 30.557,19.058c5.768,2.859 71.644,35.511 72.063,35.814c17.517,12.686 110.886,37.487 115.5,40.695c12.201,8.483 15.061,0.909 23.953,7.505c10.872,8.064 11.706,6.45 25.107,5.17c20.803,-1.987 27.661,21.914 59.48,16.226c8.158,-1.458 38.721,7.777 52.283,14.6c7.389,3.717 7.646,2.049 20.553,3.118c11.349,0.94 9.339,7.346 20.694,7.897c2.327,0.113 4.672,-0.132 6.99,0.106c8.615,0.883 13.724,14.611 24.476,16.076c12.775,1.741 11.851,4.241 24.277,8.237c11.755,3.78 13.105,1.119 21.871,9.676c12.265,11.973 39.431,15.457 47.3,22.262c13.382,11.572 12.27,12.758 27.557,21.47c14.682,8.367 15.667,17.989 24.508,20.811c8.589,2.742 16.535,5.278 82.855,76.405c4.035,4.327 7.369,14.244 8.789,15.96c22.342,26.98 15.026,32.336 40.318,56.773c6.326,6.112 4.269,15.357 6.013,20.859c4.966,15.67 14.013,11.222 23.036,44.511c3.474,12.815 7.657,11.451 8.376,24.562c0.48,8.745 17.558,28.898 17.154,45.175c-0.454,18.287 1.684,17.749 7.103,35.139c1.728,5.547 0.878,5.488 0.96,72.62c0.129,104.898 0.65,105.586 -6.031,118.447c-1.785,3.436 -2.793,22.943 -4.813,27.234c-12.836,27.259 -1.637,30.645 -10.553,44.964c-6.845,10.993 -1.571,18.738 -5.444,28.63c-9.497,24.256 -7.508,24.941 -8.749,26.827c-10.304,15.652 -8.742,16.461 -9.657,17.798c-11.062,16.145 -7.872,17.678 -17.732,34.61c-8.254,14.174 -0.858,17.83 -10.728,26.997c-12.85,11.933 -38.47,68.172 -52.963,86.004c-23.374,28.76 -21.262,30.062 -23.559,32.286c-14.339,13.882 -10.512,17.255 -26.192,29.584c-4.446,3.496 -7.906,12.514 -14.996,19.697c-56.817,57.558 -58.789,55.37 -69.189,58.945c-16.357,5.623 -17.402,13.253 -24.752,16.848c-95.618,46.77 -94.238,50.307 -103.416,51.342c-15.628,1.763 -14.55,4.496 -28.578,11.055c-26.461,12.373 -27.65,8.844 -29.903,9.977c-24.868,12.516 -32.998,-2.309 -48.518,7.017c-13.888,8.345 -21.784,5.962 -46.162,5.333c-18.167,-0.469 -38.847,15.37 -52.377,7.293c-29.23,-17.451 -35.228,3.574 -64.76,-12.556c-14.954,-8.168 -34.052,1.798 -45.773,-5.943c-17.032,-11.247 -29.697,-1.153 -45.414,-7.003c-21.944,-8.167 -22.391,-6.258 -24.253,-7.044c-13.711,-5.794 -13.295,-7.467 -28.182,-7.573c-14.152,-0.102 -20.909,-21.972 -33.738,-14.4c-9.992,5.898 -10.149,-1.572 -21.783,-2.478c-23.195,-1.806 -15.184,-26.747 -27.552,-22.382c-7.925,2.797 -8.897,4.173 -16.004,-2.68c-10.261,-9.895 -11.755,-6.566 -26.188,-7.243c-13.669,-0.641 -16.122,-17.716 -38.058,-25.863c-12.967,-4.816 -7.291,-13.293 -34.2,-25.716c-10.638,-4.911 -12.769,-19.333 -18.469,-22.03c-31.1,-14.72 -37.518,-40.294 -42.201,-45.225c-16.571,-17.448 -17.059,-17.191 -26.281,-39.337c-4.346,-10.436 -15.057,-15.012 -16.729,-24.325c-2.971,-16.552 -5.132,-15.541 -11.386,-31.159c-6.665,-16.642 -6.286,-16.688 -5.72,-41.583c0.261,-11.469 10.29,-9.66 12.893,-13.514c6.647,-9.841 5.496,-15.647 27.247,-13.157c8.745,1.001 23.787,16.535 26.214,23.646c4.246,12.442 5.899,11.186 15.746,20.255c46.816,43.118 43.66,46.163 48.297,49.144c32.271,20.747 41.9,25.035 45.775,26.761c26.121,11.633 20.125,24.066 48.421,27.778c9.362,1.228 16.164,7.941 24.138,8.809c17.26,1.879 15.749,6.164 24.67,8.283c13.177,3.131 14.479,-2.17 28.493,6.491c8.399,5.191 63.224,1.932 69.182,-0.64c25.706,-11.096 30.082,-0.706 51.968,-18.218c19.674,-15.742 38.463,-20.005 41.972,-28.044c3.581,-8.206 5.028,-6.687 12.935,-11.251c18.575,-10.722 10.046,-18.917 26.805,-32.322c4.275,-3.42 41.664,-67.963 41.965,-71.553c2.102,-25.053 12.486,-24.975 16.131,-37.755c3.7,-12.972 1.935,-13.393 7.977,-25.297c5.39,-10.619 -0.874,-22.877 4.415,-34.305c14.182,-30.642 -1.61,-34.287 11.46,-65.623c5.169,-12.394 4.516,-79.066 -0.682,-87.166c-7.895,-12.3 -4.616,-25.928 -4.587,-34.71c0.078,-24.379 -15.163,-20.532 -16.452,-48.713c-0.771,-16.868 -16.079,-34.116 -17,-41.75c-3.216,-26.675 -13.324,-23.423 -15.931,-41.869c-3.131,-22.152 -15.986,-17.193 -17.3,-34.631c-1.845,-24.47 -20.496,-22.824 -23.758,-37.848c-4.12,-18.977 -5.602,-18.478 -19.302,-32.006c-8.982,-8.87 -3.134,-14.162 -14.789,-19.11c-12.355,-5.246 -6.348,-11.217 -20.992,-25.04c-41.913,-39.563 -106.764,-108.556 -121.229,-118.56c-31.47,-21.765 -28.303,-25.149 -56.876,-50.908c-20.842,-18.79 -26.145,-12.691 -30.516,-22.008c-1.756,-3.743 -9.873,-21.045 -32.038,-40.556c-13.418,-11.812 -8.304,-15.462 -16.907,-25.042c-5.998,-6.679 -10.483,-5.072 -27.655,-38.661c-12.64,-24.723 -15.846,-22.425 -16.884,-24.573c-8.145,-16.853 -14.787,-13.32 -17.415,-27.903c-2.94,-16.315 -4.008,-15.82 -11.26,-30.811c-9.047,-18.701 -2.221,-20.993 -12.351,-38.993c-4.616,-8.202 1.663,-15.123 -5.44,-30.26c-7.525,-16.036 -4.073,-16.662 -3.977,-28.601c0.277,-34.736 -13.075,-36.593 -7.517,-65.911c4.871,-25.693 1.576,-25.995 2.524,-28.037c12.819,-27.595 -2.252,-43.275 6.378,-62.816c7.3,-16.53 3.993,-17.141 6.321,-34.655c2.639,-19.856 14.574,-16.409 17.411,-52.094c0.422,-5.313 12.581,-18.228 23.947,-42.259c22.058,-46.638 55.091,-73.512 57.381,-79.221c3.828,-9.541 4.476,-9.342 13.944,-13.749c8.761,-4.077 10.311,-16.135 17.52,-20.625c11.66,-7.263 11.182,-7.588 21.321,-16.99c21.36,-19.808 26.537,-11.857 49.124,-30.692c29.161,-24.318 52.993,-25.834 60.417,-30.681c19.894,-12.986 23.702,-0.696 45.366,-10.643c47.179,-21.661 49.591,-9.759 101.448,-13.482c7.406,-0.532 12.109,-12.33 23.4,-4.21c13.966,10.044 23.802,1.137 35.591,6.21c15.085,6.491 15.015,7.104 31.562,6.308c18.235,-0.877 16.406,8.325 34.792,8.856c6.436,0.186 80.301,28.016 82.749,30.075c14.638,12.313 42.091,28.197 45.904,30.403c14.678,8.492 53.652,76.471 53.944,77.199c18.956,47.132 16.035,48.216 18.434,51.913c8.954,13.797 -0.405,16.658 7.238,31.056c15.323,28.865 -1.04,33.773 11.081,55.226c1.22,2.16 10.909,19.309 -0.882,31c-17.671,17.523 -16.544,18.412 -18.224,19.754c-2.951,2.357 -33,9.506 -33.692,9.278c-21.166,-6.97 -21.511,-4.947 -23.222,-5.807c-23.004,-11.56 -33.41,-18.344 -37.807,-47.265c-0.611,-4.017 -39.11,-84.061 -43.765,-89.516c-16.482,-19.316 -11.695,-22.66 -24.346,-34.567c-31.609,-29.748 -30.478,-30.776 -33.949,-32.172c-11.754,-4.724 -10.552,-6.418 -20.825,-13.927c-12.26,-8.961 -13.792,-6.536 -24.927,-16.705c-10.323,-9.428 -35.471,-2.849 -45.067,-6.567c-27.9,-10.812 -28.617,-6.729 -58.677,-6.095Z"/><g><path d="M3169.067,1490.712c-6.169,1.774 -6.261,1.535 -6.663,1.916c-0.84,0.796 0.973,2.674 0.133,3.47c-33.141,-51.789 -40.132,-45.038 -52.381,-48.505c-45.044,-12.749 -29.815,-42.617 -71.589,-74.475c-9.831,-7.498 -8.385,-12.752 -4.941,-11.442c1.462,0.556 2.243,2.314 3.697,2.891c3.867,1.535 15.914,-11.031 15.483,-0.539c-0.065,1.594 -5.552,7.348 1.866,10.178c20.168,7.694 12.035,19.971 45.021,35.143c6.919,3.183 -0.119,10.116 33.927,39.307c19.183,16.448 23.577,24.441 24.996,27.022c6.763,12.304 6.607,12.275 7.28,13.283c0.671,1.005 2.501,0.748 3.172,1.752Z" style="fill:#dcd633;"/><path d="M1488.67,1235.382c-0.586,-18.82 -0.77,-18.879 -0.16,-20.391c1.968,-4.877 7.227,-4.284 8.397,-0.303c2.259,7.688 2.092,7.526 6.647,14.169c8.643,12.608 10.57,34.695 10.844,37.831c0.595,6.821 5.209,9.802 6.587,14.093c3.934,12.255 1.27,12.982 7.601,24.092c9.84,17.268 -11.939,31.694 -13.884,13.932c-1.607,-14.678 -3.451,-13.944 -12.976,-25.143c-5.418,-6.371 11.445,-23.009 -1.296,-33.589c-11.366,-9.438 -10.944,-10.379 -11.76,-24.691Z" style="fill:#e4de35;"/><path d="M2877.245,1233.909c-20.416,-0.664 -19.427,-15.009 -31.994,-21.642c-15.109,-7.975 -35.325,-11.914 -30.981,-29.169c5.862,-23.286 9.45,10.421 45.825,24.006c14.246,5.32 21.69,18.196 31.047,18.736c4.604,0.266 9.224,0.093 13.831,0.313c22.291,1.062 -7.088,35.965 -14.464,20.077c-4.152,-8.942 -3.496,-10.504 -13.263,-12.321Z" style="fill:#e4de35;"/><path d="M3276.578,1542.383c-2.895,-2.531 -34.816,-33.589 -36.626,-36.5c-2.512,-4.04 -1.697,-11.861 -12.027,-19.569c-16.396,-12.233 -15.985,-12.901 -22.923,-32.051c-0.281,-0.776 -13.39,-12.024 -4.405,-12.641c2.801,-0.192 7.169,6.937 10.391,8.248c1.136,0.462 2.452,0.279 3.619,0.653c6.661,2.133 6.266,13.02 10.118,14.619c12.901,5.356 10.465,8.166 18.958,19.391c4.271,5.645 11.174,9.247 18.559,22.475c9.543,17.094 13.489,15.082 18.312,34.209l-3.977,1.165Z" style="fill:#e3dd35;"/><path d="M1335.774,957.395c1.203,14.018 0.992,13.894 6.575,27.018c5.092,11.969 -1.168,24.001 -6.418,12.082c-6.182,-14.035 -8.223,-13.404 -8.744,-28.793c-0.366,-10.803 -26.489,-51.093 -16.695,-61.652c6.174,-6.656 15.949,22.357 16.133,23.479c2.395,14.587 5.653,13.349 9.149,27.866Z" style="fill:#e4de35;"/><path d="M2989.007,1495.566c-1.305,-1.228 -13.6,-12.798 -15.219,-16.424c-9.354,-20.954 -10.295,-22.281 -7.404,-25.783c7.194,-8.714 13.035,4.133 13.514,5.187c8.612,18.942 16.406,13.449 24.549,31.179c8.89,19.355 10.116,18.978 9.633,20.742c-2.31,8.441 -18.165,-8.48 -25.074,-14.902Z" style="fill:#e4de35;"/><path d="M1411.901,1440.49c-1.622,-22.369 -12.864,-20.865 -8.38,-38.196c3.223,-12.458 10.404,5.951 15.958,17.828c1.535,3.282 1.591,11.469 4.11,17.213c6.604,15.056 3.651,15.989 11.869,30.483c6.546,11.546 0.427,34.839 -4.725,18.144c-8.795,-28.497 -17.468,-25.99 -18.831,-45.471Z" style="fill:#e4de35;"/><path d="M3082.508,609.501c-12.983,-7.602 -20.032,-7.823 -28.56,-0.39c-4.557,3.972 -5.01,1.145 -9.996,-2.43c-7.078,-5.075 -41.367,-0.709 -44.121,-4.625c-6.509,-9.257 39.118,-8.311 47.396,-2.358c6.229,4.479 8.715,-3.162 14.342,-3.765c1.952,-0.209 34.781,-0.811 34.81,-0.807c9.669,1.4 12.814,25.071 -13.871,14.376Z" style="fill:#d4ce32;"/><path d="M1089.472,710.454c-0.86,0.925 -0.674,0.636 -5.904,3.504c-7.692,-16.686 -1.043,-18.548 -9.447,-35.198c-6.403,-12.685 4.914,-24.728 -7.071,-48.691c-4.071,-8.139 11.228,-13.266 13.714,3.857c1.872,12.895 8.206,12.76 2.856,24.431c-5.536,12.076 6.038,19.345 5.928,31.242c-0.097,10.57 -0.037,10.236 -0.075,20.855Z" style="fill:#e1db35;"/><path d="M3150.485,1534.847c-16.638,-52.975 28.81,25.661 36.486,33.982c20.462,22.182 0.043,21.817 -0.435,21.681c-4.169,-1.184 -14.346,-22.057 -15.348,-24.113c-8.409,-17.248 -13.321,-14.073 -20.703,-31.55Z" style="fill:#e4de35;"/><path d="M1394.91,1527.422c-0.171,22.76 0.963,23.54 -1.362,24.912c-1.386,0.818 -5.226,3.083 -13.423,-14.981c-0.941,-2.073 2.387,-2.969 -8.458,-27.175c-5.678,-12.674 0.057,-35.095 6.137,-23.587c15.36,29.075 16.585,37.327 17.106,40.83Z" style="fill:#e5df36;"/><path d="M3058.389,1449.812c7.596,6.776 8.358,6.048 12.551,15.426c2.83,6.329 39.972,56.392 28.768,57.38c-2.745,0.242 -16.728,-16.097 -18.187,-19.123c-11.448,-23.744 -22.182,-26.423 -27.623,-49.211c1.497,-1.491 2.994,-2.981 4.49,-4.472Z" style="fill:#dcd634;"/><path d="M1591.726,1729.403c1.217,0.091 2.14,-1.554 3.357,-1.463c8.3,0.621 -1.811,7.83 10.251,28.656c3.776,6.519 0.409,15.31 4.468,20.166c1.251,1.497 13.838,16.555 4.49,23.968c-8.322,6.6 -1.922,-6.332 -12.806,-19.54c-2.681,-3.254 -18.173,-22.054 -9.76,-51.787Z" style="fill:#e1db35;"/><path d="M1412.274,877.294c-1.227,10.012 4.016,16.707 -5.575,14.278c-1.324,-0.336 -10.797,-17.898 -11.531,-24.492c-1.691,-15.179 -0.171,-15.577 -7.514,-28.824c-5.433,-9.801 14.726,-18.049 16.007,0.82c1.096,16.148 0.936,15.894 1.316,16.646c5.311,10.514 6.101,10.077 7.297,21.572Z" style="fill:#e3dd35;"/><path d="M1217.223,905.022c-0.075,0.851 -1.816,20.673 -9.748,4.353c-7.343,-15.106 -6.984,-15.153 -8.186,-32.175c-0.19,-2.694 -14.362,-24.429 -4.485,-24.321c1.629,0.018 26.241,17.167 19.269,30.552c-5.375,10.318 -0.345,10.424 3.15,21.591Z" style="fill:#e3dd35;"/><path d="M2925.91,1301.075c5.996,0.056 6.246,-1.116 9.817,1.379c8.433,5.891 22.399,21.772 24.193,23.812c2.922,3.323 -1.211,12.558 -19.395,4.916c-22.806,-9.585 -18.132,-16.468 -18.662,-22.809c1.349,-2.433 2.698,-4.865 4.047,-7.298Z" style="fill:#e5df36;"/><path d="M1129.844,713.559c-7.75,-14.953 -7.667,-18.679 -7.628,-20.423c0.46,-20.65 12.524,4.685 17.532,9.821c9.306,9.543 2.118,12.29 7.018,24.62c8.889,22.365 -5.407,17.982 -6.01,16.697c-7.011,-14.957 -7.902,-14.512 -10.912,-30.715Z" style="fill:#e4de35;"/><path d="M3403.781,2188.18c5.064,-9.977 20.036,-42.578 33.007,-40.709c13.791,1.988 -7.181,13.233 -8.441,26.279c-1.036,10.725 -1.87,11.211 -11.547,15.698c-2,0.927 -6.872,5.53 -7.536,5.666c-5.379,1.106 -3.919,-1.763 -5.482,-6.933Z" style="fill:#e4de35;"/><path d="M3216.864,1614.824c17.964,37.144 20.533,37.849 17.621,39.751c-12.872,8.403 -53.276,-84.922 -33.205,-62.744c9.387,10.372 8.647,10.584 15.585,22.994Z" style="fill:#ded834;"/><path d="M1364.351,856.302c-2.293,1.564 -4.586,3.128 -6.879,4.691c-10.109,-12.894 -2.204,-41.849 -7.38,-48.941c-1.164,-1.595 -11.738,-16.083 -4.78,-24.222c6.938,-8.115 8.88,15.602 9.313,16.529c6.889,14.765 3.519,15.536 7.346,31.168c2.528,10.326 4.26,10.141 2.38,20.774Z" style="fill:#e0da35;"/><path d="M1935.95,2038.84c-9.471,16.413 -4.219,39.807 -13.089,22.903c-7.438,-14.176 2.987,-29.036 4.43,-31.092c4.448,-6.34 -0.23,-47.849 10.299,-36.369c0.768,0.837 6.04,30.526 -1.641,44.559Z" style="fill:#dfd934;"/><path d="M1547.791,1989.537c1.17,21.99 16.49,34.225 1.596,34.237c-1.099,0.001 -8.514,0.007 -9.634,-9.801c-1.827,-15.987 1.633,-17.672 -9.643,-29.239c-6.584,-6.754 -3.943,-10.473 5.345,-10.993c16.338,-0.915 12.168,12.537 12.336,15.796Z" style="fill:#e4de35;"/><path d="M1458.076,1538.277c12.648,24.441 -0.345,24.004 -1.843,22.934c-2.496,-1.782 -0.42,-3.136 -17.393,-34.164c-5.04,-9.214 -1.527,-33.411 5.618,-20.184c0.865,1.602 1.391,10.419 5.332,16.138c5.045,7.321 4.544,7.383 8.286,15.276Z" style="fill:#e2dc35;"/><path d="M1587.253,1712.138c-4.589,2.02 -4.551,1.733 -6.007,3.011c-8.114,-17.548 -16.309,-25.909 -16.569,-38.299c-0.35,-16.73 3.592,-18.043 -3.648,-25.281c-5.84,-5.839 0.156,-11.975 5.176,-5.625c8.532,10.792 5.603,30.653 21.047,66.194Z" style="fill:#d7d132;"/><path d="M3313.326,1902.747c-1.864,32.457 -16.753,12.421 -17.077,10.835c-1.026,-5.015 -2.507,-40.826 4.639,-37.234c8.334,4.19 12.014,24.102 12.438,26.398Z" style="fill:#e5df36;"/><path d="M3253.985,1881.965c0.655,-10.344 0.455,-10.312 0.708,-11.171c0.254,-0.861 7.976,-8.676 8.176,7.69c0.65,53.084 0.906,53.659 -2.156,57.048c-9.66,10.687 -6.763,-37.936 -6.728,-53.567Z" style="fill:#e5df36;"/><path d="M1364.351,856.302c10.462,28.088 6.941,28.957 8.343,31.12c5.011,7.732 -5.522,9.147 -1.231,14.182c13.983,16.408 -6.049,2.424 -6.091,2.41c-2.421,-0.82 -5.011,-1.087 -7.414,-1.96c-8.521,-3.095 9.991,-13.224 -0.485,-41.06c2.293,-1.564 4.586,-3.128 6.879,-4.691Z" style="fill:#dad533;"/><path d="M2029.447,1378.521c1.56,1.018 1.55,-1.52 3.14,-0.483c1.373,0.896 -0.846,1.523 0.463,2.834c0.691,0.692 2.195,-0.172 2.886,0.52c-5.155,50.719 -4.468,50.894 -6.616,55.912l-6.298,-3.703c1.799,-42.407 -2.563,-43.845 6.426,-55.079Z" style="fill:#e4de35;"/><path d="M3237.896,1370.975c-5.634,4.186 -5.592,3.883 -6.048,4.26c-2.15,-0.526 -39.05,-9.563 -17.306,-21.581c3.631,-2.007 8.174,-3.362 13.751,-2.795c11.874,1.206 9.29,16.338 9.603,20.115Z" style="fill:#e5df36;"/><path d="M1198.014,700.253c-2.93,-6.779 -2.109,-6.803 -1.789,-14.167c0.138,-3.166 -7.068,-12.618 -2.018,-17.878c12.363,-12.876 13.656,16.953 17.426,21.868c5.663,7.381 -3.784,20.946 -13.619,10.176Z" style="fill:#e2dc35;"/><path d="M1806.473,1932.196c5.086,2.883 5.243,2.4 9.127,6.75c11.862,13.287 -0.144,70.177 -4.522,26.218c-1.19,-11.943 -10.783,-10.15 -7.381,-30.718l2.776,-2.25Z" style="fill:#e4de35;"/><path d="M1683.366,1614.397c1.637,11.649 0.786,11.821 7.034,21.646c6.389,10.047 -6.329,16.287 -12.874,2.838c-0.888,-1.825 0.416,-2.154 -7.062,-24.37c-1.688,-5.016 3.824,-9.512 4.508,-10.07c7.24,-5.905 6.884,0.764 8.393,9.955Z" style="fill:#e4de35;"/><path d="M1106.316,793.81c-7.482,40.707 -26.788,-23.939 -12.333,-24.467c10.156,-0.371 12.142,22.283 12.333,24.467Z" style="fill:#e5df36;"/><path d="M1064.497,742.079c7.938,17.346 18.339,18.146 14.781,27.203c-2.831,7.207 -5.415,7.077 -2.75,14.202c5.04,13.473 -11.832,1.114 -12.473,-7.178c-1.331,-17.227 1.027,-17.766 -4.851,-27.54c1.602,-1.082 1.856,0.658 3.559,-0.492c0.426,-0.288 0.128,-0.459 1.734,-6.195Z" style="fill:#ded934;"/><path d="M1258.609,887.635c-0.865,-3.558 -15.993,-34.408 1.519,-22.982c7.678,5.009 8.693,2.987 11.081,5.797c0.377,0.443 -3.199,27.577 -7.315,29.672c-0.967,0.492 -3.259,1.074 -5.286,-12.487Z" style="fill:#e4de35;"/><path d="M3364.359,1550.539c20.533,19.045 -9.705,28.178 -7.792,18.521c0.673,-3.395 7.698,-5.654 -3.858,-16.975c-13.734,-13.454 -4.127,-19.329 -0.319,-16.408c0.646,0.495 0.396,0.65 4.214,9.255c1.949,4.393 2.869,3.213 7.756,5.606Z" style="fill:#dbd533;"/><path d="M2056.554,1496.916c-5.982,-4.867 -12.911,-7.931 1.221,-20.522c10.001,-8.91 6.545,3.062 8.456,16.266c0.495,3.421 9.834,5.181 8.17,13.91c-2.65,13.898 -5.887,-2.275 -17.847,-9.654Z" style="fill:#d8d333;"/><path d="M2751.454,1183.629c0.462,1.03 8.187,18.238 -2.924,13.802c-9.836,-3.926 -7.975,-22.139 -13.96,-31.294c-10.287,-15.736 3.538,-11.757 3.963,-10.944c1.158,2.214 0.453,2.506 12.921,28.436Z" style="fill:#dfd934;"/><path d="M2109.689,1263.751c9.1,-9.033 8.564,-11.279 12.81,-9.914c10.299,3.311 -5.809,8.873 0.277,23.344c5.041,11.987 -29.011,6.926 -13.087,-13.43Z" style="fill:#e5df36;"/><path d="M1505.436,1092.905c5.903,-28.19 8.377,6.928 11.827,10.823c6.814,7.692 6.447,21.642 4.451,23.997c-8.028,9.476 -7.002,-12.374 -11.463,-19.715c-4.272,-7.03 -3.603,-7.041 -4.816,-15.105Z" style="fill:#dad533;"/><path d="M3487.014,1888.923c-4.29,31.473 -16.63,8.64 -16.867,7.193c-1.901,-11.614 14.564,-37.807 16.867,-7.193Z" style="fill:#e5df36;"/><path d="M1317.902,1652.502c-2.28,-11.632 -11.932,-22.305 -7.156,-30.703c6.748,-11.865 9.592,16.259 9.868,16.687c1.151,1.79 14.092,21.915 2.668,26.462c-6.98,2.778 -3.792,-2.732 -5.379,-12.446Z" style="fill:#dcd633;"/><path d="M1506.396,947.271c-1.268,-6.825 -1.345,-6.772 -1.37,-7.371c-1.247,-29.839 25.096,20.371 16.227,27.449c-6.013,4.799 -12.621,-15.347 -14.858,-20.078Z" style="fill:#e5df36;"/><path d="M1606.95,1531.165c-0.006,1.137 -0.133,24.36 -10.97,9.038c-5.653,-7.992 -14.61,-16.458 -4.293,-22.147c7.876,-4.343 14.635,11.627 15.263,13.109Z" style="fill:#e4de35;"/><path d="M2041.916,1335.965c-0.083,1.958 -1.236,29.095 -7.951,23.168c-4.51,-3.98 -1.723,-47.836 10.16,-38.415c2.906,2.304 1.818,3.1 -2.209,15.247Z" style="fill:#ddd734;"/><path d="M2727.61,835.502c3.667,-9.379 3.511,-9.384 3.96,-10.129c6.177,-10.248 12.73,8.097 2.739,20.282c-0.985,1.201 -9.035,11.019 -13.752,13.697c-16.793,9.533 -1.303,-6.516 7.052,-23.849Z" style="fill:#dfd934;"/><path d="M1429.231,1235.274c-0.008,1.15 -0.125,18.742 -7.062,12.515c-2.231,-2.002 -1.771,-11.505 -4.433,-16.092c-12.001,-20.681 -2.036,-21.083 -0.398,-20.791c0.376,0.067 9.818,17.541 11.894,24.368Z" style="fill:#d4ce32;"/><path d="M2065.915,1291.114c0.166,-1.485 2.429,-21.74 13.979,-12.396c10.749,8.696 -5.669,39.565 -13.979,12.396Z" style="fill:#e5df36;"/><path d="M3255.985,1819.481c-0.729,-6.097 -2.662,-6.595 0.66,-10.109c13.255,-14.018 19.933,26.928 9.969,26.924c-3.208,-0.001 -6.946,-9.272 -10.63,-16.815Z" style="fill:#e5df36;"/><path d="M2066.039,1374.653c0.003,-2.119 0.03,-24.985 2.385,-26.385c10.575,-6.289 1.941,17.37 11.602,30.35c0.442,0.594 1.692,11.293 -9.114,1.575l-4.873,-5.54Z" style="fill:#d6d132;"/><path d="M3420.02,2240.032c3.361,-12 5.033,-10.919 14.202,-19.618c0.549,-0.521 15.08,-14.306 9.364,-1.314c-7.677,17.451 -18.202,26.478 -20.318,28.292c-1.083,-2.453 -2.166,-4.907 -3.249,-7.36Z" style="fill:#dbd533;"/><path d="M3413.03,1495.726c-0.011,-0.014 -5.361,-5.184 -6.754,-10.202c-5.884,-21.197 22.385,5.253 21.986,14.308c-0.522,11.852 -14.377,-3.179 -15.232,-4.107Z" style="fill:#e5df36;"/><path d="M2074.594,1433.423c0.99,-19.828 -2.396,-21.349 4.048,-26.605c5.891,-4.805 18.253,-1.578 8.05,15.265c-0.915,1.51 -0.885,1.369 -8.663,12.122l-3.435,-0.781Z" style="fill:#e5df36;"/><path d="M1635.944,1964.007c-13.927,2.602 -20.452,4.602 -19.961,-1.656c0.045,-0.573 9.224,-3.035 10.125,-7.312c1.689,-8.018 5.919,-1.116 13.491,-4.014c0.649,-0.248 19.849,-4.783 3.941,7.734c-3.66,2.88 -3.621,2.502 -7.596,5.249Z" style="fill:#d2cc31;"/><path d="M3392.241,1991.377c-0.735,-0.772 -2.289,1.808 -3.024,1.036c-7.253,-7.619 3.204,-74.28 6.388,-27.089c0.13,1.929 -0.075,1.788 -1.011,24.144l-2.354,1.908Z" style="fill:#d9d433;"/><path d="M2000.965,2128.562c-0.296,1.097 -0.957,2.074 -1.253,3.171c-0.379,1.404 -0.189,21.833 -8.179,16.911c-6.571,-4.049 0.221,-39.705 12.28,-29.178c3.265,2.85 -2.754,8.989 -2.848,9.096Z" style="fill:#dfd934;"/><path d="M2023.021,1433.6l6.298,3.703c-3.532,4.886 -3.094,5.846 -2.863,6.354c0.388,0.852 6.335,4.343 2.853,10.9c-6.802,12.809 -5.922,13.298 -6.976,13.967c-12.911,8.199 -0.334,-18.297 -1.554,-20.084c-4.921,-7.204 -2.116,-7.705 2.242,-14.84Z" style="fill:#d6d032;"/><path d="M1069.527,597.502c-32.292,0.092 18.711,-27.517 16.856,-12.295c-0.867,7.112 -15.269,11.78 -16.856,12.295Z" style="fill:#e3dd35;"/><path d="M3058.389,1449.812c-1.497,1.491 -2.994,2.981 -4.49,4.472c-10.503,-20.303 -28.515,-36.014 -19.973,-36.996c4.914,-0.565 15.555,15.586 16.607,17.183c4.871,7.392 5.292,7.043 7.856,15.342Z" style="fill:#b1ac29;"/><path d="M1598.708,2021.031c1.262,-0.657 1.568,-2.538 2.83,-3.196c2.79,-1.454 12.92,6.015 11.047,13.79c-1.547,6.421 -1.962,6.534 1.51,11.892c-0.553,0.12 -6.907,1.506 -6.907,1.506c-0.896,0.945 1.044,2.96 0.148,3.905c-0.23,-0.498 -2.87,-6.222 -2.87,-6.222c-7.539,-11.503 -4.512,-12.318 -5.758,-21.674Z" style="fill:#d9d433;"/><path d="M3138.405,1388.303c-3.069,3.59 -3.01,3.46 -7.559,5.006c-14.895,-3.302 -14.584,-4.335 -14.6,-4.389c-0.156,-0.538 -1.157,-3.99 1.695,-6.799c11.003,-10.84 17.171,-9.086 20.464,6.182Z" style="fill:#e5df36;"/><path d="M3449.879,2121.048c0.642,-0.662 8.741,-9.024 11.229,-2.602c1.576,4.068 1.099,10.645 0.073,13.756c-2.868,8.7 -22.918,7.682 -11.302,-11.153Z" style="fill:#e5df36;"/><path d="M2720.127,890.783c-0.715,0.921 -16.349,21.055 -14.241,-3.109c1.04,-11.926 19.464,-15.531 14.241,3.109Z" style="fill:#e5df36;"/><path d="M3469.732,2230.17c2.926,-5.779 1.811,-6.759 5.229,-8.026c12.425,-4.605 6.59,16.126 0.318,21.435c-0.886,0.75 -14.131,5.891 -5.547,-13.409Z" style="fill:#e4de35;"/><path d="M3356.946,1433.694c-1.17,2.262 -2.341,4.523 -3.511,6.785c-9.346,-11.33 -9.239,-11.117 -19.437,-21.963c-5.527,-5.878 -1.491,-12.828 3.846,-6.811c9.826,11.077 12.594,8.715 19.102,21.99Z" style="fill:#918d22;"/><path d="M1428.637,1068.459c-3.777,-16.721 -7.084,-15.611 -6.778,-17.046c2.387,-11.219 21.948,13.866 14.501,25.601c-5.16,8.13 -7.582,-7.643 -7.722,-8.554Z" style="fill:#d2cc31;"/><path d="M1483.079,1023.076c5.106,2.704 5.083,2.466 6.813,3.91c1.703,2.034 1.465,1.856 3.296,3.937c6.727,7.645 4.252,20.364 0.307,22.159c-5.284,2.405 -5.728,-13.596 -6.716,-15.831c-3.04,-6.879 -4.331,-6.489 -3.701,-14.176Z" style="fill:#e5df36;"/><path d="M3169.067,1490.712c8.624,2.786 9.081,3.323 10.852,12.327c-3.94,6.423 -3.246,6.681 -3.652,7.182c-10.683,-2.843 -11.618,-3.354 -13.73,-14.123c0.84,-0.796 -0.973,-2.674 -0.133,-3.47c0.403,-0.382 0.494,-0.142 6.663,-1.916Z" style="fill:#e5df36;"/><path d="M1806.473,1932.196l-2.776,2.25c-1.022,-1.675 -3.527,-2.06 -4.549,-3.734c-10.577,-17.338 -0.94,-44.815 3.116,-27.638c3.105,13.152 -2.859,14.197 4.208,29.122Z" style="fill:#bfba2d;"/><path d="M2040.786,1579.528c0.641,-8.256 -1.999,-13.028 6.034,-11.11c1.891,0.452 3.033,10.192 3.14,11.109c0.857,7.317 9.434,17.247 3.65,17.799c-9.439,0.901 -12.512,-16.071 -12.824,-17.798Z" style="fill:#d3ce31;"/><path d="M2925.91,1301.075c-1.349,2.433 -2.698,4.865 -4.047,7.298c-1.422,-1.82 -1.64,-4.396 -3.062,-6.215c-0.626,-0.801 -16.695,-3.338 -12.095,-13.779c1.296,-2.941 11.367,-7.535 14.795,2.849c1.718,5.205 1.454,4.983 4.409,9.847Z" style="fill:#ddd834;"/><path d="M2741.939,1241.718c15.155,11.69 12.12,13.986 13.857,17.986c-0.841,1.078 1.278,3.235 -6.399,5.56c-8.315,-8.014 -7.385,-8.576 -11.361,-19.445l3.903,-4.101Z" style="fill:#e5df36;"/><path d="M3195.563,1888.91c0.052,-0.878 0.654,-10.975 0.654,-10.975c5.685,-15.366 12.632,19.298 7.325,24.353c-6.6,6.286 -7.892,-12.135 -7.979,-13.378Z" style="fill:#d3cd31;"/><path d="M3356.946,1433.694c1.674,1.389 24.518,20.349 17.514,20.799c-16.448,1.058 -20.438,-12.08 -21.026,-14.014c1.17,-2.262 2.341,-4.523 3.511,-6.785Z" style="fill:#ddd734;"/><path d="M1594.705,2016.78c-12.911,-1.579 -28.469,-2.79 -13.73,-12.737c9.351,-6.311 17.997,7.771 16.887,10.008c-0.619,1.246 -2.538,1.483 -3.156,2.729Z" style="fill:#e5df36;"/><path d="M1643.155,1234.423c2.363,1.477 4.727,2.953 7.09,4.43c-0.027,1.302 -0.734,35.159 -9.16,13.453c-4.045,-10.42 -8.632,-14.094 2.07,-17.883Z" style="fill:#e5df36;"/><path d="M1853.543,2071.099c13.913,23.569 14.469,23.597 13.954,25.893c-0.385,1.716 -12.666,11.732 -14.459,-16.566c-0.356,-5.624 -2.482,-4.327 -4.416,-7.698c1.64,-0.543 3.281,-1.086 4.921,-1.629Z" style="fill:#c5c02e;"/><path d="M3313.049,1714.819c2.343,5.2 13.223,22.583 2.03,21.932c-2.453,-0.142 -22.393,-45.104 -2.03,-21.932Z" style="fill:#ada928;"/><path d="M1483.079,1023.076c2.641,-4.939 4.929,-5.348 0.826,-10.804c-0.607,-0.807 -6.031,-8.019 -2.801,-12.3c5.548,-7.354 4.556,1.571 9.457,9.39c3.1,4.945 7.25,5.906 -0.669,17.625c-1.73,-1.444 -1.707,-1.207 -6.813,-3.91Z" style="fill:#aba728;"/><path d="M3276.578,1542.383l3.977,-1.165c1.611,0.872 15.723,8.512 14.627,17.627c-0.237,1.973 -8.889,10.967 -18.603,-16.462Z" style="fill:#e1db35;"/><path d="M1186.696,791.516c9.554,16.852 -0.818,15.607 -1.954,15.156c-10.544,-4.191 -17.605,-32.094 1.954,-15.156Z" style="fill:#e5df36;"/><path d="M3068.389,2394.629c22.958,6.425 6.059,14.824 4.182,14.009c-14.38,-6.237 -14.54,-7.299 -14.743,-8.651c-0.948,-6.317 10.057,-5.317 10.561,-5.358Z" style="fill:#e1dc35;"/><path d="M1523.033,1958.097c-0.089,-1.304 -1.321,-19.433 4.8,-15.615c0.766,0.478 12.842,18.202 6.447,21.247c-6.615,3.149 -6.149,-0.23 -11.246,-5.631Z" style="fill:#e5df36;"/><path d="M1559.462,2474.645c28.22,-4.916 28.149,2.91 73.29,2.989c-67.631,3.042 -67.66,-0.101 -73.29,-2.989Z" style="fill:#fffffb;fill-opacity:0.03;"/><path d="M1653.751,1958.326c13.598,32.312 -0.775,32.461 -2.305,30.547c-6.81,-8.518 1.368,-28.283 2.305,-30.547Z" style="fill:#c8c32f;"/><path d="M1664.934,1356.273c-0.503,-1.388 -2.315,-2.03 -2.818,-3.418c-0.413,-1.141 5.001,-15.649 14.497,4.474c0.389,0.823 7.126,7.283 4.793,10.09c-3.405,4.096 -3.817,0.14 -16.471,-11.146Z" style="fill:#b9b42b;"/><path d="M3175.542,1392.48c-0.243,-0.321 -3.041,-4.014 -3.041,-4.014c-3.414,-7.951 3.808,-15.231 12.935,-2.746c2,2.736 5.534,22.078 -9.894,6.76Z" style="fill:#ded834;"/><path d="M3368.359,2226.964c2.313,-0.754 1.072,-2.139 3.244,-2.847c0.276,-0.09 1.279,-0.417 3.573,0.625c11.171,5.072 -15.415,20.325 -18.718,19.901c-8.498,-1.091 7.142,-10.663 11.901,-17.678Z" style="fill:#b9b42b;"/><path d="M3273.455,2132.179c-0.334,0.893 -11.969,32.052 -11.361,3.604c0.023,-1.098 0.226,-10.56 5.144,-12.726c7.886,-3.473 9.336,0.974 6.217,9.122Z" style="fill:#dcd633;"/><path d="M1614.094,2043.516c16.948,16.905 6.391,19.735 4.784,19.595c-6.037,-0.529 -10.995,-12.827 -11.542,-14.184c0.896,-0.945 -1.044,-2.96 -0.148,-3.905c0,0 6.354,-1.385 6.907,-1.506Z" style="fill:#ddd734;"/><path d="M1054.985,727.79l-2.723,2.34c-1.681,-0.657 -21.285,-8.313 -19.314,-11.654c2.079,-3.526 11.471,-2.198 12.472,-2.056c10.041,1.42 9.018,9.274 9.565,11.371Z" style="fill:#d6d032;"/><path d="M2063.049,1437.47c-0.831,-2.384 -13.778,-39.52 0.67,-31.553c2.584,1.425 1.379,2.198 2.008,23.649c0.129,4.399 -1.315,3.882 -2.678,7.903Z" style="fill:#d0cb31;"/><path d="M2849.164,696.228c6.666,-6.237 6.53,-6.319 7.199,-6.736c17.546,-10.925 -5.824,21.482 -13.841,21.043c-8.061,-0.441 5.724,-13.442 6.642,-14.307Z" style="fill:#9c9824;"/><path d="M2755.796,1259.704c0.898,1.632 0.721,1.514 10.358,20.859c3.107,6.236 5.122,6.828 2.331,8.721c-3.861,2.619 -13.363,-10.985 -13.503,-15.697c-0.159,-5.375 -1.164,-4.831 -5.585,-8.322c7.677,-2.325 5.558,-4.482 6.399,-5.56Z" style="fill:#9b9624;"/><path d="M3312.506,2341.673c0.942,-0.511 17.99,-9.754 13.138,2.577c-3.271,8.312 -30.977,16.002 -13.138,-2.577Z" style="fill:#e1db35;"/><path d="M3343.631,1920.734c1.36,-0.756 1.994,-2.492 3.354,-3.248c8.619,-4.79 10.28,22.586 -0.906,17.759c-8.694,-3.752 -7.282,-6.424 -2.448,-14.511Z" style="fill:#e0db35;"/><path d="M3217.382,1559.044c7.906,17.871 -5.531,10.502 -6.241,9.892c-0.876,-0.752 -7.656,-6.57 -5.752,-13.239c2.431,-8.515 5.56,-2.871 11.994,3.346Z" style="fill:#e3dd35;"/><path d="M1184.078,757.635c-9.348,-1.946 -12.881,-3.001 -8.476,-11.363c1.555,-2.953 8.989,-4.762 12.505,-1.28c5.936,5.877 2.177,6.995 -4.029,12.643Z" style="fill:#e5df36;"/><path d="M1478.4,1584.198c4.274,16.531 -4.274,12.801 -5.136,12.188c-2.022,-1.438 -2.894,-9.488 -4.99,-12.025c-3.628,-4.393 -6.895,-5.043 -2.633,-8.716c2.304,-1.986 11.893,7.681 12.759,8.553Z" style="fill:#8a8720;"/><path d="M3180.838,1432.137c-7.882,-11.724 -10.544,-12.512 -7.257,-14.598c2.195,-1.392 2.085,-0.143 9.712,5.388c2.192,1.589 8.056,0.84 9.404,1.64c0.968,0.575 6.353,8.976 -11.859,7.57Z" style="fill:#75711b;"/><path d="M2881.231,672.675c6.878,-2.023 8.201,-5.453 12.348,0.443c2.886,4.103 -2.136,5.463 -2.613,5.592c-13.965,3.78 -12.521,6.744 -13.742,6.896c-12.867,1.605 3.186,-12.224 4.007,-12.931Z" style="fill:#9c9824;"/><path d="M1559.849,1283.996c-0.776,-1.964 -3.168,-2.568 -3.105,-13.819c0.161,-28.407 14.541,8.063 6.38,13.597c-0.906,0.614 -2.37,-0.392 -3.275,0.222Z" style="fill:#c6c12e;"/><path d="M2690.827,1120.752c2.558,-8.333 6.131,-9.646 11.35,-2.579c4.883,6.611 -10.423,21.987 -11.35,2.579Z" style="fill:#e1db35;"/><path d="M3237.896,1370.975c1.352,1.195 20.679,18.281 12.028,19.079c-2.812,0.259 -16.746,-13.504 -18.076,-14.818c0.456,-0.377 0.413,-0.074 6.048,-4.26Z" style="fill:#8b8720;"/><path d="M2741.939,1241.718l-3.903,4.101c-18.94,-11.98 -12.799,-20.464 -10.316,-19.737c5.295,1.55 13.314,14.208 14.219,15.636Z" style="fill:#86821f;"/><path d="M1998.953,2055.99c0.671,-1.227 7.817,-14.286 12.198,-12.522c1.401,0.564 1.861,1.366 -4.532,18.327c-0.271,0.72 -6.916,9.025 -7.666,-5.805Z" style="fill:#bbb62c;"/><path d="M1353.349,1033.805c-2.684,15.769 -8.786,7.782 -9.069,6.915c-2.812,-8.608 1.295,-15.514 1.582,-15.735c4.598,-3.525 7.276,7.919 7.487,8.82Z" style="fill:#dcd734;"/><path d="M1205.16,715.472c19.917,5.009 0.829,9.26 0.087,9.27c-0.957,0.013 -10.896,0.149 -11.421,-3.572c-1.157,-8.204 3.254,-5.129 11.333,-5.699Z" style="fill:#ded834;"/><path d="M1531.628,1155.377c-0.285,0.727 -6.32,16.145 -9.213,3.223c-3.156,-14.097 6.948,-19.291 8.843,-9.876c0.105,0.523 0.027,0.493 0.37,6.654Z" style="fill:#e0da34;"/><path d="M2040.296,1287.596c4.053,-12.613 7.985,-6.956 8.422,-6.24c2.794,4.577 0.98,11.917 0.732,12.922c-0.217,0.88 -8.015,10.86 -9.154,-6.682Z" style="fill:#e0db35;"/><path d="M1302.093,825.093c-7.864,21.143 -13.533,-10.168 -5.926,-12.492c5.649,-1.726 5.904,11.386 5.926,12.492Z" style="fill:#e1db35;"/><path d="M3296.481,2093.974c-4.809,20.336 -9.323,0.808 -9.374,0.06c-0.064,-0.949 -0.733,-10.84 3.694,-11.298c4.521,-0.468 5.58,10.236 5.679,11.238Z" style="fill:#dbd533;"/><path d="M3117.16,654.141c-0.505,-0.059 -6.311,-0.739 -6.311,-0.739c-0.963,-0.34 -8.169,-9.163 9.709,-8.291c0.771,0.038 15.04,7.498 -3.398,9.03Z" style="fill:#e5df36;"/><path d="M2058.302,1210.911c-0.071,1.009 -1.234,17.561 -7.667,10.05c-5.189,-6.06 2.481,-32.118 7.667,-10.05Z" style="fill:#d6d032;"/><path d="M3321.284,783.394c-7.436,24.139 -13.568,-9.118 -6.029,-10.461c5.352,-0.953 5.972,9.496 6.029,10.461Z" style="fill:#e1db35;"/><path d="M1333.623,523.015c-6.526,-6.865 -5.48,-12.98 3.661,-10.512c8.176,2.208 10.002,22.051 -3.661,10.512Z" style="fill:#e1db35;"/><path d="M1054.985,727.79c4.221,7.504 5.136,6.584 9.512,14.289c-1.605,5.736 -1.307,5.907 -1.734,6.195c-1.703,1.15 -1.957,-0.59 -3.559,0.492c-0.691,-1.039 -7.135,-10.728 -7.696,-13.559c-0.332,-1.678 1.087,-3.399 0.754,-5.078l2.723,-2.34Z" style="fill:#a7a227;"/><path d="M1584.063,1979.386c10.981,10.767 -9.734,14.031 -10.423,3.385c-0.502,-7.762 3.34,-6.378 10.423,-3.385Z" style="fill:#e3dd35;"/><path d="M1702.145,1468.529c5.155,7.533 5.588,12.556 -3.424,11.23c-3.624,-0.533 -15.642,-17.682 3.424,-11.23Z" style="fill:#e1db35;"/><path d="M3405.668,2253.75c2.333,1.218 4.665,2.437 6.998,3.655c-0.909,1.024 -13.84,15.588 -15.83,6.49c-1.692,-7.732 1.539,-6.855 8.833,-10.145Z" style="fill:#ded834;"/><path d="M2128.466,1181.195c0.452,0.777 8.776,15.098 -5.805,9.625c-3.707,-1.391 -11.572,-21.033 5.805,-9.625Z" style="fill:#e0da34;"/><path d="M1468.199,1983.588c-7.355,-13.702 10.368,-10.544 10.763,-0.835c0.354,8.69 -4.78,7.043 -10.763,0.835Z" style="fill:#e2dc35;"/><path d="M3138.405,1388.303c3.57,2.379 3.64,1.883 5.65,4.381c3.913,4.863 0.729,20.943 -6.951,6.46c-0.118,-0.223 0.002,-0.067 -6.259,-5.836c4.549,-1.545 4.49,-1.416 7.559,-5.006Z" style="fill:#969223;"/><path d="M3624.777,1881.873c-2.003,-5.323 -5.06,-7.311 0.442,-8.742c5.498,-1.431 8.402,2.148 8.869,2.725c0.559,0.689 8.442,17.561 -9.312,6.018Z" style="fill:#e1db35;"/><path d="M1709.166,1433.513l3.955,3.095c-1.065,2.475 -2.131,4.95 -3.196,7.426c-2.947,15.925 -8.75,4.413 -8.84,3.653c-1.016,-8.662 2.117,-7.63 8.081,-14.173Z" style="fill:#c0bb2d;"/><path d="M1658.251,1221.596c1.523,1.631 3.045,3.262 4.568,4.894c-5.306,5.863 -11.522,11.423 -12.574,12.364c-2.363,-1.477 -4.727,-2.953 -7.09,-4.43c7.802,-6.277 7.527,-6.08 15.096,-12.827Z" style="fill:#898520;"/><path d="M3193.214,1534.692c-8.843,-14.057 7.058,-8.047 7.58,-7.572c3.5,3.194 4.92,19.62 -7.58,7.572Z" style="fill:#e1db35;"/><path d="M3420.02,2240.032c1.083,2.453 2.166,4.907 3.249,7.36c-4.509,5.908 -4.398,5.757 -10.602,10.013c-2.333,-1.218 -4.665,-2.437 -6.998,-3.655c8.025,-6.19 7.888,-6.046 14.351,-13.718Z" style="fill:#77741c;"/><path d="M2749.186,745.588c5.351,-5.827 6.1,-6.268 6.753,-6.652c0.601,-0.354 10.722,-1.692 1.505,8.588c-9.263,10.333 -8.214,-0.672 -8.258,-1.936Z" style="fill:#817e1e;"/><path d="M1556.205,1562.028c-19.837,6.339 2.556,-17.464 6.772,-10.159c0.488,0.846 1.15,1.993 -6.772,10.159Z" style="fill:#86821f;"/><path d="M2947.158,1377.577c0.551,0.685 18.759,23.331 -0.518,10.979c-0.335,-0.214 0.011,-0.401 -3.225,-3.78c-0.511,-0.534 -8.452,-8.824 -0.076,-9.236c1.441,-0.071 2.379,2.107 3.82,2.036Z" style="fill:#84811f;"/><path d="M1106.668,753.265c4.096,7.025 11.56,8.404 4.162,11.558c-3.711,1.582 -23.851,-17.109 -4.162,-11.558Z" style="fill:#918e22;"/><path d="M3257.11,2262.003c4.633,-4.349 3.736,-6.906 10.187,-5.796c6.043,1.04 -4.084,10.406 -4.792,11.06c-8.835,8.171 -5.544,-4.681 -5.394,-5.265Z" style="fill:#74711b;"/><path d="M3016.012,1399.069c0.138,-1.517 -1.429,-2.866 -1.292,-4.383c0.63,-6.946 12.488,3.971 12.973,7.41c1.827,12.948 -11.058,-2.289 -11.681,-3.027Z" style="fill:#878320;"/><path d="M1286.856,1327.273c8.111,0.128 6.78,13.119 4.402,14.81c-1.007,0.716 -10.528,3.502 -4.402,-14.81Z" style="fill:#d2cc31;"/><path d="M3328.979,1510.256c0.714,0.701 11.216,11.015 4.438,11.688c-3.326,0.33 -10.96,-6.188 -11.325,-8.424c-0.821,-5.031 1.964,-3.305 6.887,-3.264Z" style="fill:#86821f;"/><path d="M1445.697,1107.439c-3.34,-10.517 -4.563,-10.462 -3.065,-14.131c1.378,-3.376 5.168,-2.86 5.668,-2.792c1.357,0.185 6.541,1.197 -2.604,16.923Z" style="fill:#cec830;"/><path d="M1461.085,1149.687c5.217,18.005 -5.257,13.827 -5.704,12.8c-1.32,-3.03 -0.657,-6.727 -0.553,-7.304c1.427,-7.958 5.929,-5.351 6.258,-5.496Z" style="fill:#d5cf32;"/><path d="M3304.156,1385.619c10.769,11.41 2.15,12.341 1.229,12.041c-0.514,-0.167 -6.241,-6.092 -6.768,-6.637c-4.449,-4.603 -0.629,-5.962 5.539,-5.404Z" style="fill:#696718;"/><path d="M3387.813,1593.771c0.573,0.652 11.825,13.458 0.248,10.844c-0.189,-0.043 -20.332,-19.154 -0.248,-10.844Z" style="fill:#78751c;"/><path d="M1778.415,2481.402c2.24,-0.18 19.128,-1.54 28.095,0.095c1.553,0.283 2.015,2.833 3.568,3.116c-15.793,0.026 -24.265,1.972 -31.663,-3.211Z" style="fill:#c1bf8d;fill-opacity:0.22;"/><path d="M3332.525,794.099c-1.463,-4.871 -4.174,-6.64 0.074,-7.396c0.617,-0.11 3.827,-0.681 6.828,3.841c12.936,19.501 -6.469,4.001 -6.901,3.555Z" style="fill:#77741b;"/><path d="M1587.253,1712.138c0.75,1.301 1.942,2.311 2.691,3.612c0.699,1.213 1.617,5.992 1.451,6.342c-0.799,1.679 -3.155,2.256 -3.954,3.934c-4.935,-4.205 -4.291,-4.504 -6.195,-10.877c1.456,-1.278 1.418,-0.991 6.007,-3.011Z" style="fill:#dad433;"/><path d="M1624.493,1819.543c-5.571,19.673 -8.973,-0.913 -7.901,-3.239c2.778,-6.026 5.509,-3.093 7.901,3.239Z" style="fill:#cbc62f;"/><path d="M2848.054,1319.906c3.553,6.939 9.305,11.224 1.528,10.68c-1.3,-0.091 -21.703,-17.567 -1.528,-10.68Z" style="fill:#83801f;"/><path d="M1166.635,1186.705c-2.948,3.966 -2.798,4.101 -3.184,4.284c-0.97,0.459 -1.922,-1.873 -2.892,-1.414c-7.4,-15.214 3.454,-11.459 4.007,-10.728c0.392,0.518 0.153,0.582 2.068,7.859Z" style="fill:#d9d333;"/><path d="M3023.236,1518.594c0.986,0.948 2.812,0.604 3.798,1.551c7.154,6.873 -7.215,13.203 -10.001,3.556c-1.052,-3.644 1.242,-2.584 6.202,-5.107Z" style="fill:#dcd634;"/><path d="M1548.027,1072.123c-7.195,21.029 -8.324,-2.339 -7.923,-3.222c2.801,-6.164 5.52,-3.116 7.923,3.222Z" style="fill:#cbc630;"/><path d="M1530.586,1030.256c2.423,-5.343 2.24,-8.534 7.172,-5.363c4.207,2.705 -0.227,21.678 -7.172,5.363Z" style="fill:#d9d433;"/><path d="M1361.611,1420.732c13.231,5.184 -5.44,12.773 -6.546,5.742c-0.832,-5.288 1.325,-4.363 6.546,-5.742Z" style="fill:#e2dc35;"/><path d="M1132.13,774.75c1.007,0.932 2.83,0.558 3.837,1.49c8.533,7.901 -15.6,10.693 -9.78,0.918c0,-0 5.467,-2.216 5.943,-2.409Z" style="fill:#dbd533;"/><path d="M2916.011,1341.94c6.106,7.604 0.613,14.057 -6.767,7.414c-0.597,-0.537 -5.731,-5.159 6.767,-7.414Z" style="fill:#dbd533;"/><path d="M2074.594,1433.423l3.435,0.781c-2.758,8.251 -2.371,8.418 -3.812,9.672c-3.94,3.428 -4.133,0.559 -7.544,-3.421c4.006,-3.69 3.871,-3.578 7.921,-7.032Z" style="fill:#8d8921;"/><path d="M1853.543,2071.099c-1.64,0.543 -3.281,1.086 -4.921,1.629c-0.24,-0.523 -3.003,-6.536 -3.003,-6.536c-0.102,-3.431 10.352,-9.689 7.924,4.907Z" style="fill:#e0da34;"/><path d="M2939.721,629.144c-17.444,-5.622 0.527,-9.38 2.88,-7.941c0.426,0.261 3.982,2.435 1.113,6.145c-0.893,1.155 -3.1,0.642 -3.993,1.796Z" style="fill:#e0da34;"/><path d="M1215.712,733.011c5.88,2.03 6.068,1.735 6.35,2.193c5.688,9.217 -18.474,7.045 -10.166,-0.695c1,-0.931 2.816,-0.567 3.816,-1.498Z" style="fill:#ddd734;"/><path d="M2041.443,1642.111c-8.233,17.046 -9.328,-2.31 -8.611,-3.343c3.849,-5.541 5.699,-2.551 8.611,3.343Z" style="fill:#d8d333;"/><path d="M1845.129,2041.907c-12.481,17.897 -7.72,-4.921 -6.314,-5.918c4.912,-3.484 4.98,0.043 6.314,5.918Z" style="fill:#d1cc31;"/><path d="M1539.52,1183.153c-4.041,15.353 -10.993,-3.491 -6.139,-5.341c4.766,-1.816 4.331,0.598 6.139,5.341Z" style="fill:#dad433;"/><path d="M3280.388,2237.619c0.883,1.262 3.264,0.775 4.148,2.037c5.304,7.575 -15.787,8.923 -11.057,0.286c0.28,-0.511 0.501,-0.169 6.909,-2.323Z" style="fill:#dfd934;"/><path d="M2066.039,1374.653l4.873,5.54c-6.268,4.891 -6.108,5.09 -6.767,5.285c-14.217,4.217 1.251,-10.225 1.894,-10.825Z" style="fill:#888420;"/><path d="M1564.649,953.798c2.267,-4.621 1.651,-7.387 6.472,-5.194c4.336,1.972 0.683,19.504 -6.472,5.194Z" style="fill:#dfda34;"/><path d="M1776.853,1770.572c2.136,-5.892 1.857,-6.061 2.307,-6.363c8.88,-5.955 7.465,16.027 -0.403,10.065c-1.106,-0.838 -0.797,-2.864 -1.903,-3.702Z" style="fill:#ddd734;"/><path d="M1734.787,1895.565c-4.633,16.144 -10.127,-0.277 -7.71,-2.826c3.512,-3.703 3.888,-0.667 7.71,2.826Z" style="fill:#d8d333;"/><path d="M1386.36,689.521c-3.012,16.779 -8.334,1.6 -8.046,-0.125c1.025,-6.144 4.045,-4.681 8.046,0.125Z" style="fill:#d4ce32;"/><path d="M1870.901,2135.755c0.278,-0.671 3.74,-9.039 7.021,-5.759c2.235,2.233 1.023,22.776 -7.021,5.759Z" style="fill:#cec830;"/><path d="M1598.169,1897.834c-0.853,-1.127 -2.992,-0.661 -3.845,-1.788c-2.476,-3.272 0.767,-5.767 1.159,-6.069c2.469,-1.9 17.93,1.678 2.686,7.856Z" style="fill:#ddd734;"/><path d="M1403.347,1377.916c-2.162,14.626 -8.455,2.674 -7.921,-0.356c1.091,-6.181 4.166,-4.612 7.921,0.356Z" style="fill:#d6d132;"/><path d="M2049.509,1242.372c1.766,-5.362 1.608,-8.34 6.228,-5.471c4.537,2.816 -0.847,20.573 -6.228,5.471Z" style="fill:#dad533;"/><path d="M3561.097,1923.885c1.754,-5.584 1.476,-5.746 1.894,-6.031c8.569,-5.854 6.815,16.287 -0.611,9.048c-0.782,-0.763 -0.501,-2.254 -1.283,-3.017Z" style="fill:#d6d132;"/><path d="M1191.565,835.562c0.899,-6.443 1.058,-10.204 6.322,-6.414c2.049,1.475 3.716,20.135 -6.322,6.414Z" style="fill:#d8d333;"/><path d="M1412.698,776.963c2.184,-11.504 6.332,-6.95 6.81,-6.376c1.463,1.758 1.353,7.463 0.329,8.778c-2.998,3.849 -3.402,0.542 -7.138,-2.402Z" style="fill:#d6d032;"/><path d="M1182.341,1235.63c-0.895,0.787 -0.45,2.526 -1.345,3.314c-8.022,7.057 -9.973,-14.532 -0.862,-9.385c0.45,0.254 0.164,0.45 2.207,6.071Z" style="fill:#dbd633;"/><path d="M3104.783,1464.871c1.137,-0.841 0.492,-3.076 1.628,-3.916c3.55,-2.626 5.681,0.795 5.937,1.207c1.69,2.713 -1.835,17.278 -7.566,2.71Z" style="fill:#d4ce31;"/><path d="M3528.687,2139.3c-0.83,0.907 -0.391,2.572 -1.22,3.479c-7.731,8.45 -9.615,-14.92 -0.948,-9.526c0.436,0.272 0.161,0.448 2.169,6.047Z" style="fill:#d8d232;"/><path d="M1147.854,1158.75c2.264,-5.258 2.004,-5.454 2.445,-5.679c9.127,-4.656 6.815,16.159 -0.853,9.486c-1.038,-0.903 -0.554,-2.904 -1.591,-3.807Z" style="fill:#dcd633;"/><path d="M3345.178,1816.236c1.926,-5.804 1.617,-5.999 2.077,-6.258c9.008,-5.076 7.256,15.905 -0.673,9.409c-0.89,-0.729 -0.515,-2.422 -1.404,-3.151Z" style="fill:#dbd633;"/><path d="M1106.055,828.551c2.081,-5.88 1.79,-6.065 2.247,-6.351c8.334,-5.224 7.077,16.105 -0.547,10.126c-1.086,-0.852 -0.614,-2.924 -1.7,-3.775Z" style="fill:#d1cc31;"/><path d="M3511.863,2163.461c-1.053,0.904 -0.566,2.933 -1.619,3.838c-7.817,6.711 -9.718,-13.765 -1.032,-9.537c0.452,0.22 0.196,0.422 2.651,5.699Z" style="fill:#dcd633;"/><path d="M1369.606,1461.016c-4.063,18.06 -8.287,0.917 -8.202,0.266c0.801,-6.123 3.62,-4.119 8.202,-0.266Z" style="fill:#d7d232;"/><path d="M1777.332,1725.608c-6.072,15.605 -9.042,-0.445 -7.641,-2.727c0.253,-0.412 2.346,-3.821 5.923,-1.171c1.141,0.845 0.577,3.053 1.718,3.898Z" style="fill:#d4ce32;"/><path d="M1870.386,2212.105c1.022,-4.18 -0.11,-4.912 2.649,-6.233c8.271,-3.96 6.536,15.155 -0.637,10.228c-1.229,-0.844 -0.783,-3.15 -2.012,-3.994Z" style="fill:#dfd934;"/><path d="M1836.783,2014.143c-7.998,19.961 -7.882,-2.048 -7.605,-2.55c2.88,-5.219 4.948,-2.775 7.605,2.55Z" style="fill:#d5cf32;"/><path d="M1573.179,1447.31c-9.077,13.45 -8.554,-5.076 -6.229,-6.58c5.403,-3.496 5.267,0.269 6.229,6.58Z" style="fill:#d2cd31;"/><path d="M1547.424,1099.641c2.303,-5.427 2.029,-5.639 2.487,-5.861c8.786,-4.249 6.719,15.509 -0.672,9.679c-1.107,-0.873 -0.708,-2.946 -1.815,-3.818Z" style="fill:#ded834;"/><path d="M1530.804,1005.811c-1.214,0.88 -0.719,3.182 -1.933,4.062c-7.198,5.217 -9.174,-13.451 -0.791,-9.996c2.663,1.098 1.631,1.823 2.724,5.934Z" style="fill:#ded834;"/><path d="M1735.122,2142.945c1.146,-0.839 0.797,-2.954 1.944,-3.793c0.981,-0.717 4.945,0.006 5.451,0.843c1.168,1.932 -1.737,20.573 -7.394,2.949Z" style="fill:#d2cc31;"/><path d="M3320.113,811.274c2.644,-5.155 2.389,-5.385 2.855,-5.567c8.341,-3.263 5.986,15.057 -1.256,9.675c-1.179,-0.876 -0.42,-3.231 -1.599,-4.107Z" style="fill:#dcd734;"/><path d="M2665.435,1042.909c0.814,0.858 2.51,0.383 3.324,1.241c7.359,7.757 -13.218,9.445 -8.974,0.898c0.215,-0.433 0.419,-0.158 5.65,-2.139Z" style="fill:#d4ce31;"/><path d="M3120.702,2369.901c4.1,1.116 4.794,0.107 6.024,2.703c3.793,8.003 -14.644,6.144 -9.946,-0.746c0.823,-1.207 3.099,-0.75 3.922,-1.957Z" style="fill:#d8d232;"/><path d="M1564.935,1590.011c1.079,-0.861 0.462,-2.983 1.542,-3.844c3.852,-3.073 5.908,0.502 6.157,0.934c0.669,1.162 -0.113,20.546 -7.699,2.911Z" style="fill:#c8c32f;"/><path d="M1441.685,1109.291c2.099,1.568 4.198,3.136 6.297,4.703c-2.105,1.028 -4.209,2.056 -6.314,3.084c-8.393,-7.582 -3.132,-8.923 -2.396,-9.07c0.893,-0.178 1.52,1.461 2.413,1.283Z" style="fill:#888520;"/><path d="M1089.472,710.454c0.841,0.8 -0.427,2.658 0.415,3.457c0.881,0.838 2.572,-0.22 3.628,0.384c0.419,0.24 4.454,2.55 2.257,5.604c-5.076,7.058 -5.006,-1.165 -12.203,-5.942c5.23,-2.868 5.044,-2.579 5.904,-3.504Z" style="fill:#6f6c1a;"/><path d="M3179.919,1503.04c6.441,8.067 5.91,8.984 5.463,9.759c-1.909,3.301 -2.702,0.784 -9.114,-2.577c0.406,-0.501 -0.288,-0.759 3.652,-7.182Z" style="fill:#75711b;"/><path d="M2887.761,461.903c-13.244,0.909 -12.469,2.863 -14.06,3.554c-3.548,1.541 -3.541,0.239 -10.531,-2.34c8.197,-0.405 16.394,-0.81 24.591,-1.214Z" style="fill:#a19f71;fill-opacity:0.2;"/><path d="M3096.058,438.737c8.896,-1.969 8.71,-1.439 17.625,-0.521c-1.487,0.365 -2.089,2.517 -3.576,2.881c-9.947,2.44 -12.47,-2.095 -14.049,-2.36Z" style="fill:#c8c7a3;fill-opacity:0.19;"/><path d="M2029.447,1378.521c6.055,-6.165 6.039,-8.59 8.793,-6.113c0.648,0.583 1.282,0.995 -2.304,8.984c-0.691,-0.692 -2.195,0.172 -2.886,-0.52c-1.308,-1.31 0.91,-1.938 -0.463,-2.834c-1.59,-1.037 -1.58,1.501 -3.14,0.483Z" style="fill:#827f1e;"/><path d="M1166.635,1186.705c4.67,5.79 10.501,6.722 4.011,10.711c-4.18,2.569 -3.835,-0.303 -7.028,-3.901c1.006,-2.27 2.011,-4.54 3.017,-6.811Z" style="fill:#5a5815;"/><path d="M3038.491,2365.577c10.497,-10.902 7.795,1.804 7.58,2.402c-2.265,6.297 -5.791,3.867 -7.58,-2.402Z" style="fill:#6c6919;"/><path d="M1454.131,1919.685c-8.591,8.557 -9.168,-3.738 -5.043,-5.041c4.475,-1.413 4.002,0.576 5.043,5.041Z" style="fill:#77741c;"/><path d="M1616.288,1603.819c2.393,-3.947 2.497,-5.978 6.07,-3.395c2.62,1.894 0.831,14.446 -6.07,3.395Z" style="fill:#7f7c1e;"/><path d="M1387.103,1749.488c1.298,-4.534 0.742,-6.821 5.137,-5.08c3.376,1.337 3.725,13.67 -5.137,5.08Z" style="fill:#827e1e;"/><path d="M2828.096,1300.199c-13.197,-2.548 -0.766,-8.728 1.402,-6.64c3.04,2.93 1.485,3.41 -1.402,6.64Z" style="fill:#6a6719;"/><path d="M1355.345,1446.033c-2.828,-3.153 -4.669,-3.667 -1.615,-6.409c3.091,-2.776 13.312,4.701 1.615,6.409Z" style="fill:#84811f;"/><path d="M1234.098,693.499c0.412,-0.369 5.818,-5.214 6.817,-1.115c0.131,0.537 -2.473,18.505 -6.817,1.115Z" style="fill:#85821f;"/><path d="M3462.038,2100.917c2.38,-3.866 2.476,-6.222 6.178,-3.387c1.338,1.024 2.401,15.632 -6.178,3.387Z" style="fill:#7e7b1d;"/><path d="M1556.819,2045.333c2.569,-3.621 2.741,-5.926 6.16,-3.12c0.774,0.636 2.767,16.562 -6.16,3.12Z" style="fill:#a09c25;"/><path d="M1447.982,1113.994c9.198,16.081 -5.554,3.753 -6.314,3.084c2.105,-1.028 4.209,-2.056 6.314,-3.084Z" style="fill:#484610;"/><path d="M1955.698,2274.795c-7.081,10.827 -7.547,0.569 -7.543,-0.035c0.065,-9.94 7.181,-0.448 7.543,0.035Z" style="fill:#a29e26;"/><path d="M1540.033,1211.441c0.41,-0.378 5.895,-5.439 6.871,-1.172c0.124,0.544 -2.213,18.441 -6.871,1.172Z" style="fill:#7e7b1e;"/><path d="M1742.971,1919.781c-8.692,7.874 -7.918,-3.928 -5.173,-5.154c4.488,-2.004 3.99,0.554 5.173,5.154Z" style="fill:#7b781c;"/><path d="M1300.958,565.295c-1.597,4.678 -0.552,7.816 -5.064,5.594c-0.541,-0.267 -8.716,-9.445 5.064,-5.594Z" style="fill:#83801f;"/><path d="M3545.246,2059.238c2.554,-3.618 2.59,-6.006 6.158,-3.146c0.469,0.376 3.347,16.557 -6.158,3.146Z" style="fill:#9e9a25;"/><path d="M2202.259,644.368c-3.799,4.561 -6.86,6.382 -7.571,0.478c-0.072,-0.603 0.529,-13.601 7.571,-0.478Z" style="fill:#989423;"/><path d="M1919.301,1634.636c2.739,3.312 2.468,3.102 2.739,3.312c2.627,2.039 3.056,0.935 5.644,2.944l-2.917,5.084c-0.657,-0.797 -2.287,-0.169 -2.944,-0.966c-0.646,-0.784 0.228,-2.192 -0.348,-3.029c-1.619,-2.356 -2.095,-0.428 -2.145,-0.598c-0.989,-3.341 1.016,-3.216 -0.029,-6.746Z" style="fill:#c0bfa6;fill-opacity:0.15;"/><path d="M2015.73,1527.406c2.722,-3.72 2.779,-5.992 6.238,-3.261c0.363,0.287 2.955,16.998 -6.238,3.261Z" style="fill:#9e9925;"/><path d="M1021.8,755.391c2.136,-4.196 1.314,-7.046 5.208,-5.067c2.601,1.322 3.613,13.112 -5.208,5.067Z" style="fill:#918d22;"/><path d="M995.107,659.079c-1.677,4.464 -0.679,7.338 -5.03,5.425c-0.542,-0.238 -8.34,-9.185 5.03,-5.425Z" style="fill:#76731b;"/><path d="M1879.853,2045.35c3.753,-4.762 7.384,-6.09 7.44,-0.018c0.005,0.595 -0.185,10.146 -7.44,0.018Z" style="fill:#b8b32b;"/><path d="M1458.983,1947.73c-10.419,-7.29 -0.555,-7.632 0.055,-7.62c6.157,0.122 4.676,3.727 -0.055,7.62Z" style="fill:#b2ae2a;"/><path d="M2126.564,1221.477c3.647,-4.667 7.17,-5.992 7.303,-0.026c0.013,0.584 -0.274,9.436 -7.303,0.026Z" style="fill:#b9b42b;"/><path d="M3420.602,1569.312c2.637,-3.001 2.294,-4.969 5.658,-3.052c3.74,2.132 -1.405,13.422 -5.658,3.052Z" style="fill:#7c791d;"/><path d="M1879.187,2020.961c-3.83,4.423 -6.81,6.103 -7.446,0.278c-1.763,-16.167 7.147,-0.794 7.446,-0.278Z" style="fill:#ada928;"/><path d="M1601.644,1906.49l3.401,-0.273c0.014,1.376 2.181,2.121 2.195,3.497c0.052,5.143 -5.423,4.236 -5.999,4.141c-4.893,-0.811 -1.199,-2.799 0.403,-7.365Z" style="fill:#7d791d;"/><path d="M1564.548,1294.813c5.869,-0.899 6.12,-1.44 6.316,-0.968c1.991,4.805 -5.236,10.287 -6.316,0.968Z" style="fill:#4c4a11;"/><path d="M1118.384,894.179c-3.074,-2.628 -5.176,-2.458 -2.835,-5.917c1.006,-1.486 15.212,-1.157 2.835,5.917Z" style="fill:#aaa628;"/><path d="M1611.959,1947.789c-9.824,-7.416 -0.541,-7.648 0.069,-7.629c6.303,0.2 4.706,3.797 -0.069,7.629Z" style="fill:#b8b32b;"/><path d="M3009.366,1325.338c-10.684,-7.161 -0.552,-7.575 0.054,-7.568c6.222,0.072 4.856,3.776 -0.054,7.568Z" style="fill:#a5a027;"/><path d="M1404.158,1596.639c2.159,-4.21 1.35,-7.041 5.216,-5.071c2.528,1.288 3.618,13.041 -5.216,5.071Z" style="fill:#8f8b21;"/><path d="M1233.925,804.521c2.694,-2.958 2.393,-4.952 5.725,-2.939c3.158,1.907 -1.074,13.773 -5.725,2.939Z" style="fill:#837f1e;"/><path d="M1403.926,1798.597c2.648,-2.898 2.486,-4.755 5.774,-2.657c1.919,1.224 0.386,14.436 -5.774,2.657Z" style="fill:#9b9724;"/><path d="M3495.147,2191.509c-5.083,11.002 -8.949,-1.209 -5.781,-3.1c1.524,-0.91 2.834,-0.207 3.049,-0.092c1.938,1.039 0.661,2.081 2.732,3.192Z" style="fill:#7d791d;"/><path d="M2666.919,1058.914c11.763,6.977 1.167,9.868 -0.394,8.432c-3.052,-2.808 -0.983,-3.165 0.394,-8.432Z" style="fill:#afab29;"/><path d="M2053.439,1260.02c10.203,7.213 0.496,7.555 -0.105,7.524c-6.156,-0.314 -4.583,-3.799 0.105,-7.524Z" style="fill:#b8b32b;"/><path d="M3112.798,2389.797c-5.255,15.852 -7.123,-0.332 -7.011,-0.886c0.937,-4.62 6.592,0.506 7.011,0.886Z" style="fill:#7b781d;"/><path d="M1730.318,1599.434c-1.134,-2.057 -2.159,-0.773 -3.22,-2.697c-0.12,-0.217 -0.871,-1.579 0.02,-3.104c1.852,-3.171 14.242,0.568 3.2,5.801Z" style="fill:#73701b;"/><path d="M1782.258,1871.939c4.468,3.808 6.117,6.889 0.237,7.459c-14.821,1.435 -0.747,-7.148 -0.237,-7.459Z" style="fill:#aca828;"/><path d="M1214.148,749.518c3.496,12.958 -4.793,6.576 -5.098,6.024c-0.305,-0.553 -2.661,-4.814 5.098,-6.024Z" style="fill:#b2ad2a;"/><path d="M1463.408,950.162c6.666,-14.917 7.725,0.062 7.672,0.676c-0.476,5.435 -2.888,1.94 -7.672,-0.676Z" style="fill:#898520;"/><path d="M1570.122,1566.081c7.242,7.357 -5.531,7.856 -5.252,3.106c0.029,-0.487 0.377,-0.223 5.252,-3.106Z" style="fill:#a7a327;"/><path d="M1632.496,1638.572c-3.906,4.256 -6.897,5.974 -7.367,0.17c-0.048,-0.588 0.424,-11.62 7.367,-0.17Z" style="fill:#b2ad29;"/><path d="M1458.929,1676.002c-12.284,-7.282 1.998,-8.34 3.447,-6.038c1.081,1.717 0.243,3.184 0.108,3.422c-1.237,2.167 -2.392,0.579 -3.555,2.616Z" style="fill:#76721b;"/><path d="M1726.304,1527.383c-3.689,4.808 -7.27,6.354 -7.507,0.087c-0.023,-0.6 0.2,-10.426 7.507,-0.087Z" style="fill:#aba628;"/><path d="M1463.752,1189.591c0.633,-5.287 0.513,-8.416 5.137,-5.387c14.583,9.555 -4.554,5.51 -5.137,5.387Z" style="fill:#8b8821;"/><path d="M1170.314,1217.04c-11.445,-5.456 1.416,-8.814 3.215,-5.798c0.91,1.525 0.145,2.903 0.024,3.122c-1.068,1.925 -2.099,0.62 -3.239,2.676Z" style="fill:#74711b;"/><path d="M1114.249,585.193c-9.032,9.392 -6.719,-3.332 -6.57,-3.527c3.177,-4.138 3.997,-0.887 6.57,3.527Z" style="fill:#888520;"/><path d="M1590.459,1502.958c-0.407,0.43 -6.305,6.665 -7.379,0.569c-0.103,-0.583 0.737,-13.919 7.379,-0.569Z" style="fill:#8c8821;"/><path d="M3342.813,1781.953c7.822,8.842 -3.719,7.692 -4.992,5.212c-2.031,-3.957 0.868,-3.116 4.992,-5.212Z" style="fill:#77741c;"/><path d="M3561.484,1861.017c-0.402,0.446 -6.581,7.312 -7.488,0.5c-0.079,-0.595 0.625,-13.482 7.488,-0.5Z" style="fill:#949023;"/><path d="M1615.191,1562.091c-7.915,7.896 -7.286,-5.267 -3.261,-5.2c0.491,0.008 0.234,0.373 3.261,5.2Z" style="fill:#b2ae2a;"/><path d="M1403.756,1909.766c7.317,-10.293 7.535,-0.511 7.513,0.089c-0.229,6.062 -3.793,4.729 -7.513,-0.089Z" style="fill:#aba628;"/><path d="M3312.461,2149.715c2.661,-2.876 2.487,-4.55 5.745,-2.663c2.181,1.263 0.003,13.86 -5.745,2.663Z" style="fill:#918d22;"/><path d="M1173.759,720.879c-3.959,4.169 -6.666,5.734 -7.303,0.149c-1.619,-14.208 6.99,-0.643 7.303,-0.149Z" style="fill:#c5c02e;"/><path d="M1726.173,1875.057c-7.435,12.662 -7.072,-1.973 -5.905,-2.768c3.381,-2.301 3.234,-0.246 5.905,2.768Z" style="fill:#a29e25;"/><path d="M3266.631,1416.176c-4.514,-3.98 -5.92,-7.296 -0.026,-7.452c0.596,-0.016 9.205,0.029 0.026,7.452Z" style="fill:#cbc52f;"/><path d="M1503.818,1065.632c0.028,1.081 1.679,1.677 1.707,2.758c0.17,6.659 -12.054,2.596 -7.28,-2.301c0.312,-0.32 0.413,-0.034 5.573,-0.457Z" style="fill:#cfca30;"/><path d="M3499.54,1798.502c4.341,3.902 6.024,7.302 0.019,7.438c-0.595,0.013 -9.224,-0.058 -0.019,-7.438Z" style="fill:#cbc630;"/><path d="M1726.023,2222.848c-0.475,0.906 0.551,2.162 0.076,3.068c-3.315,6.324 -10.452,-2.697 -5.595,-5.344c0,0 5.077,2.094 5.519,2.276Z" style="fill:#908c22;"/><path d="M1649.73,1934.172c-6.883,12.562 -6.96,-1.787 -5.778,-2.576c3.208,-2.142 3.081,-0.244 5.778,2.576Z" style="fill:#a7a327;"/><path d="M3179.289,2406.956c-8.323,15.238 -6.063,-2.46 -5.835,-2.618c3.209,-2.231 3.095,-0.178 5.835,2.618Z" style="fill:#969223;"/><path d="M1496.688,1349.965c-6.858,6.821 -8.281,-5.647 -3.073,-5.27c0.487,0.035 0.221,0.378 3.073,5.27Z" style="fill:#8a8620;"/><path d="M3411.989,1544.841c-7.87,13.041 -7.245,-2.226 -5.996,-3.025c3.534,-2.261 3.333,-0.097 5.996,3.025Z" style="fill:#888520;"/><path d="M2109.411,1297.937c0.366,-0.474 7.444,-9.652 7.485,0.034c0.003,0.599 -0.206,9.374 -7.485,-0.034Z" style="fill:#aaa628;"/><path d="M2046.132,1752.267c-9.786,-3.352 0.657,-9.476 2.745,-5.511c1.72,3.266 -0.184,2.928 -2.745,5.511Z" style="fill:#6c6919;"/><path d="M3545.341,2076.513c0.289,-0.531 9.015,-16.557 7.55,0.396c-0.467,5.408 -2.776,1.959 -7.55,-0.396Z" style="fill:#959223;"/><path d="M2988.866,1311.941c2.784,-2.696 2.67,-4.787 5.797,-2.492c1.036,0.761 1.565,4.808 0.743,5.831c-3.183,3.959 -3.993,1.161 -6.54,-3.339Z" style="fill:#afaa29;"/><path d="M3479.003,2208.706c7.069,-9.995 7.445,-0.563 7.438,0.032c-0.07,6.014 -3.422,4.503 -7.438,-0.032Z" style="fill:#aaa528;"/><path d="M2015.89,1961.716c2.745,-4.852 2.479,-5.185 2.958,-5.228c5.237,-0.465 4.4,5.279 4.316,5.855c-0.817,5.609 -6.853,-0.221 -7.273,-0.627Z" style="fill:#84811f;"/><path d="M1479.495,1169.395c-7.361,13.389 -6.389,-1.977 -5.721,-2.468c3.121,-2.295 3.095,-0.201 5.721,2.468Z" style="fill:#bcb72c;"/><path d="M3350.055,1948.084c4.478,3.938 5.822,7.183 0.029,7.334c-0.587,0.015 -9.438,-0.037 -0.029,-7.334Z" style="fill:#cac52f;"/><path d="M1403.182,1579.49c-8.364,7.943 -7.285,-5.379 -3.456,-5.183c0.498,0.025 0.248,0.373 3.456,5.183Z" style="fill:#bab52b;"/><path d="M2772.421,724.345c-0.393,0.471 -7.088,8.499 -7.657,0.298c-0.042,-0.612 0.364,-11.643 7.657,-0.298Z" style="fill:#908d22;"/><path d="M2581.332,2142.62c-0.397,0.459 -7.199,8.332 -7.579,0.19c-0.028,-0.606 0.362,-11.403 7.579,-0.19Z" style="fill:#979323;"/><path d="M3029.833,1287.573c-7.109,10.903 -7.513,0.449 -7.486,-0.149c0.271,-6.032 3.549,-4.355 7.486,0.149Z" style="fill:#979223;"/><path d="M1574.058,1339.714c2.681,-2.848 2.687,-5.043 5.866,-2.614c0.091,0.069 3.125,17.555 -5.866,2.614Z" style="fill:#b4af2a;"/><path d="M1438.388,1867.992c0.956,-1.556 -0.644,-1.71 0.261,-3.182c0.152,-0.248 1.265,-2.059 2.976,-2.084c3.866,-0.057 5.158,13.21 -3.236,5.266Z" style="fill:#b5b02a;"/><path d="M1496.684,2010.706c-6.538,13.422 -6.983,-1.905 -5.78,-2.658c3.405,-2.132 3.141,-0.043 5.78,2.658Z" style="fill:#9b9724;"/><path d="M3411.652,2306.498c-4.257,16.83 -6.745,-0.639 -6.553,-0.918c1.195,-1.737 3.389,-1.43 3.702,-1.386c2.15,0.301 0.844,2.023 2.851,2.304Z" style="fill:#7d7a1d;"/><path d="M2073.762,1325.472c-1.104,0.036 -1.625,1.845 -2.729,1.881c-6.645,0.216 -2.773,-11.802 2.069,-7.368c0,0 0.607,5.048 0.66,5.487Z" style="fill:#cdc830;"/><path d="M3603.129,1760.397c-6.971,12.801 -7.625,-2.004 -5.941,-3.022c1.666,-1.007 2.855,-0.402 3.075,-0.29c2.054,1.045 0.675,2.198 2.866,3.312Z" style="fill:#817e1e;"/><path d="M3012.643,1280.518c-8.428,8.03 -7.042,-5.3 -3.246,-5.257c1.712,0.019 2.825,1.822 2.978,2.069c0.91,1.473 -0.693,1.631 0.269,3.187Z" style="fill:#b4af2a;"/><path d="M1691.894,1409.189c-8.088,7.624 -7.101,-4.944 -3.432,-4.932c1.779,0.006 2.819,1.501 2.976,1.727c1,1.438 -0.601,1.687 0.456,3.206Z" style="fill:#c6c12e;"/><path d="M1525.32,1548.958c1.582,0.804 1.548,-0.898 3.036,-0.143c0.285,0.145 1.825,0.927 2.625,3.017c0.326,0.853 -11.402,11.419 -5.66,-2.874Z" style="fill:#969223;"/><path d="M3454.493,2267.778c0.929,-1.492 -0.702,-1.657 0.279,-3.234c0.154,-0.248 1.282,-2.06 3.017,-2.062c3.526,-0.005 5.748,13.638 -3.296,5.296Z" style="fill:#bab52b;"/><path d="M1666.729,2003.529c-1.271,0.706 -1.412,2.733 -2.682,3.439c-4.724,2.624 -7.211,-8.522 0.348,-7.528c0.374,0.049 0.173,0.303 2.334,4.09Z" style="fill:#817e1e;"/><path d="M1555.949,1245.901c-0.275,0.497 -9.472,17.134 -7.092,-0.239c0.744,-5.432 3.224,-3.546 7.092,0.239Z" style="fill:#afab29;"/><path d="M1309.55,880.804c-0.628,0.877 0.124,2.32 -0.504,3.197c-4.263,5.956 -10.209,-6.619 -3.001,-6.509c0.386,0.006 0.26,0.245 3.505,3.311Z" style="fill:#c6c12e;"/><path d="M1712.865,2176.871c-2.731,-2.652 -4.532,-2.401 -2.543,-5.698c1.163,-1.929 14.087,-0.057 2.543,5.698Z" style="fill:#a39f26;"/><path d="M1650.46,1697.708c7.164,-9.858 7.37,-0.519 7.347,0.068c-0.228,5.855 -3.503,4.537 -7.347,-0.068Z" style="fill:#b6b12b;"/><path d="M1990.668,2198.286c2.955,-3.272 3.452,-6.031 6.208,-2.624c0.339,0.419 3.288,14.132 -6.208,2.624Z" style="fill:#cbc62f;"/><path d="M2821.5,1280.528c-8.706,8.069 -6.889,-5.295 -3.28,-5.274c1.722,0.01 2.844,1.815 2.998,2.062c0.974,1.566 -0.639,1.73 0.282,3.212Z" style="fill:#b9b42b;"/><path d="M3030.484,2406.9c3.848,-3.91 6.379,-5.449 7.085,-0.128c1.969,14.847 -6.788,0.611 -7.085,0.128Z" style="fill:#bab62b;"/><path d="M2863.262,2375.55c-9.261,8.381 -6.82,-5.421 -3.457,-5.328c0,0 3.18,4.902 3.457,5.328Z" style="fill:#b7b12b;"/><path d="M2731.552,773.082c3.911,-4.062 6.544,-5.581 7.154,-0.138c1.572,14.024 -6.849,0.622 -7.154,0.138Z" style="fill:#bcb72c;"/><path d="M1115.462,925.783c0.782,-1.522 -0.96,-1.497 -0.128,-3.116c0.148,-0.288 0.935,-1.82 3.076,-2.624c0.668,-0.251 11.992,11.783 -2.948,5.74Z" style="fill:#9c9824;"/><path d="M3454.353,1993.195c3.191,-3.697 3.024,-3.988 3.446,-3.993c0.44,-0.005 3.826,-0.041 3.775,3.999c-0.073,5.762 -3.371,4.476 -7.221,-0.007Z" style="fill:#c7c22e;"/><path d="M1438.281,1315.323c2.841,-3.842 3.198,-6.586 6.375,-3.094c0.381,0.419 4.12,14.525 -6.375,3.094Z" style="fill:#beb92c;"/><path d="M1378.885,1722.012c3.372,-2.967 3.254,-3.204 3.642,-3.204c6.942,-0.01 1.191,12.184 -3.152,6.521c-0.68,-0.887 0.19,-2.43 -0.49,-3.317Z" style="fill:#cdc730;"/><path d="M3329.753,1659.683c4.968,-1.85 4.963,-2.232 5.353,-1.994c4.755,2.903 -2.2,11.361 -5.457,5.126c-0.484,-0.926 0.588,-2.206 0.104,-3.132Z" style="fill:#a39f26;"/><path d="M3054.232,1513.377c-8.238,7.486 -7.207,-5.403 -3.149,-5.305c1.733,0.042 2.836,1.9 2.987,2.153c0.876,1.475 -0.765,1.59 0.162,3.152Z" style="fill:#a5a126;"/><path d="M3246.135,1669.869c7.094,-10.452 7.445,-0.454 7.416,0.138c-0.296,5.905 -3.451,4.263 -7.416,-0.138Z" style="fill:#a09b25;"/><path d="M3558.581,2038.218c-0.915,-0.582 -2.332,0.384 -3.247,-0.198c-6.307,-4.013 6.618,-10.937 6.171,-3.165c-0.02,0.356 -0.217,0.249 -2.924,3.363Z" style="fill:#bfbb2d;"/><path d="M1073.045,804.306c3.315,-2.817 3.205,-3.043 3.581,-3.042c7.139,0.009 1.056,12.172 -3.187,6.377c-0.661,-0.903 0.268,-2.432 -0.393,-3.335Z" style="fill:#cec830;"/><path d="M3437.292,1669.873c7.053,-10.321 7.395,-0.465 7.364,0.123c-0.31,5.914 -3.44,4.206 -7.364,-0.123Z" style="fill:#a4a026;"/><path d="M3610.824,1801.999c-2.983,3.973 -3.506,6.857 -6.504,3.138c-2.386,-2.96 0.149,-5.342 0.48,-5.652c3.041,-2.858 3.103,-0.365 6.024,2.515Z" style="fill:#c8c22f;"/><path d="M3121.802,1488.618c0.964,-4.854 0.754,-7.347 5.2,-5.268c22.465,10.503 -4.618,5.378 -5.2,5.268Z" style="fill:#76721b;"/><path d="M3195.447,1344.12c-1.502,4.644 -0.647,8.012 -5.082,5.572c-0.529,-0.291 -8.341,-8.992 5.082,-5.572Z" style="fill:#74701b;"/><path d="M2119.727,1201.076c4.648,0.709 4.75,0.463 5.02,0.766c4.605,5.155 -7.643,8.129 -7.413,2.37c0.052,-1.314 2.34,-1.822 2.393,-3.136Z" style="fill:#c3bd2e;"/><path d="M1284.447,1315.262c-4.881,2.549 -7.498,5.903 -7.755,0.314c-0.029,-0.62 0.556,-12.399 7.755,-0.314Z" style="fill:#83801f;"/><path d="M3454.309,1975.808c0.281,-0.265 3.515,-3.308 3.515,-3.308c7.058,0.002 1.283,12.139 -2.938,6.471c-0.64,-0.86 0.063,-2.303 -0.577,-3.163Z" style="fill:#c8c32f;"/><path d="M3311.656,1934.14c-0.581,0.901 0.269,2.301 -0.313,3.202c-3.858,5.983 -10.853,-6.254 -3.055,-6.086c0.355,0.008 0.249,0.214 3.368,2.885Z" style="fill:#c0bb2d;"/><path d="M3029.781,1485.782c-6.327,12.308 -6.624,-1.581 -5.588,-2.229c3.007,-1.88 2.929,-0.222 5.588,2.229Z" style="fill:#938f22;"/><path d="M2905.045,1329.246c-7.03,9.237 -7.274,0.524 -7.234,-0.053c0.402,-5.772 3.319,-3.953 7.234,0.053Z" style="fill:#c4bf2e;"/><path d="M3113.734,1544.77c3.907,-3.983 6.816,-5.631 7.162,-0.035c0.035,0.572 -0.053,9.402 -7.162,0.035Z" style="fill:#c6c02e;"/><path d="M1555.798,1537.578c-1.058,0.05 -1.439,1.917 -2.497,1.966c-6.96,0.326 -3.461,-11.254 1.514,-7.018c0.313,0.267 0.073,0.374 0.983,5.051Z" style="fill:#a8a427;"/><path d="M2297.848,1589.959c-0.218,5.84 -0.435,11.681 -0.653,17.521c-0.215,-1.38 -2.026,-2.161 -2.241,-3.542c-1.619,-10.385 2.494,-12.05 2.893,-13.979Z" style="fill:#bfbe94;fill-opacity:0.28;"/><path d="M1020.688,710.557c-7.865,14.166 -5.616,-2.085 -5.583,-2.108c2.938,-2.027 2.866,-0.28 5.583,2.108Z" style="fill:#a4a026;"/><path d="M1021.386,592.334c5.016,-2.133 7.257,-6.069 7.887,-0.54c0.072,0.628 0.033,12.457 -7.887,0.54Z" style="fill:#9d9924;"/><path d="M3315.444,1499.113c-2.08,-5.202 -2.507,-5.201 -2.241,-5.604c2.798,-4.239 10.813,2.447 5.36,5.521c-0.906,0.511 -2.213,-0.428 -3.119,0.083Z" style="fill:#959123;"/><path d="M1115.254,940.04c5.109,-2.005 5.104,-2.411 5.505,-2.16c4.496,2.816 -2.38,10.789 -5.468,5.331c-0.521,-0.92 0.483,-2.251 -0.037,-3.171Z" style="fill:#9f9b25;"/><path d="M1820.779,1993.294c4.32,-1.547 5.953,-4.165 6.736,-0.11c1.018,5.269 -5.037,6.504 -6.782,3.411c-0.541,-0.958 0.586,-2.342 0.045,-3.301Z" style="fill:#aeaa29;"/><path d="M1555.688,1440.747c-2.222,4.47 -1.528,7.61 -5.154,5.161c-3.141,-2.122 -0.434,-7.85 2.178,-7.695c1.301,0.077 1.676,2.457 2.977,2.534Z" style="fill:#aeaa28;"/><path d="M3235.191,637.818c0.044,1.363 2.456,1.876 2.5,3.239c0.223,6.896 -13.24,0.692 -5.753,-3.389c0.953,-0.519 2.3,0.67 3.252,0.15Z" style="fill:#bab52b;"/><path d="M3534.07,2121.241c-0.916,-0.479 -2.183,0.599 -3.099,0.12c-7.534,-3.943 5.971,-10.184 5.593,-3.182c-0.071,1.314 -2.423,1.748 -2.494,3.062Z" style="fill:#9b9724;"/><path d="M3120.549,609.628c-1.408,-0.012 -1.994,2.516 -3.402,2.503c-6.157,-0.053 -0.629,-13.095 3.467,-5.937c0.568,0.993 -0.634,2.44 -0.066,3.433Z" style="fill:#b8b42b;"/><path d="M1593.712,1080.427c1.476,0.048 2.643,-1.68 4.119,-1.632c7.541,0.246 3.38,6.056 3.045,6.524c-0.517,0.722 -2.085,-0.154 -2.602,0.568l-4.562,-5.46Z" style="fill:#5e5c16;"/><path d="M1886.421,2490.734c2.347,-0.505 1.394,-1.883 3.59,-2.355c0.544,-0.117 3.853,-0.829 6.959,0.086c1.479,0.436 2.043,2.565 3.522,3c-4.69,-0.244 -9.381,-0.488 -14.071,-0.731Z" style="fill:#c1c08b;fill-opacity:0.21;"/><path d="M3397.493,2196.843c1.676,3.32 3.276,1.832 4.925,5.1c0.08,0.159 0.221,0.438 -1.535,1.617c-0.5,0.335 -8.014,4.05 -3.39,-6.717Z" style="fill:#706c1a;"/><path d="M2004.396,640.826c2.001,9.744 2.382,9.687 2.159,10.516c-0.626,2.325 -2.188,1.044 -2.853,3.517c0.231,-4.678 0.463,-9.355 0.694,-14.033Z" style="fill:#bfbe92;fill-opacity:0.26;"/><path d="M2000.919,689.491c0.172,0.841 2.146,10.516 2.146,10.516c-0.66,2.466 -2.214,1.199 -2.834,3.518c0.229,-4.678 0.459,-9.356 0.688,-14.034Z" style="fill:#bfbe92;fill-opacity:0.26;"/><path d="M2988.353,449.253c7.677,-0.831 7.554,-1.112 10.571,-0.742c-6.486,3.008 -6.41,3.446 -6.993,3.243c-1.374,-0.479 -2.204,-2.023 -3.578,-2.502Z" style="fill:#c7c6a1;fill-opacity:0.14;"/><path d="M1931.396,1634.976c-1.354,12.381 -5.293,9.957 -6.629,11.001l2.917,-5.084c1.573,-3.259 1.578,-3.065 3.712,-5.917Z" style="fill:#a6a57c;fill-opacity:0.26;"/><path d="M1288.1,354.487c-3.422,1.754 -2.672,3.182 -7.102,3.641c-1.865,0.193 -1.504,0.444 -3.303,0.63c4.412,-3.953 4.501,-3.468 10.405,-4.271Z" style="fill:#afae88;fill-opacity:0.17;"/><path d="M811,860.481c1.223,3.484 2.446,6.968 3.669,10.453c-2.796,-5.001 -2.529,-4.949 -3.669,-10.453Z" style="fill:#a9a884;fill-opacity:0.19;"/><path d="M2908.656,802.002c1.536,-0.653 2.226,-2.651 3.762,-3.304c0.477,-0.203 0.466,0.116 6.289,1.56c-3.35,0.581 -6.7,1.162 -10.05,1.744Z" style="fill:#c9c8a6;fill-opacity:0.16;"/><path d="M1204.654,396.132c-6.369,3.146 -6.045,3.611 -10.329,4.271c4.504,-3.864 4.616,-3.354 10.329,-4.271Z" style="fill:#a09f6e;fill-opacity:0.2;"/><path d="M3544.872,1286.347c5.955,0.619 6.173,-0.025 10.802,4.041c-3.375,-0.441 -3.178,-0.78 -10.802,-4.041Z" style="fill:#acaa77;fill-opacity:0.23;"/><path d="M1612.626,469.078c5.802,1.489 5.993,0.582 10.315,4.404c-10.399,-1.377 -10.01,-4.241 -10.315,-4.404Z" style="fill:#acab7c;fill-opacity:0.2;"/><path d="M1681.386,2480.794c6.516,-2.558 6.468,-2.99 7.026,-2.758c1.396,0.581 2.116,2.291 3.513,2.871l-10.538,-0.113Z" style="fill:#bebd96;fill-opacity:0.23;"/><path d="M2283.497,444.812c5.733,1.433 5.978,0.497 10.333,4.332c-10.294,-1.449 -10.26,-4.294 -10.333,-4.332Z" style="fill:#aba878;fill-opacity:0.2;"/><path d="M3364.042,1237.639c5.258,0.469 4.98,0.421 10.037,1.84c-0.503,0.122 -6.286,1.526 -6.286,1.526c-1.541,-0.67 -2.21,-2.696 -3.751,-3.366Z" style="fill:#c9c89f;fill-opacity:0.19;"/><path d="M2391.688,654.849l-0.132,10.53c-0.826,-2.143 -1.866,-1.23 -2.764,-3.559c0,-0 2.664,-6.413 2.896,-6.971Z" style="fill:#bdbb94;fill-opacity:0.24;"/><path d="M2398.627,540.14l-0.121,10.524c-0.814,-2.144 -1.865,-1.228 -2.749,-3.555c-0.214,-0.564 0.208,-0.505 2.87,-6.969Z" style="fill:#bcbb94;fill-opacity:0.24;"/><path d="M2627.32,2479.257c5.246,-1.146 5.119,-0.262 10.014,1.8c-5.222,-0.48 -4.954,-0.458 -10.014,-1.8Z" style="fill:#c5c39b;fill-opacity:0.24;"/><path d="M1166.635,1186.705c-1.006,2.27 -2.011,4.54 -3.017,6.811l-3.059,-3.941c0.97,-0.459 1.922,1.873 2.892,1.414c0.386,-0.183 0.236,-0.317 3.184,-4.284Z" style="fill:#7e7a1d;"/><path d="M2784.22,2527.594c5.24,-0.781 4.826,0.281 9.499,2.179c-5.109,-0.606 -4.84,-0.586 -9.499,-2.179Z" style="fill:#bcba82;fill-opacity:0.25;"/><path d="M1542.771,427.837c4.103,1.312 3.929,1.145 7.163,3.941c-6.575,-1.083 -5.659,-2.74 -7.163,-3.941Z" style="fill:#b9b889;fill-opacity:0.19;"/><path d="M1713.121,1436.608l3.164,3.828c-1.125,0.466 -2.298,-1.739 -3.423,-1.273c0,0 -2.703,4.48 -2.938,4.87c1.065,-2.475 2.131,-4.95 3.196,-7.426Z" style="fill:#494711;"/><path d="M1501.054,403.556c4.038,1.268 3.874,1.093 7.137,3.901c-6.235,-1.091 -5.412,-2.533 -7.137,-3.901Z" style="fill:#b8b683;fill-opacity:0.17;"/><path d="M1642.873,485.095c3.09,2.283 3.172,1.924 4.85,5.415c-1.379,-1.315 -1.85,0.555 -3.137,-0.673c-0.292,-0.278 -0.127,-0.351 -1.713,-4.742Z" style="fill:#cecda4;fill-opacity:0.19;"/><path d="M2863.037,1037.565c3.163,2.641 3.124,2.346 4.915,5.761c-3.585,-3.571 -3.826,-3.17 -4.915,-5.761Z" style="fill:#c5c593;fill-opacity:0.22;"/></g></g><path d="M3252.307,2713.159c-10.468,434.597 -20.936,869.193 -31.404,1303.79c110.227,19.14 220.454,38.28 330.681,57.42l49.877,-193.201l266.027,165.693c65.424,-20.746 130.854,-41.492 196.283,-62.239c-88.678,-190.895 -177.35,-381.795 -266.022,-572.69c93.442,-174.951 186.89,-349.902 280.337,-524.853c-101.143,-55.662 -202.285,-111.329 -303.433,-166.99c-44.108,94.674 -88.222,189.354 -132.33,284.033l0,-347.77c-130.007,18.934 -260.009,37.873 -390.016,56.807" style="fill-rule:nonzero;"/><path d="M1630.304,2739.565c-91.641,471.091 -183.281,942.177 -274.922,1413.268c34.883,28.083 69.771,56.166 104.654,84.249c331.555,5.752 663.109,11.505 994.664,17.257c-7.852,-504.927 -15.705,-1009.848 -23.557,-1514.774c-91.136,9.209 -182.272,18.418 -273.413,27.633c-19.286,21.023 -38.578,42.051 -57.87,63.08c-25.505,238.53 -51.016,477.06 -76.522,715.591c-13.637,-21.425 -27.269,-42.855 -40.901,-64.279c12.709,-198.172 25.419,-396.338 38.128,-594.51c-26.319,-25.663 -52.644,-51.326 -78.964,-76.988c-103.764,-23.508 -207.533,-47.017 -311.297,-70.525" style="fill-rule:nonzero;"/><path d="M505.246,2296.574c13.93,618.751 27.866,1237.503 41.796,1856.26l108.957,58.321l406.465,-58.321l80.57,-105.978l0,-645.136c139.124,-48.857 278.248,-97.708 417.372,-146.559c37.612,-235.014 75.23,-470.022 112.848,-705.036l-415.663,-170.42c-250.778,-27.709 -501.562,-55.423 -752.346,-83.131" style="fill-rule:nonzero;"/><path d="M2425.602,4237.083c21.012,-480.186 42.03,-960.372 63.042,-1440.559c23.78,-14.728 47.554,-29.451 71.334,-44.173c32.772,4.488 65.544,8.97 98.315,13.458c63.145,93.296 126.29,186.586 189.435,279.882c-28.327,-106.537 -56.649,-213.068 -84.977,-319.6c125.004,30.943 250.013,61.886 375.017,92.829l66.71,74.812c5.476,374.404 10.946,748.813 16.421,1123.217c-77.13,23.025 -154.265,46.051 -231.394,69.076c-22.629,-9.014 -45.253,-18.033 -67.882,-27.047c-27.953,-56.655 -55.9,-113.304 -83.853,-169.959c-23.465,76.359 -46.935,152.718 -70.4,229.077c-20.632,15.396 -41.259,30.786 -61.891,46.181c-93.29,24.268 -186.586,48.536 -279.876,72.804" style="fill-rule:nonzero;"/><path d="M1295.638,2979.49l-342.506,0l64.431,-298.425l315.378,54.261l-37.303,244.163Zm264.768,-425.567c-301.469,-39.327 -602.938,-78.644 -904.402,-117.965l0,1638.41c122.198,-7.435 244.402,-14.869 366.6,-22.304c-23.156,-259.179 -46.317,-518.363 -69.473,-777.542c180.579,-52.33 361.157,-104.659 541.736,-156.989c21.848,-187.872 43.69,-375.744 65.538,-563.611" style="fill:#dc0097;fill-rule:nonzero;"/><path d="M1700.034,2830.279l-193.299,1322.555l834.229,-81.39l50.864,-1162.321l-254.333,73.76l-20.35,732.489l-233.988,-111.909l66.124,-630.755l-249.248,-142.429Z" style="fill:#dc0097;fill-rule:nonzero;"/><path d="M2520.696,3995.991l74.606,-1108.912l325.553,712.145l0,-712.145l233.988,82.236l0,983.441c-64.431,14.408 -128.862,28.821 -193.299,43.234l-244.163,-457.807c-5.931,169.557 -11.868,339.114 -17.8,508.676c-59.628,-16.958 -119.257,-33.911 -178.885,-50.87" style="fill:#dc0097;fill-rule:nonzero;"/><path d="M3445.636,2770.086l-135.646,1190.296l196.685,0l0,-493.411l274.688,456.108l132.254,-33.911l-278.075,-523.931l339.114,-462.897l-233.988,-57.648l-166.171,336.39l0,-441.516l-128.862,30.52Z" style="fill:#dc0097;fill-rule:nonzero;"/></g></svg>