<?xml version="1.0" encoding="UTF-8" standalone="no"?><!DOCTYPE svg PUBLIC "-//W3C//DTD SVG 1.1//EN" "http://www.w3.org/Graphics/SVG/1.1/DTD/svg11.dtd"><svg width="100%" height="100%" viewBox="0 0 4584 4584" version="1.1" xmlns="http://www.w3.org/2000/svg" xmlns:xlink="http://www.w3.org/1999/xlink" xml:space="preserve" xmlns:serif="http://www.serif.com/" style="fill-rule:evenodd;clip-rule:evenodd;stroke-linejoin:round;stroke-miterlimit:2;"><rect id="Page-1" serif:id="Page 1" x="0" y="0" width="4583.333" height="4583.333" style="fill:none;"/><g id="Calque-1" serif:id="Calque 1"><g><path d="M485.663,1649.638c20.573,-9.856 20.627,-9.372 22.224,-10.519c10.72,-7.699 29.919,-1.932 32.892,-0.013c7.206,4.652 15.534,7.959 17.702,9.724c0.501,0.408 4.759,3.875 6.533,4.756c9.949,4.942 8.684,7.368 19.33,10.431c1.954,0.562 3.154,3.457 5.578,4.555c15.484,7.015 14.771,8.268 16.139,8.808c0.975,0.773 0.51,1.589 4.035,2.206c0.298,0.294 3.058,3.02 4.049,3.322c8.449,2.575 7.239,4.951 15.502,8.2c0.851,0.679 0.333,1.616 4.05,2.228c2.078,2.097 27.872,15.73 35.444,21.088c0.173,0.092 -0.047,1.711 5.832,2.49c4.178,4.258 7.673,3.494 11.269,6.566c0.897,2.483 0.804,2.524 0.969,2.681c0.728,0.694 0.994,-0.363 1.773,0.38c1.339,1.231 1.467,0.844 3.498,2.317c2.279,1.653 1.627,2.057 3.366,4.391c19.284,25.871 19.417,68.038 31.978,117.619c11.879,46.889 9.916,47.298 11.195,51.3c7.71,24.119 17.674,85.731 30.109,135.401c6.814,27.219 29.733,142.31 32.113,147.088c2.438,4.894 1.108,5.181 2.682,10.364c1.486,4.891 0.533,4.982 1.957,9.818c3.928,13.337 2.806,15.59 3.917,19.643c5.626,20.527 4.09,20.797 5.894,27.511c6.766,25.186 5.286,25.351 5.876,27.524c4.379,16.128 3.559,16.289 3.942,17.688c4.43,16.195 3.472,16.313 3.919,17.692c9.463,29.142 7.653,35.105 13.097,58.505c0.591,1.996 -0.543,1.926 0.017,3.814c0.029,0.097 0.298,-0.994 1.213,0.338c0.325,0.474 -0.169,1.269 0.197,1.713c0.371,0.451 1.293,0.096 1.664,0.546c0.755,-0.59 2.982,0.78 3.748,-6.22c1.9,-5.912 1.13,-5.99 1.667,-17.64c0.131,-2.846 1.445,-2.734 1.55,-7.816c0.567,-27.39 1.922,-27.117 1.966,-29.48c0.581,-31.061 4.039,-62.056 4.264,-72.738c0.389,-18.455 8.331,-90.076 13.874,-180.836c0.088,-1.44 1.445,-5.258 1.479,-5.912c1.135,-21.853 1.891,-21.69 1.967,-23.581c1.087,-27.214 1.988,-27.071 2.008,-29.43c0.217,-25.442 2.016,-25.308 1.964,-27.514c-0.04,-1.733 -0.398,-17.038 0.774,-21.658c2.533,-9.986 0.534,-24.17 1.932,-29.494c1.676,-6.385 3.884,-54.866 3.927,-55.031c2.455,-9.325 1.282,-9.4 1.546,-25.488c0.351,-1.311 1.229,-0.595 1.603,-1.989c0,-0 -1.116,-5.47 -1.213,-5.946c2.612,-8.11 1.359,-8.202 1.574,-19.58c0.376,-1.398 1.259,-0.674 1.613,-1.988c0.126,-0.469 -0.09,-0.437 -1.221,-5.945c5.579,-17.538 0.095,-59.319 11.689,-70.978c33.027,-33.211 49.138,-48.309 69.339,-64.169c7.071,-5.551 21.887,-3.977 25.574,-0.775c0.14,0.122 42.533,18.755 51.194,25.101c0.041,0.021 0.022,1.63 5.842,2.449c2.651,2.603 22.157,12.529 23.555,13.743c8.162,7.084 38.185,11.946 35.695,37.704c-1.505,3.654 -1.743,3.621 -1.622,3.94c0.5,1.316 1.094,0.798 1.554,2.01c-1.611,6.063 -1.584,7.175 -1.569,7.812c0.438,18.26 -1.93,37.056 -1.997,39.349c-0.175,6.007 -0.144,5.865 -0.289,11.743c-0.131,0.315 -1.637,3.941 -1.637,3.941c0.508,1.317 1.096,0.8 1.563,2.012c-1.663,6.374 -11.301,104.669 -11.492,110.047c-0.279,7.876 -1.505,7.6 -1.833,11.814c-1.421,18.298 -1.859,18.076 -1.965,19.653c-1.221,18.251 -1.859,18.076 -1.963,19.653c-1.082,16.481 -1.887,16.265 -1.967,17.686c-2.951,52.007 -11.783,118.328 -12.172,131.637c-0.177,6.043 -0.847,5.87 -1.572,11.845c-9.429,77.679 -6.998,77.906 -8.698,84.484c-2.701,10.451 -0.1,10.682 -1.995,17.68c-2.518,9.301 -0.156,9.449 -1.566,15.781c-2.157,9.69 -0.488,9.749 -1.967,19.642c-3.403,22.758 -5.595,52.992 -5.792,62.813c-0.226,1.091 -2.551,2.032 -1.636,7.904c0.122,0.78 1.145,1.222 1.267,2.002c-0.56,3.281 -5.158,30.227 -5.502,41.235c-0.461,14.766 -1.758,14.487 -1.745,15.755c0.143,14.568 -2.105,14.358 -2.02,19.668c0.166,10.338 -1.25,10.034 -1.817,15.708c-0.377,3.771 -4.683,46.809 -4.77,47.129c-2.346,8.603 -0.763,8.951 -1.594,15.761c-9.196,75.414 -17.747,177.738 -18.024,178.82c-3.081,12.03 -0.59,16.495 -1.932,21.632c-3.595,13.76 -0.284,14.117 -1.956,19.662c-3.782,12.54 -3.868,15.255 -11.339,25.874c-0.784,1.114 -8.25,11.727 -10.16,13.664c-8.18,8.294 -7.546,9.455 -9.823,11.784c-10.823,11.066 -10.735,12.642 -11.839,13.722c-4.481,4.383 -5.804,7.821 -7.847,9.84c-4.56,4.507 -7.303,9.756 -8.612,11.04c-11.588,11.367 -22.275,27.736 -24.778,30.251c-21.234,21.336 -26.092,8.661 -100.529,8.241c-0.836,-0.246 -1.155,-1.45 -1.991,-1.696c-1.757,-0.517 -3.627,-0.115 -3.935,-0.049c-1.241,0.267 -0.703,1.046 -2.029,1.332c-9.162,-3.147 -39.698,-3.428 -43.162,-3.46c-0.878,-0.16 -1.139,-1.602 -2.017,-1.762c-5.07,-0.924 -14.618,-0.156 -15.884,-0.054c-4.257,-0.375 -4.201,-0.471 -48.9,-0.28c-0.789,-0.328 -1.197,-1.295 -1.986,-1.623c-0.315,-0.131 -0.288,0.113 -3.972,1.559c-5.95,-1.584 -5.89,-1.553 -27.496,-1.786c-25.521,-0.045 -25.481,-4.469 -41.436,-1.69c-9.865,-0.424 -9.673,-0.294 -19.46,-0.369c-6.804,-0.052 -20.061,-8.002 -23.056,-10.969c-4.764,-4.719 -23.076,-46.319 -23.208,-46.838c-1.757,-6.913 -25.377,-56.493 -27.496,-62.897c-4.25,-12.841 -12.445,-28.623 -14.868,-35.077c-8.485,-22.593 -10.279,-21.822 -10.751,-23.861c-0.227,-0.979 -1.098,-4.738 -4.321,-11.801c-13.757,-30.151 -11.47,-31.016 -25.592,-60.912c-1.373,-2.907 -54.662,-133.981 -56.941,-137.642c-0.3,-0.482 -53.865,-129.417 -57.669,-139.196c-1.932,-4.968 -6.911,-14.652 -7.881,-17.683c-1.416,-4.428 -32.199,-77.693 -32.762,-78.903c-3.359,-7.213 -6.434,-17.522 -7.193,-19.08c-3.791,-7.772 -20.237,-47.269 -22.287,-51.675c-0.647,-1.392 -5.256,-11.297 -7.387,-17.708c-5.203,-15.646 -8.295,-18.96 -9.828,-23.583c-6.179,-18.633 -8.481,-17.733 -12.911,-31.142c-4.41,-13.349 -6.215,-12.514 -10.658,-25.86c-5.66,-17.001 -23.482,-54.614 -25.573,-60.919c-5.017,-15.128 -11.357,-26.637 -14.164,-35.373c-1.69,-5.258 -6.276,-12.209 -7.082,-15.212c-0.691,-1.97 -1.383,-3.94 -2.074,-5.91c-0.7,-1.355 -5.033,-9.739 -6.109,-18.054c-0.02,-0.156 -0.134,-22.316 0.874,-25.535c0.34,-1.086 3.987,-12.729 4.486,-13.502c3.193,-4.944 11.192,-22.356 11.955,-23.32c4.762,-6.014 2.608,-7.045 5.758,-12.043c0.971,-1.541 8.225,-13.048 10.453,-20.225c6.014,-19.373 10.612,-20.333 13.726,-29.489c6.622,-19.473 9.402,-18.158 14.523,-31.187c1.318,-3.353 18.697,-17.562 19.525,-17.915c1.367,-0.583 0.992,-0.845 2.145,-1.867c3.053,-2.704 4.254,0.07 7.476,-2.622c5.075,-4.239 5.704,-3.078 6.128,-3.447c4.141,-3.605 5.619,-0.532 9.818,-3.921c7.264,-5.863 9.237,-3.773 11.798,-5.892c5.478,-4.531 6.67,-2.185 9.543,-4.514c2.688,-2.18 28.199,-14.399 32.235,-15.768c5.578,-1.892 3.893,-4.889 9.661,-5.982c0.999,-0.189 7.406,-1.403 11.948,-4.345c4.204,-2.723 3.793,-3.276 4.208,-3.398c1.832,-0.539 1.918,-0.067 3.351,-1.185c3.183,-2.484 4.255,-0.015 7.435,-2.663c6.701,-5.582 11.718,-4.935 16.495,-8.492c4.227,-3.148 4.972,-1.621 9.292,-4.751c2.422,-0.373 2.239,-0.636 5.84,-2.415c17.375,-8.252 16.543,-9.896 18.189,-10.154c5.351,-0.839 4.823,-2.102 9.883,-3.788c0.508,-0.169 10.412,-4.427 13.223,-7.188c1.018,-0.105 0.813,-0.247 1.868,-0.356c2.505,-0.259 2.081,-1.067 4.015,-2.058Z" style="fill:#efe70a;fill-opacity:1;"/><path d="M1507.838,1697.27c0.893,0.15 2.319,2.714 7.943,1.334c0.84,-0.206 1.181,-1.423 2.022,-1.629c25.305,-0.005 26.31,-6.572 49.513,3.725c9.681,4.296 9.419,4.598 19.056,9.122c2.109,0.99 24.733,11.611 26.054,13.008c1.927,2.037 2.116,1.664 30.912,16.512c0.927,0.478 11.24,5.796 11.552,6.033c3.665,2.787 4.315,1.342 8.138,3.747c13.68,8.606 16.307,16.285 18.369,18.879c7.43,9.348 23.66,109.964 28.565,124.341c2.29,6.713 0.172,6.992 1.927,13.744c3.641,14.004 7.464,41.788 7.438,43.092c-0.524,25.811 -13.901,31.423 -55.216,67.762c-18.346,16.136 -18.438,15.797 -19.821,17.39c-9.83,11.329 -21.89,10.971 -27.7,6.575c-16.496,-12.482 -17.932,-14.719 -19.017,-16.41c-0.363,-0.565 -55.442,-46.674 -62.848,-59.18c-3.418,-5.772 -2.991,-5.826 -5.963,-11.809c-16.288,-32.782 -24.427,-62.526 -32.893,-70.854c-8.848,-8.704 -21.324,-2.348 -22.965,-1.512c-4.922,2.508 -27.567,7.797 -31.453,9.828c-5.67,2.962 -6.076,1.336 -12.003,3.382c-20.079,6.931 -20.308,6.346 -21.88,7.314c-3.292,-0.817 -3.286,-0.997 -3.555,-0.882c-0.868,0.369 -1.258,1.499 -2.127,1.868c-11.546,3.012 -11.017,4.185 -12.014,4.418c-1.509,0.353 -11.609,2.714 -12.638,14.675c-7.485,87.044 -10.363,86.782 -9.649,94.335c0.117,1.237 4.144,13.478 4.411,13.861c0.328,0.471 4.074,5.843 4.098,5.893c0.616,1.465 0.752,1.238 2.779,3.257c1.474,1.673 2.784,2.661 3.051,2.862c8.61,6.494 9.369,4.923 10.071,5.515c19.015,16.026 20.441,13.833 21.941,15.363c9.54,9.735 34.722,24.938 37.336,27.523c3.124,3.09 3.761,2.034 7.117,4.802c8.592,7.087 22.2,7.616 25.761,9.756c7.3,4.386 8.141,1.676 16.248,4.498c4.746,1.652 15.972,2.469 17.19,3.296c8.475,5.753 18.051,3.957 21.585,5.98c8.461,4.843 14.204,1.48 17.708,3.869c7.046,4.803 8.844,1.751 14.096,3.226c8.035,2.255 7.351,4.459 19.636,5.591c3.067,0.282 6.273,3.19 9.834,3.583c7.021,0.774 6.872,0.919 13.706,2.748c40.234,10.765 41.488,10.887 45.196,11.249c0.871,0.379 1.249,1.524 2.12,1.903c0,0 3.27,-0.794 3.554,-0.863c2.95,1.86 2.666,2.329 6.208,2.864c18.787,2.836 17.995,5.503 19.619,5.68c11.109,1.211 10.571,3.399 21.599,4.299c3.729,0.304 4.081,2.431 9.892,3.648c20.172,4.222 19.799,5.637 21.577,5.824c9.064,0.954 8.637,2.444 17.668,4.184c4.311,1.844 4.199,2.035 6.107,2.285c5.866,5.386 12.674,1.653 26.723,30.081c16.926,34.248 72.099,160.53 72.298,161.12c4.55,13.466 8.4,19.602 9.784,23.607c4.266,12.342 33.455,77.517 36.456,84.217c14.284,31.894 -9.839,57.895 -18.256,80.445c-6.186,16.572 -14.702,29.23 -17.7,37.335c-2.072,5.603 -4.206,11.372 -32.119,67.413c-50.495,101.377 -68.708,149.585 -81.621,162.517c-23.545,23.581 -27.728,17.306 -38.704,22.695c-1.668,0.819 -14.711,7.223 -21.909,7.723c-7.466,0.518 -22.932,9.352 -29.485,9.812c-4.176,0.293 -29.183,10.04 -29.65,10.158c-12.667,3.21 -12.465,3.522 -13.587,3.598c-8.369,0.565 -7.562,3.58 -15.959,4.305c-8.213,0.71 -6.939,4.808 -15.493,5.483c-6.334,0.5 -5.437,3.592 -11.783,3.984c-7.3,0.451 -6.485,3.351 -13.764,3.947c-9.429,0.772 -8.217,5.116 -17.693,5.847c-6.008,0.464 -7.936,4.086 -9.976,4.346c-10.307,1.314 -9.716,3.229 -19.684,5.804c-1.626,0.42 -17.992,4.648 -20.029,6.281c-5.305,4.253 -37.768,3.062 -42.55,0.119c-8.489,-5.224 -10.004,-1.099 -13.525,-4.025c-5.829,-4.844 -7.354,-0.965 -12.015,-3.838c-11.64,-7.174 -13.158,-3.182 -17.682,-5.912c-8.651,-5.221 -9.991,-1.269 -13.802,-3.851c-10.379,-7.033 -14.083,-3.7 -17.67,-5.942c-7.135,-4.46 -21.316,-5.779 -26.061,-8.653c-2.29,-1.387 -21.662,-7.2 -25.334,-7.9c-2.642,-1.073 -2.408,-1.674 -5.371,-1.232c-2.056,-1.718 -1.803,-2.123 -4.528,-2.561c-10.196,-1.641 -9.581,-3.341 -19.642,-5.92c-13.017,-3.336 -12.812,-3.681 -25.59,-8.018c-1.404,-0.476 -15.996,-5.43 -17.642,-5.667c-8.098,-1.17 -7.791,-2.038 -15.644,-4.143c-2.767,-1.166 -2.695,-1.666 -5.661,-1.018c-12.252,-7.532 -42.35,-13.225 -43.219,-13.798c-8.214,-5.418 -9.137,-2.906 -18.214,-6.668c-16.256,-6.736 -17.594,-7.015 -28.707,-22.704c-9.01,-12.719 -24.718,-112.634 -35.939,-156.912c-5.637,-22.244 -3.171,-36.404 1.821,-41.558c8.805,-9.09 9.921,-7.515 19.649,-15.816c0.52,-0.443 17.968,-11.169 19.535,-12.133c8.862,-5.448 8.978,-5.203 9.569,-5.879c0.493,-0.565 0.061,-1.102 11.945,-8.064c6.004,-3.518 15.792,-12.558 21.732,-13.84c0.613,-0.132 5.481,-3.869 6.334,-4.051c16.708,-3.56 34.49,22.787 35.97,23.814c11.462,7.956 60.955,65.522 80.266,80.976c15.611,12.493 41.709,5.719 44.857,5.799c24.983,0.629 28.852,-0.906 31.174,-1.828c1.344,-0.533 0.767,-1.044 2.105,-1.795c0.972,-0.546 2.293,-0.162 3.27,-0.7c4.494,-2.478 22.58,-62.386 24.247,-67.908c7.432,-24.619 21.02,-54.586 18.694,-72.798c-0.988,-7.734 -94.238,-176.282 -94.748,-177.021c-1.912,-2.77 -14.851,-36.002 -48.081,-59.975c-4.006,-2.89 -23.276,-19.6 -24.838,-20.752c-6.197,-4.569 -5.512,-5.158 -11.786,-9.836c-12.236,-9.124 -11.479,-9.84 -12.609,-10.508c-14.238,-8.414 -12.417,-10.721 -17.677,-13.75c-11.472,-6.607 -10.216,-8.174 -16.891,-13.062c-11.38,-8.334 -18.778,-15.999 -37.321,-31.467c-10.236,-8.539 -18.763,-32.833 -18.977,-35.019c-0.069,-0.7 -0.235,-40.781 0.882,-45.178c2.748,-10.814 0.242,-25.054 1.653,-37.359c1.015,-8.85 1.402,-8.691 1.359,-17.631c-0.163,-33.951 2.032,-33.825 1.965,-45.203c-0.093,-15.936 0.407,-33.465 0.906,-35.421c4.588,-17.95 -5.411,-26.204 8.514,-52.761c3.188,-6.08 4.786,-4.799 8.439,-10.643c6.315,-10.101 94.846,-129.187 96.74,-131.473c7.731,-9.331 6.199,-10.196 6.87,-10.986c11.253,-13.261 11.326,-13.167 12.319,-14.769c1.816,-2.929 16.1,-25.963 34.342,-26.002c7.902,-0.017 7.665,-1.52 15.647,-1.586c3.834,-0.032 20.59,-3.301 21.546,-3.611c3.952,1.458 3.948,2.194 5.954,1.323c0.899,-0.391 0.461,-1.495 7.949,-2.01c1.751,-0.073 16.608,-0.691 21.764,-2.528c8.481,-3.021 18.358,0.711 35.108,-4.624c0.777,0.271 1.246,1.144 2.023,1.415c0.329,0.115 0.286,-0.133 3.953,-1.834c21.79,-0.766 21.721,-0.757 21.794,-0.775c7.012,-1.755 27.126,-2.743 33.123,-4.751Z" style="fill:#efe709;fill-opacity:1;"/><path d="M658.448,2060.066l2.579,3.087c-0.327,13.893 2.469,13.243 4.29,19.513c0.453,1.559 0.603,8.222 1.719,9.843c4.249,6.173 3.313,6.51 3.761,13.89c0.354,5.833 4.356,7.785 4.646,11.647c0.657,8.746 -0.304,9.049 4.169,16.466c2.858,4.739 2.48,10.461 5.165,5.644c3.668,-6.58 -3.425,-14.099 -3.649,-18.081c-0.47,-8.377 -0.936,-8.19 -3.913,-15.917c-2.756,-7.155 8.226,-17.138 8.336,-3.709c0.05,6.114 1.071,5.824 3.41,11.567c0.873,2.142 1.215,9.537 2.314,11.591c3.585,6.704 3.74,6.731 3.661,14.272c-4.279,3.815 -4.124,3.703 -8.535,7.252c-6.051,2.142 -3.457,4.22 -1.17,10.111c4.764,12.272 5.164,-6.87 5.179,-7.606c0.594,-0.532 4.109,-3.675 7.109,-6.99c2.888,5.464 2.259,14.972 2.624,16.831c0.807,4.118 1.605,3.743 2.556,7.76c1.302,5.496 -8.794,2.839 -10.585,5.801c-5.661,9.362 1.843,14.626 2.812,25.69c1.552,17.727 5.057,-1.486 5.06,-1.919c0.043,-5.555 -9.206,-14.531 0.154,-16.153c11.892,-2.06 7.067,9.92 12.157,15.891c3.672,4.308 1.151,17.007 3.603,21.894c4.394,8.761 2.447,9.507 7.201,18.011c1.921,3.437 0.743,21.382 0.622,23.238c-3.372,3.7 -5.143,3.116 -4.569,8.013c0.05,0.43 3.332,6.938 4.998,-2.065c0.133,-0.22 1.661,-2.753 1.661,-2.753c0.636,-0.263 1.299,0.983 1.935,0.72c1.734,9.204 2.323,10.595 2.69,11.463c5.493,12.987 4.286,13.235 4.889,14.282c4.222,7.333 0.773,8.463 4.708,15.256c0.781,1.349 7.213,12.451 0.872,19.462c-1.982,2.192 -2.413,4.121 -2.503,4.525c-0.083,0.373 2.002,9.614 4.774,-0.16c3.276,-11.55 5.455,8 5.537,8.187c10.417,23.788 8.529,24.845 8.971,31.126c0.31,4.414 3.723,5.593 4.275,9.785c0.982,7.457 2.949,6.725 4.774,13.927c2.244,8.858 -0.243,9.516 4.362,17.53c3.023,5.261 -0.556,6.319 2.637,11.38c3.973,6.298 0.76,7.2 3.226,14.215c8.263,23.509 8.693,23.367 9.08,27.614c0.581,6.382 3.896,5.226 4.676,11.713c0.155,1.292 0.112,2.605 0.303,3.892c0.658,4.415 4.132,6.639 4.603,10.025c0.909,6.537 0.4,6.681 4.043,12.137c3.387,5.074 -3.916,8.138 14.321,36.979c2.207,3.491 0.226,7.41 2.624,11.394c4.421,7.344 3.312,9.125 3.928,11.958c2.208,10.15 7.892,12.236 8.421,19.844c1.78,25.601 9.347,-15.027 12.563,-19.883c8.246,-12.448 -3.428,-15.501 6.269,-37.126c2.931,-6.537 -1.472,-7.475 2.005,-13.708c4.122,-7.388 1.086,-8.591 5.858,-15.713c4.025,-6.007 1.816,-9.78 4.059,-13.719c7.514,-13.195 0.807,-37.821 4.054,-45.207c10.387,-23.626 -0.886,-26.516 5.941,-37.203c10.134,-15.864 -2.872,-19.793 6.957,-35.935c2.481,-4.074 -0.521,-33.021 2.171,-39.158c8.775,-19.996 -1.607,-22.131 5.883,-41.274c7.066,-18.057 -1.19,-25.429 3.654,-35.533c9.103,-18.987 -0.86,-21.239 4.917,-32.918c8.871,-17.933 -0.528,-32.519 5.769,-41.249c6.034,-8.365 0.84,-18.642 3.215,-25.943c2.821,-8.672 5.042,-8.376 3.689,-17.469c-0.971,-6.52 2.92,-10.084 3.122,-11.792c0.625,-5.278 -4.406,-5.784 0.29,-13.279c4.329,-6.909 0.463,-10.128 3.773,-17.952c5.995,-14.172 -1.247,-15.931 5.497,-29.643c4.419,-8.985 0.016,-16.957 4.146,-23.408c6.843,-10.691 -0.841,-13.001 5.129,-24.064c2.441,-4.523 -2.328,-5.157 0.149,-9.737c5.404,-9.995 0.469,-11.628 6.057,-21.521c4.929,-8.726 -3.012,-11.12 5.064,-24.065c3.153,-5.054 -2.572,-9.66 3.102,-16.957c8.243,-10.601 -2.151,-13.93 6.771,-32.077c2.801,-5.698 -2.868,-16.374 3.681,-26.506c4.347,-6.725 -0.709,-25.99 3.477,-35.825c7.706,-18.104 -1.198,-27.601 5.676,-35.32c5.168,-5.804 5.431,-6.382 2.939,-13.793c-2.65,-7.879 2.96,-7.794 1.442,-16.124c-0.753,-4.133 3.654,-4.682 2.922,-21.434c-0.557,-12.756 -1.358,-13.279 10.148,-37.314c2.086,-4.358 38.767,-3.508 41.8,-0.696c19.179,17.786 5.9,27.396 5.483,32.126c-1.245,14.116 1.173,14.497 -4.247,27.441c-2.128,5.082 0.654,14.631 -2.091,19.544c-2.625,4.698 0.488,5.253 -1.317,10.162c-4.89,13.291 0.963,14.342 -3.863,27.51c-8.476,23.128 1.553,42.435 -4.744,52.673c-7.951,12.927 0.481,27.502 -4.223,37.269c-9.385,19.488 3.45,23.194 -6.948,37.835c-4.518,6.362 3.753,7.347 0.848,13.066c-4.103,8.077 -2.061,8.537 -2.303,26.068c-0.094,6.857 -4.662,8.58 -4.859,13.73c-0.683,17.901 1.701,18.192 -3.839,35.358c-3.952,12.246 1.35,24.522 -1.839,31.493c-10.295,22.507 0.83,26.15 -5.682,41.378c-5.917,13.837 -2.218,14.422 -3.353,29.453c-0.304,4.029 -4.189,6.155 -4.32,11.73c-0.238,10.187 -0.067,10.11 -3.407,19.937c-4.924,14.487 2.347,28.256 -4.234,41.298c-6.104,12.097 0.989,14.198 -3.098,21.036c-10.066,16.84 1.458,19.905 -6.236,35.185c-7.461,14.816 3.964,17.901 -6.557,38.011c-3.163,6.046 2.555,12.436 -2.229,19.585c-8.408,12.564 0.361,24.211 -4.677,32.954c-5.167,8.968 -2.523,9.545 -2.969,19.961c-0.489,11.414 1.759,12.008 -4.15,21.734c-1.625,2.675 -0.543,8.044 -2.757,11.288c-3.169,4.645 1.243,5.286 -0.494,10.509c-5.8,17.444 0.312,18.676 -3.719,26.763c-8.749,17.55 2.341,20.586 -7.111,37.731c-3.724,6.755 1.195,18.427 -2.574,25.203c-9.008,16.194 -0.188,22.191 -5.157,33.827c-9.074,21.246 2.544,24.12 -4.862,34.698c-10.124,14.459 1.977,17.813 -5.757,33.686c-5.625,11.544 0.513,21.524 -4.225,28.534c-7.329,10.841 1.068,13.333 -4.43,23.183c-4.443,7.959 -3.076,8.274 -2.851,17.458c0.303,12.369 -3.017,11.59 -5.852,23.478c-1.253,5.255 -8.243,14.511 -7.113,17.664c1.645,4.592 2.396,6.112 -4.497,9.449c-9.38,4.541 -8.883,5.189 -17.603,14.115c-7.309,7.481 -9.222,3.715 -17.527,8.029c-13.954,7.249 -27.365,-1.176 -38.784,4.814c-12.48,6.547 -54.091,-0.577 -61.082,3.651c-6.414,3.879 -7.404,-0.004 -14.309,2.88c-4.252,1.776 -26.586,0.294 -29.579,-1.029c-18.192,-8.039 -20.694,2.461 -34.658,-5.226c-9.951,-5.477 -13.147,1.992 -20.885,-6.344c-8.035,-8.656 -26.257,-22.13 -32.286,-47.976c-2.487,-10.662 -8.72,-12.583 -9.337,-23.534c-0.443,-7.852 -6.624,-7.508 -9.496,-23.452c-1.433,-7.953 -8.087,-17.008 -8.824,-19.834c-3.888,-14.899 -5.046,-14.482 -5.28,-15.793c-2.895,-16.256 -9.277,-17.879 -10.21,-25.47c-1.012,-8.232 -3.257,-7.529 -4.447,-15.649c-3.743,-25.555 -12.656,-23.307 -14.509,-49.097c-0.467,-6.498 -8.421,-9.663 -9.132,-15.763c-1.038,-8.902 -4.556,-7.864 -5.011,-15.81c-1.082,-18.87 -19.348,-37.923 -19.702,-49.123c-0.432,-13.693 -5.202,-12.206 -9.169,-25.318c-0.431,-1.426 -5.291,-17.486 -5.308,-17.852c-0.363,-7.953 0.226,-8.316 -5.056,-14.511c-5.941,-6.968 -4.082,-12.096 -5.465,-14.555c-4.243,-7.545 -1.38,-8.513 -5.416,-16.013c-2.553,-4.745 -2.074,-4.898 -0.586,-10.185c1.737,-6.173 -6.561,-7.005 -7.139,-15.487c-0.577,-8.458 -8.439,-16.43 -9.912,-23.557c-3.168,-15.327 -7.851,-13.91 -9.632,-29.512c-0.807,-7.063 -4.303,-9.816 -4.978,-13.908c-2.17,-13.158 -3.74,-12.56 -3.9,-13.687c-1.106,-7.785 -3.818,-9.591 -5.022,-13.636c-4.436,-14.899 -5.041,-21.782 -5.211,-23.717c-0.523,-5.953 -9.608,-16.706 -9.532,-23.509c0.084,-7.498 -0.903,-7.264 -4.16,-14.038c-6.807,-14.157 -4.861,-14.856 -6.155,-17.546c-11.637,-24.185 -9.584,-25.002 -10.792,-26.989c-4.412,-7.264 -1.926,-8.061 -3.741,-11.982c-2.694,-5.821 -3.562,-5.421 -4.2,-11.933c-0.5,-5.097 -7.983,-13.369 -9.366,-21.636c-1.244,-7.44 -4.335,-6.444 -4.786,-13.851c-1.023,-16.797 -7.242,-15.08 -9.828,-31.529c-0.564,-3.585 -3.509,-7.298 -4.007,-9.852c-1.384,-7.093 -3.28,-6.415 -4.82,-13.562c-3.222,-14.955 -4.73,-14.461 -4.875,-15.774c-1.142,-10.321 -4.065,-9.349 -5.297,-15.586c-2.687,-13.605 -7.038,-12.111 -9.419,-25.65c-1.246,-7.083 -5.316,-6.499 -5.053,-15.664c0.463,-16.144 -16.81,-24.951 -19.552,-41.471c-1.049,-6.322 -2.206,-5.839 -4.002,-11.885c-2.552,-8.591 3.914,-10.769 -5.904,-22.182c-6.422,-7.466 -3.103,-10.677 -5.584,-14.323c-5.238,-7.698 -1.047,-9.406 -5.486,-16.07c-7.482,-11.232 2.798,-17.731 -5.545,-29.707c-3.83,-5.497 0.171,-7.135 1.852,-11.885c3.498,-9.885 -3.299,-15.235 24.352,-34.445c9.531,-6.621 11.015,-3.149 20.957,-8.827c3.503,-2 9.209,-0.135 13.584,-4.099c7.351,-6.661 7.669,-6.01 16.255,-10.962c5.43,-3.132 9.275,1.43 15.461,-2.472c7.373,-4.651 8.706,-0.896 15.151,-4.864c5.572,-3.43 5.717,-2.847 12.206,-3.805c4.097,-0.605 4.848,-4.471 9.842,-4.29c15.827,0.574 20.283,-8.845 27.497,-9.51c15.998,-1.473 15.492,-3.955 31.415,-6.025c8.028,-1.044 15.813,-8.173 27.664,-8.322c33.721,-0.423 33.83,0.735 43.134,5.507c31.619,16.218 22.247,24.834 38.405,56.253c3.954,7.689 1.171,8.636 5.512,15.935c3.726,6.266 1.225,7.043 4.229,13.632c6.912,15.162 7.663,25.608 7.83,27.922c0.387,5.379 3.272,4.307 3.977,9.755c1.195,9.234 0.358,9.588 5.958,17.116c5.475,7.36 1.079,9.435 6.613,16.648c5.833,7.602 0.09,11.038 4.067,17.564c4.246,6.966 1.085,8.032 4.819,15.246c5.435,10.5 0.888,11.938 6.513,22.316c1.459,2.692 4.19,16.293 3.875,17.128c-2.666,7.062 -1.865,7.71 3.807,12.788c3.227,2.889 3.047,11.79 5.521,16.562c2.478,4.78 -2.129,6.067 1.244,10.132c5.671,6.832 4.451,7.409 7.596,15.85c5.142,13.799 4.21,14.109 4.861,15.208c3.87,6.524 3.45,6.635 3.742,14.162c0.165,4.261 3.474,6.771 2.499,11.601c-1.872,9.275 10.956,16.555 6.647,33.607c-2.915,11.537 -12.767,-11.225 -13.185,-11.996c-2.846,-5.258 0.794,-6.44 -3.293,-12.644c-4.952,-7.516 0.145,-16.983 -3.589,-22.01c-5.427,-7.305 -3.004,-11.516 -7.031,-9.757c-3.253,1.42 -1.055,2.536 2.269,11.17c1.132,2.941 -0.852,14.363 2.856,20.56Z"/><path d="M1468.666,1828.37c-16.304,-0.299 -16.258,-0.419 -17.672,-0.43c-11.728,-0.095 -15.052,4.281 -21.664,5.046c-9.095,1.053 -8.544,2.657 -17.536,4.741c-9.173,2.126 -11.02,6.914 -14.231,8.592c-13.197,6.898 -12.026,8.462 -13.214,8.927c-11.304,4.431 -10.255,5.897 -19.092,14.149c-18.179,16.975 -16.053,26.926 -25.723,46.638c-5.946,12.121 -5.66,20.236 -6.203,21.461c-6.023,13.591 -4.39,14.078 -4.944,15.234c-9.727,20.268 2.157,23.584 -6.022,35.112c-0.907,1.279 -1.757,1.173 -2.365,28.158c-0.189,8.391 6.126,14.787 7.663,19.485c5.493,16.788 6.065,16.564 6.413,18.057c1.65,7.08 1.08,7.565 9.928,16.368c15.137,15.059 29.352,38.818 40.408,43.733c9.344,4.154 8.005,6.179 17.276,10.775c3.261,1.616 40.506,20.077 40.742,20.249c9.903,7.173 62.693,21.194 65.301,23.008c6.898,4.796 8.515,0.514 13.542,4.243c6.147,4.559 6.618,3.647 14.195,2.923c11.762,-1.123 15.639,12.389 33.628,9.174c4.612,-0.824 21.892,4.397 29.56,8.254c4.177,2.101 4.323,1.158 11.62,1.763c6.416,0.531 5.28,4.153 11.7,4.465c1.316,0.064 2.641,-0.075 3.952,0.06c4.871,0.499 7.759,8.261 13.838,9.089c7.223,0.984 6.7,2.398 13.726,4.657c6.646,2.137 7.409,0.632 12.365,5.471c6.934,6.769 22.293,8.739 26.742,12.587c7.566,6.543 6.937,7.213 15.58,12.139c8.301,4.731 8.858,10.171 13.856,11.766c4.856,1.55 9.348,2.984 46.844,43.197c2.281,2.446 4.166,8.053 4.969,9.023c12.631,15.254 8.496,18.282 22.795,32.098c3.576,3.455 2.414,8.683 3.4,11.793c2.808,8.86 7.922,6.344 13.024,25.165c1.964,7.245 4.329,6.474 4.736,13.887c0.271,4.944 9.927,16.338 9.699,25.541c-0.257,10.339 0.952,10.035 4.016,19.867c0.977,3.136 0.496,3.103 0.543,41.058c0.073,59.307 0.367,59.696 -3.41,66.967c-1.009,1.943 -1.579,12.971 -2.721,15.397c-7.257,15.412 -0.926,17.326 -5.966,25.421c-3.87,6.215 -0.888,10.594 -3.078,16.187c-5.369,13.714 -4.245,14.101 -4.947,15.167c-5.826,8.85 -4.942,9.307 -5.46,10.062c-6.254,9.128 -4.451,9.994 -10.025,19.568c-4.666,8.014 -0.485,10.081 -6.065,15.263c-7.265,6.747 -21.75,38.543 -29.944,48.624c-13.215,16.26 -12.021,16.996 -13.32,18.254c-8.107,7.849 -5.943,9.755 -14.809,16.726c-2.514,1.976 -4.47,7.075 -8.479,11.136c-32.123,32.542 -33.238,31.305 -39.118,33.326c-9.248,3.179 -9.839,7.493 -13.994,9.525c-54.06,26.443 -53.28,28.442 -58.469,29.028c-8.836,0.996 -8.226,2.542 -16.157,6.25c-14.96,6.995 -15.633,5 -16.906,5.641c-14.06,7.076 -18.656,-1.305 -27.431,3.967c-7.852,4.718 -12.316,3.371 -26.099,3.015c-10.271,-0.265 -21.963,8.69 -29.613,4.123c-16.526,-9.866 -19.917,2.021 -36.614,-7.099c-8.455,-4.618 -19.252,1.016 -25.879,-3.36c-9.63,-6.359 -16.79,-0.652 -25.676,-3.959c-12.407,-4.618 -12.66,-3.538 -13.712,-3.983c-7.752,-3.276 -7.517,-4.221 -15.934,-4.282c-8.001,-0.057 -11.821,-12.423 -19.075,-8.141c-5.649,3.334 -5.738,-0.889 -12.316,-1.401c-13.114,-1.021 -8.584,-15.122 -15.577,-12.654c-4.48,1.581 -5.03,2.36 -9.048,-1.515c-5.801,-5.594 -6.646,-3.712 -14.806,-4.095c-7.728,-0.362 -9.115,-10.016 -21.517,-14.623c-7.331,-2.723 -4.122,-7.516 -19.336,-14.539c-6.015,-2.777 -7.219,-10.93 -10.442,-12.455c-17.583,-8.322 -21.212,-22.781 -23.859,-25.569c-9.369,-9.865 -9.644,-9.72 -14.859,-22.24c-2.457,-5.9 -8.513,-8.488 -9.458,-13.753c-1.68,-9.358 -2.902,-8.786 -6.438,-17.616c-3.768,-9.409 -3.554,-9.435 -3.234,-23.51c0.147,-6.484 5.818,-5.462 7.289,-7.641c3.758,-5.564 3.107,-8.847 15.405,-7.439c4.944,0.566 13.449,9.349 14.821,13.369c2.401,7.034 3.335,6.324 8.902,11.452c26.469,24.378 24.684,26.099 27.306,27.785c18.245,11.73 23.689,14.154 25.88,15.13c14.768,6.577 11.378,13.606 27.376,15.705c5.293,0.694 9.139,4.49 13.647,4.981c9.759,1.062 8.904,3.485 13.948,4.683c7.45,1.77 8.186,-1.227 16.109,3.67c4.748,2.935 35.745,1.092 39.114,-0.362c14.534,-6.274 17.008,-0.399 29.382,-10.3c11.123,-8.9 21.746,-11.31 23.73,-15.856c2.025,-4.639 2.843,-3.781 7.313,-6.361c10.502,-6.062 5.68,-10.695 15.155,-18.274c2.417,-1.933 23.556,-38.424 23.726,-40.455c1.189,-14.164 7.059,-14.12 9.12,-21.346c2.092,-7.334 1.094,-7.572 4.51,-14.302c3.047,-6.004 -0.494,-12.934 2.496,-19.395c8.018,-17.324 -0.91,-19.385 6.479,-37.102c2.923,-7.007 2.554,-44.702 -0.386,-49.281c-4.463,-6.954 -2.61,-14.659 -2.594,-19.624c0.044,-13.783 -8.573,-11.608 -9.302,-27.541c-0.436,-9.537 -9.091,-19.288 -9.611,-23.604c-1.818,-15.081 -7.533,-13.243 -9.007,-23.672c-1.77,-12.524 -9.038,-9.721 -9.781,-19.579c-1.043,-13.834 -11.588,-12.904 -13.432,-21.399c-2.329,-10.729 -3.168,-10.447 -10.913,-18.095c-5.078,-5.015 -1.772,-8.007 -8.362,-10.804c-6.985,-2.966 -3.589,-6.342 -11.868,-14.157c-23.697,-22.368 -60.362,-61.375 -68.54,-67.031c-17.792,-12.306 -16.002,-14.219 -32.156,-28.782c-11.784,-10.623 -14.782,-7.175 -17.253,-12.443c-0.993,-2.116 -5.582,-11.898 -18.114,-22.929c-7.586,-6.678 -4.695,-8.742 -9.559,-14.158c-3.391,-3.776 -5.927,-2.868 -15.636,-21.858c-7.146,-13.978 -8.959,-12.679 -9.546,-13.893c-4.605,-9.528 -8.36,-7.531 -9.846,-15.776c-1.662,-9.224 -2.266,-8.944 -6.366,-17.42c-5.115,-10.573 -1.256,-11.869 -6.983,-22.046c-2.61,-4.637 0.94,-8.55 -3.076,-17.108c-4.254,-9.066 -2.303,-9.42 -2.249,-16.17c0.157,-19.639 -7.392,-20.689 -4.25,-37.265c2.754,-14.526 0.891,-14.697 1.427,-15.851c7.248,-15.602 -1.273,-24.467 3.606,-35.515c4.127,-9.346 2.258,-9.691 3.574,-19.593c1.492,-11.226 8.24,-9.277 9.844,-29.452c0.239,-3.004 7.113,-10.306 13.539,-23.892c12.471,-26.368 31.147,-41.562 32.442,-44.79c2.164,-5.394 2.531,-5.282 7.884,-7.773c4.953,-2.305 5.83,-9.122 9.905,-11.661c6.592,-4.106 6.322,-4.29 12.054,-9.606c12.076,-11.199 15.004,-6.704 27.773,-17.353c16.487,-13.749 29.961,-14.606 34.158,-17.346c11.248,-7.342 13.4,-0.393 25.649,-6.017c26.674,-12.247 28.037,-5.518 57.356,-7.623c4.187,-0.301 6.846,-6.971 13.23,-2.38c7.896,5.679 13.457,0.643 20.122,3.511c8.528,3.67 8.489,4.016 17.844,3.567c10.31,-0.496 9.275,4.707 19.67,5.007c3.639,0.105 45.4,15.84 46.784,17.003c8.276,6.962 23.797,15.942 25.953,17.189c8.298,4.801 30.333,43.235 30.499,43.647c10.718,26.647 9.066,27.26 10.422,29.35c5.062,7.801 -0.229,9.418 4.092,17.559c8.663,16.32 -0.588,19.094 6.265,31.224c0.69,1.221 6.168,10.917 -0.498,17.527c-9.991,9.907 -9.354,10.41 -10.303,11.169c-1.668,1.333 -18.657,5.375 -19.048,5.246c-11.967,-3.941 -12.162,-2.797 -13.129,-3.283c-13.006,-6.536 -18.889,-10.371 -21.375,-26.722c-0.345,-2.271 -22.112,-47.526 -24.744,-50.61c-9.319,-10.921 -6.612,-12.812 -13.765,-19.543c-17.871,-16.819 -17.231,-17.4 -19.194,-18.189c-6.645,-2.671 -5.966,-3.629 -11.774,-7.874c-6.931,-5.066 -7.798,-3.695 -14.093,-9.445c-5.837,-5.33 -20.054,-1.611 -25.48,-3.713c-15.774,-6.113 -16.179,-3.804 -33.174,-3.446Z"/><g><path d="M1549.115,2292.031c-3.488,1.003 -3.54,0.868 -3.767,1.083c-0.475,0.45 0.55,1.512 0.075,1.962c-18.737,-29.28 -22.69,-25.464 -29.615,-27.424c-25.467,-7.208 -16.857,-24.095 -40.474,-42.107c-5.558,-4.239 -4.741,-7.21 -2.794,-6.469c0.827,0.314 1.268,1.308 2.09,1.634c2.187,0.868 8.998,-6.237 8.754,-0.305c-0.037,0.901 -3.139,4.154 1.055,5.754c11.403,4.35 6.804,11.291 25.454,19.869c3.912,1.799 -0.067,5.72 19.181,22.223c10.846,9.299 13.33,13.818 14.132,15.277c3.824,6.956 3.736,6.94 4.116,7.51c0.379,0.568 1.414,0.423 1.793,0.991Z" style="fill:#dcd633;"/><path d="M599.06,2147.674c-0.331,-10.64 -0.435,-10.673 -0.09,-11.529c1.112,-2.758 4.086,-2.422 4.747,-0.171c1.277,4.346 1.183,4.255 3.758,8.011c4.886,7.128 5.976,19.616 6.131,21.389c0.337,3.857 2.945,5.542 3.724,7.968c2.224,6.928 0.718,7.34 4.297,13.621c5.564,9.763 -6.75,17.919 -7.85,7.877c-0.909,-8.299 -1.951,-7.883 -7.336,-14.215c-3.063,-3.602 6.471,-13.008 -0.733,-18.99c-6.426,-5.336 -6.188,-5.868 -6.649,-13.96Z" style="fill:#e4de35;"/><path d="M1384.126,2146.841c-11.543,-0.375 -10.984,-8.486 -18.089,-12.236c-8.542,-4.509 -19.972,-6.736 -17.516,-16.491c3.314,-13.165 5.343,5.892 25.909,13.573c8.055,3.008 12.263,10.288 17.553,10.593c2.603,0.15 5.215,0.053 7.819,0.177c12.603,0.601 -4.007,20.334 -8.178,11.351c-2.347,-5.056 -1.977,-5.939 -7.499,-6.966Z" style="fill:#e4de35;"/><path d="M1609.9,2321.244c-1.637,-1.431 -19.684,-18.991 -20.707,-20.636c-1.42,-2.284 -0.959,-6.706 -6.8,-11.064c-9.27,-6.916 -9.038,-7.294 -12.96,-18.121c-0.159,-0.439 -7.57,-6.798 -2.49,-7.147c1.583,-0.109 4.053,3.922 5.875,4.663c0.642,0.261 1.386,0.158 2.046,0.369c3.766,1.206 3.542,7.361 5.72,8.265c7.294,3.028 5.917,4.617 10.718,10.963c2.415,3.191 6.318,5.228 10.493,12.707c5.395,9.664 7.626,8.527 10.353,19.341l-2.248,0.659Z" style="fill:#e3dd35;"/><path d="M512.616,1990.507c0.68,7.925 0.561,7.855 3.717,15.275c2.879,6.767 -0.66,13.57 -3.629,6.831c-3.495,-7.935 -4.649,-7.579 -4.944,-16.279c-0.207,-6.108 -14.976,-28.887 -9.439,-34.856c3.491,-3.763 9.017,12.64 9.121,13.275c1.354,8.247 3.196,7.547 5.173,15.755Z" style="fill:#e4de35;"/><path d="M1447.314,2294.776c-0.738,-0.694 -7.689,-7.235 -8.604,-9.286c-5.289,-11.847 -5.821,-12.597 -4.186,-14.577c4.067,-4.927 7.369,2.337 7.64,2.933c4.869,10.709 9.275,7.604 13.88,17.628c5.026,10.943 5.719,10.729 5.446,11.727c-1.306,4.772 -10.27,-4.795 -14.176,-8.425Z" style="fill:#e4de35;"/><path d="M555.657,2263.637c-0.917,-12.647 -7.273,-11.796 -4.738,-21.595c1.822,-7.044 5.882,3.365 9.022,10.079c0.868,1.856 0.899,6.484 2.324,9.732c3.734,8.512 2.064,9.04 6.71,17.234c3.701,6.528 0.242,19.697 -2.672,10.258c-4.973,-16.112 -9.876,-14.694 -10.647,-25.708Z" style="fill:#e4de35;"/><path d="M1500.177,1793.816c-7.34,-4.298 -11.325,-4.423 -16.147,-0.221c-2.577,2.246 -2.832,0.647 -5.652,-1.374c-4.002,-2.869 -23.388,-0.401 -24.945,-2.615c-3.68,-5.234 22.116,-4.699 26.797,-1.333c3.522,2.532 4.927,-1.788 8.108,-2.129c1.104,-0.118 19.664,-0.459 19.681,-0.456c5.467,0.792 7.245,14.175 -7.842,8.128Z" style="fill:#d4ce32;"/><path d="M373.363,1850.892c-0.486,0.523 -0.381,0.36 -3.338,1.981c-4.349,-9.434 -0.59,-10.487 -5.341,-19.9c-3.62,-7.172 2.778,-13.981 -3.998,-27.529c-2.302,-4.602 6.348,-7.5 7.753,2.181c1.058,7.291 4.64,7.214 1.614,13.813c-3.13,6.827 3.414,10.937 3.352,17.663c-0.055,5.976 -0.021,5.787 -0.042,11.791Z" style="fill:#e1db35;"/><path d="M1538.61,2316.984c-9.407,-29.951 16.289,14.508 20.628,19.213c11.569,12.541 0.024,12.335 -0.246,12.258c-2.357,-0.67 -8.111,-12.471 -8.677,-13.633c-4.754,-9.752 -7.531,-7.956 -11.705,-17.838Z" style="fill:#e4de35;"/><path d="M546.05,2312.786c-0.097,12.868 0.544,13.309 -0.77,14.085c-0.784,0.462 -2.954,1.743 -7.589,-8.47c-0.532,-1.172 1.35,-1.679 -4.782,-15.364c-3.21,-7.166 0.032,-19.842 3.47,-13.335c8.684,16.438 9.377,21.104 9.671,23.084Z" style="fill:#e5df36;"/><path d="M1486.54,2268.907c4.295,3.831 4.725,3.419 7.096,8.721c1.6,3.578 22.599,31.883 16.265,32.441c-1.552,0.137 -9.458,-9.101 -10.283,-10.811c-6.473,-13.424 -12.541,-14.939 -15.617,-27.823c0.846,-0.843 1.693,-1.686 2.539,-2.528Z" style="fill:#dcd634;"/><path d="M657.325,2426.981c0.688,0.051 1.21,-0.879 1.898,-0.827c4.692,0.351 -1.024,4.427 5.796,16.201c2.135,3.686 0.231,8.656 2.526,11.401c0.707,0.846 7.824,9.36 2.539,13.551c-4.705,3.731 -1.087,-3.58 -7.24,-11.047c-1.516,-1.84 -10.275,-12.469 -5.518,-29.279Z" style="fill:#e1db35;"/><path d="M555.867,1945.22c-0.693,5.661 2.271,9.446 -3.152,8.072c-0.749,-0.19 -6.104,-10.119 -6.52,-13.847c-0.956,-8.582 -0.097,-8.807 -4.248,-16.296c-3.071,-5.541 8.326,-10.204 9.05,0.464c0.62,9.13 0.529,8.986 0.744,9.411c3.003,5.944 3.449,5.698 4.126,12.196Z" style="fill:#e3dd35;"/><path d="M445.591,1960.896c-0.042,0.481 -1.026,11.688 -5.511,2.461c-4.151,-8.54 -3.949,-8.567 -4.628,-18.191c-0.108,-1.523 -8.12,-13.811 -2.536,-13.75c0.921,0.01 14.836,9.706 10.894,17.273c-3.039,5.834 -0.195,5.893 1.781,12.207Z" style="fill:#e3dd35;"/><path d="M1411.64,2184.815c3.39,0.032 3.531,-0.631 5.55,0.78c4.768,3.331 12.664,12.31 13.678,13.463c1.652,1.879 -0.685,7.1 -10.965,2.779c-12.894,-5.419 -10.251,-9.311 -10.551,-12.896c0.763,-1.375 1.525,-2.751 2.288,-4.126Z" style="fill:#e5df36;"/><path d="M396.188,1852.648c-4.382,-8.454 -4.335,-10.561 -4.313,-11.547c0.26,-11.675 7.081,2.649 9.912,5.553c5.261,5.396 1.197,6.949 3.968,13.919c5.026,12.645 -3.057,10.167 -3.398,9.44c-3.964,-8.457 -4.467,-8.204 -6.169,-17.365Z" style="fill:#e4de35;"/><path d="M1681.817,2686.363c2.863,-5.641 11.328,-24.073 18.661,-23.016c7.797,1.124 -4.06,7.481 -4.773,14.857c-0.586,6.064 -1.057,6.338 -6.528,8.875c-1.131,0.524 -3.885,3.126 -4.261,3.204c-3.041,0.625 -2.216,-0.997 -3.099,-3.92Z" style="fill:#e4de35;"/><path d="M1576.139,2362.201c10.156,21 11.609,21.399 9.962,22.474c-7.277,4.751 -30.121,-48.013 -18.774,-35.474c5.307,5.864 4.889,5.984 8.811,13Z" style="fill:#ded834;"/><path d="M528.773,1933.351c-1.296,0.884 -2.593,1.768 -3.889,2.652c-5.715,-7.29 -1.246,-23.66 -4.173,-27.67c-0.658,-0.902 -6.636,-9.093 -2.702,-13.694c3.922,-4.588 5.021,8.821 5.265,9.345c3.895,8.348 1.99,8.784 4.153,17.621c1.429,5.838 2.408,5.734 1.345,11.745Z" style="fill:#e0da35;"/><path d="M851.941,2601.929c-5.354,9.28 -2.385,22.506 -7.4,12.949c-4.205,-8.015 1.689,-16.416 2.505,-17.579c2.515,-3.584 -0.13,-27.053 5.823,-20.562c0.434,0.473 3.415,17.259 -0.928,25.192Z" style="fill:#dfd934;"/><path d="M632.485,2574.055c0.662,12.433 9.323,19.35 0.902,19.357c-0.622,0.001 -4.814,0.004 -5.447,-5.541c-1.033,-9.038 0.923,-9.991 -5.452,-16.531c-3.723,-3.819 -2.229,-5.921 3.022,-6.215c9.237,-0.517 6.879,7.088 6.974,8.931Z" style="fill:#e4de35;"/><path d="M581.763,2318.923c7.151,13.819 -0.195,13.571 -1.042,12.966c-1.411,-1.007 -0.237,-1.773 -9.833,-19.316c-2.85,-5.209 -0.863,-18.89 3.176,-11.411c0.489,0.906 0.786,5.891 3.014,9.124c2.852,4.139 2.569,4.174 4.685,8.637Z" style="fill:#e2dc35;"/><path d="M654.796,2417.22c-2.594,1.142 -2.573,0.98 -3.396,1.702c-4.587,-9.921 -9.221,-14.648 -9.367,-21.653c-0.198,-9.459 2.031,-10.201 -2.062,-14.293c-3.302,-3.301 0.088,-6.771 2.927,-3.18c4.824,6.102 3.168,17.33 11.899,37.424Z" style="fill:#d7d132;"/><path d="M1630.676,2524.986c-1.054,18.351 -9.472,7.022 -9.655,6.126c-0.58,-2.835 -1.417,-23.082 2.623,-21.051c4.712,2.369 6.792,13.627 7.032,14.925Z" style="fill:#e5df36;"/><path d="M1597.126,2513.236c0.37,-5.848 0.257,-5.83 0.4,-6.316c0.144,-0.487 4.51,-4.905 4.623,4.348c0.367,30.012 0.512,30.338 -1.219,32.253c-5.462,6.042 -3.824,-21.448 -3.804,-30.285Z" style="fill:#e5df36;"/><path d="M528.773,1933.351c5.915,15.88 3.924,16.372 4.717,17.595c2.833,4.371 -3.122,5.171 -0.696,8.018c7.905,9.277 -3.42,1.37 -3.444,1.362c-1.369,-0.463 -2.833,-0.615 -4.192,-1.108c-4.818,-1.75 5.649,-7.476 -0.274,-23.215c1.296,-0.884 2.593,-1.768 3.889,-2.652Z" style="fill:#dad533;"/><path d="M904.802,2228.601c0.882,0.576 0.876,-0.86 1.775,-0.273c0.776,0.506 -0.478,0.861 0.261,1.602c0.391,0.391 1.241,-0.097 1.632,0.294c-2.915,28.676 -2.526,28.774 -3.741,31.611l-3.561,-2.094c1.017,-23.976 -1.449,-24.789 3.633,-31.14Z" style="fill:#e4de35;"/><path d="M1588.03,2224.335c-3.186,2.367 -3.161,2.195 -3.419,2.409c-1.215,-0.298 -22.078,-5.407 -9.785,-12.201c2.053,-1.135 4.621,-1.901 7.775,-1.58c6.713,0.682 5.253,9.237 5.429,11.373Z" style="fill:#e5df36;"/><path d="M434.73,1845.125c-1.656,-3.833 -1.193,-3.846 -1.011,-8.01c0.078,-1.79 -3.996,-7.134 -1.141,-10.108c6.99,-7.28 7.721,9.585 9.852,12.364c3.202,4.173 -2.14,11.842 -7.7,5.753Z" style="fill:#e2dc35;"/><path d="M778.738,2541.636c2.876,1.63 2.964,1.357 5.16,3.816c6.707,7.512 -0.081,39.676 -2.557,14.823c-0.673,-6.752 -6.097,-5.739 -4.173,-17.367l1.57,-1.272Z" style="fill:#e4de35;"/><path d="M709.136,2361.96c0.926,6.586 0.444,6.683 3.977,12.238c3.612,5.68 -3.578,9.208 -7.278,1.605c-0.502,-1.032 0.235,-1.218 -3.993,-13.778c-0.955,-2.836 2.162,-5.378 2.549,-5.693c4.093,-3.339 3.892,0.432 4.745,5.629Z" style="fill:#e4de35;"/><path d="M382.887,1898.02c-4.23,23.015 -15.146,-13.534 -6.973,-13.833c5.742,-0.21 6.865,12.598 6.973,13.833Z" style="fill:#e5df36;"/><path d="M359.243,1868.772c4.488,9.807 10.368,10.259 8.357,15.38c-1.601,4.075 -3.062,4.001 -1.555,8.029c2.85,7.617 -6.689,0.63 -7.052,-4.058c-0.753,-9.74 0.581,-10.045 -2.743,-15.57c0.906,-0.612 1.049,0.372 2.012,-0.278c0.241,-0.163 0.073,-0.259 0.98,-3.502Z" style="fill:#ded934;"/><path d="M468.989,1951.066c-0.489,-2.012 -9.042,-19.453 0.859,-12.993c4.341,2.832 4.915,1.689 6.265,3.277c0.213,0.251 -1.809,15.591 -4.136,16.776c-0.547,0.278 -1.843,0.607 -2.988,-7.06Z" style="fill:#e4de35;"/><path d="M1659.529,2325.856c11.609,10.767 -5.487,15.931 -4.405,10.471c0.38,-1.92 4.352,-3.197 -2.181,-9.597c-7.765,-7.607 -2.334,-10.928 -0.18,-9.277c0.365,0.28 0.224,0.367 2.382,5.233c1.102,2.484 1.622,1.817 4.385,3.17Z" style="fill:#dbd533;"/><path d="M920.128,2295.539c-3.382,-2.751 -7.3,-4.484 0.691,-11.603c5.655,-5.038 3.7,1.731 4.781,9.196c0.28,1.934 5.56,2.929 4.619,7.865c-1.498,7.858 -3.328,-1.286 -10.09,-5.458Z" style="fill:#d8d333;"/><path d="M1313.007,2118.414c0.261,0.582 4.629,10.311 -1.653,7.803c-5.561,-2.22 -4.509,-12.517 -7.893,-17.693c-5.816,-8.897 2,-6.647 2.241,-6.187c0.655,1.252 0.256,1.417 7.305,16.077Z" style="fill:#dfd934;"/><path d="M950.169,2163.713c5.145,-5.107 4.842,-6.377 7.243,-5.605c5.823,1.872 -3.284,5.017 0.157,13.198c2.85,6.777 -16.402,3.916 -7.399,-7.593Z" style="fill:#e5df36;"/><path d="M608.539,2067.121c3.337,-15.938 4.736,3.917 6.687,6.119c3.853,4.349 3.645,12.236 2.517,13.567c-4.539,5.357 -3.959,-6.996 -6.481,-11.146c-2.415,-3.975 -2.037,-3.981 -2.723,-8.54Z" style="fill:#dad533;"/><path d="M1728.875,2517.17c-2.425,17.794 -9.402,4.885 -9.536,4.067c-1.075,-6.566 8.234,-21.375 9.536,-4.067Z" style="fill:#e5df36;"/><path d="M502.512,2383.503c-1.289,-6.577 -6.746,-12.611 -4.046,-17.359c3.815,-6.708 5.423,9.192 5.579,9.435c0.651,1.012 7.967,12.39 1.508,14.961c-3.946,1.571 -2.144,-1.545 -3.041,-7.037Z" style="fill:#dcd633;"/><path d="M609.082,1984.783c-0.717,-3.859 -0.76,-3.829 -0.774,-4.167c-0.705,-16.87 14.189,11.517 9.175,15.519c-3.4,2.713 -7.135,-8.677 -8.4,-11.351Z" style="fill:#e5df36;"/><path d="M665.932,2314.902c-0.004,0.643 -0.075,13.772 -6.202,5.11c-3.196,-4.519 -8.26,-9.305 -2.427,-12.522c4.453,-2.455 8.274,6.574 8.629,7.412Z" style="fill:#e4de35;"/><path d="M911.852,2204.541c-0.047,1.107 -0.699,16.45 -4.495,13.099c-2.55,-2.25 -0.974,-27.045 5.744,-21.719c1.643,1.303 1.028,1.753 -1.249,8.62Z" style="fill:#ddd734;"/><path d="M1299.526,1921.591c2.073,-5.303 1.985,-5.306 2.239,-5.727c3.492,-5.794 7.197,4.578 1.549,11.467c-0.557,0.679 -5.108,6.23 -7.775,7.744c-9.494,5.39 -0.737,-3.684 3.987,-13.484Z" style="fill:#dfd934;"/><path d="M565.455,2147.613c-0.004,0.65 -0.071,10.596 -3.993,7.076c-1.261,-1.132 -1.001,-6.505 -2.506,-9.098c-6.785,-11.693 -1.151,-11.92 -0.225,-11.755c0.212,0.038 5.551,9.918 6.724,13.777Z" style="fill:#d4ce32;"/><path d="M925.42,2179.183c0.094,-0.84 1.373,-12.291 7.903,-7.008c6.077,4.917 -3.205,22.369 -7.903,7.008Z" style="fill:#e5df36;"/><path d="M1598.257,2477.909c-0.412,-3.447 -1.505,-3.729 0.373,-5.715c7.494,-7.925 11.27,15.225 5.636,15.222c-1.814,-0.001 -3.927,-5.242 -6.01,-9.507Z" style="fill:#e5df36;"/><path d="M925.49,2226.414c0.001,-1.198 0.017,-14.126 1.348,-14.917c5.979,-3.556 1.097,9.821 6.559,17.159c0.25,0.336 0.957,6.385 -5.153,0.891l-2.755,-3.132Z" style="fill:#d6d132;"/><path d="M1690.998,2715.679c1.9,-6.784 2.845,-6.173 8.03,-11.092c0.31,-0.294 8.526,-8.088 5.294,-0.743c-4.34,9.866 -10.291,14.97 -11.487,15.996c-0.612,-1.387 -1.224,-2.774 -1.837,-4.161Z" style="fill:#dbd533;"/><path d="M1687.046,2294.866c-0.006,-0.008 -3.031,-2.931 -3.818,-5.768c-3.327,-11.984 12.656,2.97 12.43,8.09c-0.295,6.701 -8.128,-1.797 -8.612,-2.322Z" style="fill:#e5df36;"/><path d="M930.327,2259.641c0.56,-11.21 -1.355,-12.07 2.289,-15.042c3.331,-2.717 10.32,-0.892 4.551,8.63c-0.517,0.854 -0.501,0.774 -4.898,6.853l-1.942,-0.442Z" style="fill:#e5df36;"/><path d="M682.325,2559.621c-7.874,1.471 -11.563,2.602 -11.285,-0.937c0.025,-0.324 5.215,-1.716 5.724,-4.134c0.955,-4.533 3.346,-0.631 7.628,-2.269c0.367,-0.14 11.222,-2.704 2.228,4.373c-2.069,1.628 -2.047,1.414 -4.295,2.967Z" style="fill:#d2cc31;"/><path d="M1675.292,2575.095c-0.415,-0.436 -1.294,1.022 -1.709,0.586c-4.101,-4.308 1.811,-41.996 3.612,-15.315c0.074,1.091 -0.042,1.011 -0.571,13.651l-1.331,1.079Z" style="fill:#d9d433;"/><path d="M888.699,2652.656c-0.167,0.62 -0.541,1.173 -0.709,1.793c-0.214,0.794 -0.107,12.344 -4.624,9.561c-3.715,-2.289 0.125,-22.448 6.943,-16.497c1.846,1.612 -1.557,5.082 -1.61,5.143Z" style="fill:#dfd934;"/><path d="M901.169,2259.741l3.561,2.094c-1.997,2.762 -1.749,3.305 -1.619,3.592c0.219,0.482 3.582,2.455 1.613,6.163c-3.846,7.242 -3.348,7.518 -3.944,7.897c-7.3,4.636 -0.189,-10.344 -0.879,-11.355c-2.782,-4.073 -1.197,-4.356 1.268,-8.39Z" style="fill:#d6d032;"/><path d="M362.087,1787.032c-18.257,0.052 10.579,-15.557 9.53,-6.951c-0.49,4.021 -8.632,6.66 -9.53,6.951Z" style="fill:#e3dd35;"/><path d="M1486.54,2268.907c-0.846,0.843 -1.693,1.686 -2.539,2.528c-5.938,-11.479 -16.122,-20.361 -11.292,-20.917c2.778,-0.32 8.795,8.812 9.389,9.715c2.754,4.18 2.992,3.982 4.442,8.674Z" style="fill:#b1ac29;"/><path d="M661.273,2591.86c0.713,-0.372 0.887,-1.435 1.6,-1.807c1.577,-0.822 7.305,3.401 6.245,7.797c-0.875,3.63 -1.109,3.694 0.854,6.723c-0.312,0.068 -3.905,0.851 -3.905,0.851c-0.507,0.534 0.59,1.673 0.084,2.208c-0.13,-0.281 -1.622,-3.518 -1.622,-3.518c-4.263,-6.503 -2.551,-6.964 -3.255,-12.254Z" style="fill:#d9d433;"/><path d="M1531.78,2234.132c-1.735,2.029 -1.702,1.956 -4.274,2.83c-8.421,-1.867 -8.246,-2.451 -8.254,-2.481c-0.088,-0.304 -0.654,-2.256 0.958,-3.844c6.221,-6.129 9.708,-5.137 11.57,3.495Z" style="fill:#e5df36;"/><path d="M1707.88,2648.408c0.363,-0.374 4.942,-5.102 6.349,-1.471c0.891,2.3 0.621,6.018 0.042,7.777c-1.621,4.919 -12.957,4.343 -6.39,-6.306Z" style="fill:#e5df36;"/><path d="M1295.296,1952.846c-0.404,0.521 -9.244,11.904 -8.052,-1.758c0.588,-6.743 11.004,-8.781 8.052,1.758Z" style="fill:#e5df36;"/><path d="M1719.104,2710.103c1.655,-3.267 1.024,-3.821 2.956,-4.538c7.025,-2.604 3.726,9.117 0.18,12.119c-0.501,0.424 -7.989,3.331 -3.136,-7.581Z" style="fill:#e4de35;"/><path d="M1655.338,2259.794c-0.662,1.279 -1.323,2.557 -1.985,3.836c-5.284,-6.406 -5.223,-6.285 -10.989,-12.418c-3.125,-3.323 -0.843,-7.253 2.175,-3.851c5.556,6.263 7.121,4.927 10.8,12.432Z" style="fill:#918d22;"/><path d="M565.119,2053.299c-2.135,-9.454 -4.005,-8.826 -3.832,-9.637c1.35,-6.343 12.409,7.84 8.198,14.474c-2.917,4.596 -4.287,-4.321 -4.366,-4.836Z" style="fill:#d2cc31;"/><path d="M595.899,2027.641c2.887,1.529 2.874,1.394 3.852,2.211c0.963,1.15 0.828,1.049 1.864,2.226c3.803,4.322 2.404,11.514 0.174,12.528c-2.987,1.359 -3.238,-7.687 -3.797,-8.951c-1.719,-3.889 -2.449,-3.669 -2.092,-8.015Z" style="fill:#e5df36;"/><path d="M1549.115,2292.031c4.876,1.575 5.134,1.879 6.135,6.97c-2.227,3.631 -1.835,3.778 -2.065,4.061c-6.04,-1.607 -6.569,-1.896 -7.763,-7.985c0.475,-0.45 -0.55,-1.512 -0.075,-1.962c0.228,-0.216 0.279,-0.08 3.767,-1.083Z" style="fill:#e5df36;"/><path d="M778.738,2541.636l-1.57,1.272c-0.578,-0.947 -1.994,-1.165 -2.572,-2.111c-5.98,-9.803 -0.531,-25.338 1.762,-15.626c1.756,7.436 -1.617,8.027 2.379,16.465Z" style="fill:#bfba2d;"/><path d="M911.213,2342.245c0.362,-4.667 -1.13,-7.366 3.411,-6.281c1.069,0.255 1.715,5.762 1.775,6.281c0.485,4.137 5.334,9.751 2.064,10.063c-5.336,0.509 -7.074,-9.086 -7.251,-10.062Z" style="fill:#d3ce31;"/><path d="M1411.64,2184.815c-0.763,1.375 -1.525,2.751 -2.288,4.126c-0.804,-1.029 -0.927,-2.485 -1.731,-3.514c-0.354,-0.453 -9.439,-1.887 -6.838,-7.79c0.733,-1.663 6.427,-4.26 8.365,1.611c0.971,2.943 0.822,2.817 2.493,5.567Z" style="fill:#ddd834;"/><path d="M1307.627,2151.256c8.568,6.609 6.852,7.907 7.834,10.169c-0.475,0.609 0.722,1.829 -3.618,3.143c-4.701,-4.531 -4.175,-4.849 -6.423,-10.994l2.207,-2.319Z" style="fill:#e5df36;"/><path d="M1564.096,2517.163c0.03,-0.496 0.37,-6.205 0.37,-6.205c3.214,-8.687 7.142,10.911 4.141,13.769c-3.732,3.554 -4.462,-6.861 -4.511,-7.564Z" style="fill:#d3cd31;"/><path d="M1655.338,2259.794c0.946,0.785 13.862,11.505 9.902,11.759c-9.299,0.598 -11.555,-6.83 -11.887,-7.923c0.662,-1.279 1.323,-2.557 1.985,-3.836Z" style="fill:#ddd734;"/><path d="M659.009,2589.457c-7.3,-0.892 -16.096,-1.578 -7.763,-7.201c5.287,-3.568 10.175,4.394 9.547,5.658c-0.35,0.704 -1.435,0.839 -1.784,1.543Z" style="fill:#e5df36;"/><path d="M686.402,2147.132c1.336,0.835 2.672,1.67 4.008,2.505c-0.015,0.736 -0.415,19.878 -5.179,7.606c-2.287,-5.891 -4.88,-7.969 1.17,-10.111Z" style="fill:#e5df36;"/><path d="M805.35,2620.168c7.866,13.325 8.181,13.341 7.889,14.639c-0.218,0.97 -7.161,6.633 -8.175,-9.366c-0.201,-3.18 -1.403,-2.446 -2.497,-4.352c0.927,-0.307 1.855,-0.614 2.782,-0.921Z" style="fill:#c5c02e;"/><path d="M1630.519,2418.736c1.325,2.94 7.476,12.768 1.148,12.4c-1.387,-0.081 -12.661,-25.501 -1.148,-12.4Z" style="fill:#ada928;"/><path d="M595.899,2027.641c1.493,-2.792 2.787,-3.024 0.467,-6.108c-0.343,-0.456 -3.41,-4.534 -1.584,-6.954c3.137,-4.158 2.576,0.888 5.347,5.309c1.753,2.796 4.099,3.339 -0.378,9.965c-0.978,-0.817 -0.965,-0.682 -3.852,-2.211Z" style="fill:#aba728;"/><path d="M1609.9,2321.244l2.248,-0.659c0.911,0.493 8.89,4.813 8.27,9.966c-0.134,1.116 -5.026,6.2 -10.518,-9.307Z" style="fill:#e1db35;"/><path d="M428.331,1896.723c5.402,9.528 -0.462,8.824 -1.104,8.569c-5.961,-2.37 -9.953,-18.145 1.104,-8.569Z" style="fill:#e5df36;"/><path d="M1492.195,2803.084c12.98,3.632 3.426,8.381 2.364,7.92c-8.13,-3.526 -8.22,-4.126 -8.335,-4.891c-0.536,-3.571 5.686,-3.006 5.971,-3.029Z" style="fill:#e1dc35;"/><path d="M618.488,2556.279c-0.05,-0.737 -0.747,-10.987 2.714,-8.829c0.433,0.27 7.26,10.291 3.645,12.012c-3.74,1.78 -3.477,-0.13 -6.358,-3.184Z" style="fill:#e5df36;"/><path d="M639.084,2848.323c15.955,-2.779 15.915,1.645 41.436,1.69c-38.237,1.72 -38.253,-0.057 -41.436,-1.69Z" style="fill:#fffffb;fill-opacity:0.03;"/><path d="M692.393,2556.409c7.688,18.268 -0.438,18.353 -1.303,17.271c-3.85,-4.816 0.773,-15.99 1.303,-17.271Z" style="fill:#c8c32f;"/><path d="M698.715,2216.022c-0.284,-0.785 -1.309,-1.148 -1.593,-1.933c-0.234,-0.645 2.827,-8.847 8.196,2.53c0.22,0.466 4.029,4.118 2.71,5.705c-1.925,2.316 -2.158,0.079 -9.312,-6.302Z" style="fill:#b9b42b;"/><path d="M1552.776,2236.493c-0.138,-0.182 -1.719,-2.269 -1.719,-2.269c-1.93,-4.495 2.153,-8.611 7.313,-1.552c1.131,1.547 3.129,12.482 -5.594,3.822Z" style="fill:#ded834;"/><path d="M1661.79,2708.29c1.307,-0.426 0.606,-1.209 1.834,-1.61c0.156,-0.051 0.723,-0.236 2.02,0.353c6.316,2.867 -8.715,11.491 -10.583,11.251c-4.805,-0.617 4.038,-6.028 6.729,-9.995Z" style="fill:#b9b42b;"/><path d="M1608.134,2654.701c-0.189,0.505 -6.767,18.121 -6.423,2.038c0.013,-0.621 0.128,-5.97 2.908,-7.195c4.459,-1.964 5.279,0.55 3.515,5.157Z" style="fill:#dcd633;"/><path d="M669.972,2604.573c9.582,9.558 3.613,11.158 2.705,11.078c-3.413,-0.299 -6.217,-7.252 -6.526,-8.019c0.507,-0.534 -0.59,-1.673 -0.084,-2.208c0,0 3.592,-0.783 3.905,-0.851Z" style="fill:#ddd734;"/><path d="M353.865,1860.694l-1.539,1.323c-0.95,-0.371 -12.034,-4.7 -10.92,-6.589c1.176,-1.993 6.485,-1.242 7.051,-1.162c5.677,0.803 5.099,5.243 5.408,6.429Z" style="fill:#d6d032;"/><path d="M923.8,2261.93c-0.47,-1.348 -7.79,-22.344 0.379,-17.839c1.461,0.806 0.78,1.243 1.135,13.371c0.073,2.487 -0.744,2.195 -1.514,4.468Z" style="fill:#d0cb31;"/><path d="M1368.25,1842.849c3.769,-3.526 3.692,-3.573 4.07,-3.808c9.92,-6.177 -3.293,12.145 -7.826,11.897c-4.557,-0.249 3.236,-7.6 3.755,-8.089Z" style="fill:#9c9824;"/><path d="M1315.462,2161.425c0.508,0.923 0.407,0.856 5.856,11.793c1.756,3.526 2.896,3.86 1.318,4.931c-2.183,1.481 -7.555,-6.211 -7.634,-8.875c-0.09,-3.039 -0.658,-2.731 -3.158,-4.705c4.34,-1.314 3.143,-2.534 3.618,-3.143Z" style="fill:#9b9624;"/><path d="M1630.212,2773.144c0.532,-0.289 10.171,-5.515 7.428,1.457c-1.849,4.699 -17.513,9.047 -7.428,-1.457Z" style="fill:#e1db35;"/><path d="M1647.81,2535.155c0.769,-0.427 1.127,-1.409 1.896,-1.836c4.873,-2.708 5.812,12.77 -0.512,10.041c-4.915,-2.121 -4.117,-3.632 -1.384,-8.204Z" style="fill:#e0db35;"/><path d="M1576.431,2330.665c4.47,10.104 -3.127,5.937 -3.529,5.593c-0.495,-0.425 -4.329,-3.715 -3.252,-7.485c1.375,-4.814 3.144,-1.623 6.781,1.892Z" style="fill:#e3dd35;"/><path d="M426.851,1877.567c-5.285,-1.1 -7.283,-1.697 -4.792,-6.424c0.879,-1.669 5.082,-2.692 7.07,-0.724c3.356,3.323 1.231,3.955 -2.278,7.148Z" style="fill:#e5df36;"/><path d="M593.253,2344.886c2.417,9.346 -2.416,7.237 -2.904,6.891c-1.143,-0.813 -1.636,-5.364 -2.821,-6.798c-2.051,-2.484 -3.898,-2.851 -1.488,-4.928c1.303,-1.123 6.724,4.343 7.213,4.836Z" style="fill:#8a8720;"/><path d="M1555.77,2258.914c-4.456,-6.629 -5.961,-7.074 -4.103,-8.253c1.241,-0.787 1.179,-0.081 5.491,3.046c1.239,0.898 4.554,0.475 5.317,0.927c0.547,0.325 3.592,5.075 -6.705,4.28Z" style="fill:#75711b;"/><path d="M1386.38,1829.533c3.889,-1.144 4.637,-3.083 6.981,0.251c1.632,2.32 -1.208,3.088 -1.477,3.161c-7.896,2.137 -7.079,3.813 -7.769,3.899c-7.275,0.907 1.802,-6.911 2.265,-7.311Z" style="fill:#9c9824;"/><path d="M639.303,2175.159c-0.439,-1.11 -1.791,-1.452 -1.755,-7.813c0.091,-16.061 8.221,4.559 3.607,7.687c-0.512,0.347 -1.34,-0.222 -1.852,0.126Z" style="fill:#c6c12e;"/><path d="M1278.73,2082.865c1.446,-4.711 3.466,-5.454 6.417,-1.458c2.761,3.738 -5.893,12.431 -6.417,1.458Z" style="fill:#e1db35;"/><path d="M1588.03,2224.335c0.764,0.676 11.692,10.336 6.801,10.787c-1.59,0.147 -9.468,-7.635 -10.22,-8.378c0.258,-0.213 0.234,-0.042 3.419,-2.409Z" style="fill:#8b8720;"/><path d="M1307.627,2151.256l-2.207,2.319c-10.708,-6.773 -7.236,-11.57 -5.832,-11.159c2.994,0.876 7.527,8.033 8.039,8.84Z" style="fill:#86821f;"/><path d="M887.561,2611.625c0.38,-0.694 4.42,-8.077 6.896,-7.08c0.792,0.319 1.052,0.773 -2.562,10.362c-0.153,0.407 -3.91,5.103 -4.334,-3.282Z" style="fill:#bbb62c;"/><path d="M522.553,2033.707c-1.517,8.915 -4.967,4.4 -5.128,3.909c-1.59,-4.867 0.732,-8.772 0.895,-8.896c2.6,-1.993 4.114,4.477 4.233,4.987Z" style="fill:#dcd734;"/><path d="M438.77,1853.729c11.261,2.832 0.469,5.235 0.049,5.241c-0.541,0.007 -6.16,0.084 -6.457,-2.019c-0.654,-4.638 1.839,-2.9 6.407,-3.222Z" style="fill:#ded834;"/><path d="M623.347,2102.441c-0.161,0.411 -3.573,9.128 -5.209,1.822c-1.784,-7.97 3.928,-10.907 4.999,-5.584c0.059,0.295 0.016,0.279 0.209,3.762Z" style="fill:#e0da34;"/><path d="M910.936,2177.195c2.291,-7.131 4.514,-3.933 4.761,-3.528c1.58,2.588 0.554,6.737 0.414,7.306c-0.123,0.498 -4.531,6.14 -5.175,-3.778Z" style="fill:#e0db35;"/><path d="M493.574,1915.707c-4.446,11.954 -7.651,-5.749 -3.35,-7.063c3.194,-0.976 3.338,6.438 3.35,7.063Z" style="fill:#e1db35;"/><path d="M1621.152,2633.101c-2.719,11.498 -5.271,0.457 -5.3,0.034c-0.036,-0.536 -0.414,-6.128 2.089,-6.388c2.556,-0.265 3.155,5.787 3.211,6.354Z" style="fill:#dbd533;"/><path d="M1519.769,1819.054c-0.285,-0.033 -3.568,-0.418 -3.568,-0.418c-0.545,-0.192 -4.618,-5.18 5.489,-4.688c0.436,0.021 8.503,4.239 -1.921,5.106Z" style="fill:#e5df36;"/><path d="M921.116,2133.839c-0.04,0.57 -0.698,9.929 -4.334,5.682c-2.934,-3.426 1.403,-18.159 4.334,-5.682Z" style="fill:#d6d032;"/><path d="M1635.175,1892.131c-4.204,13.647 -7.671,-5.155 -3.409,-5.914c3.026,-0.539 3.376,5.369 3.409,5.914Z" style="fill:#e1db35;"/><path d="M511.4,1744.919c-3.69,-3.881 -3.098,-7.339 2.07,-5.943c4.622,1.248 5.655,12.467 -2.07,5.943Z" style="fill:#e1db35;"/><path d="M353.865,1860.694c2.386,4.243 2.904,3.722 5.378,8.079c-0.908,3.243 -0.739,3.34 -0.98,3.502c-0.963,0.65 -1.106,-0.334 -2.012,0.278c-0.391,-0.587 -4.034,-6.065 -4.351,-7.666c-0.188,-0.949 0.614,-1.922 0.426,-2.871l1.539,-1.323Z" style="fill:#a7a227;"/><path d="M652.993,2568.315c6.209,6.087 -5.503,7.933 -5.893,1.914c-0.284,-4.388 1.888,-3.606 5.893,-1.914Z" style="fill:#e3dd35;"/><path d="M719.753,2279.489c2.915,4.259 3.159,7.099 -1.936,6.349c-2.049,-0.301 -8.844,-9.997 1.936,-6.349Z" style="fill:#e1db35;"/><path d="M1682.884,2723.434c1.319,0.689 2.638,1.378 3.956,2.067c-0.514,0.579 -7.825,8.813 -8.95,3.669c-0.956,-4.371 0.87,-3.876 4.994,-5.736Z" style="fill:#ded834;"/><path d="M960.785,2117.038c0.255,0.44 4.962,8.536 -3.282,5.442c-2.096,-0.787 -6.543,-11.892 3.282,-5.442Z" style="fill:#e0da34;"/><path d="M587.486,2570.691c-4.158,-7.747 5.862,-5.961 6.085,-0.472c0.2,4.913 -2.702,3.982 -6.085,0.472Z" style="fill:#e2dc35;"/><path d="M1531.78,2234.132c2.019,1.345 2.058,1.065 3.194,2.477c2.212,2.75 0.412,11.841 -3.93,3.653c-0.067,-0.126 0.001,-0.038 -3.538,-3.299c2.572,-0.874 2.538,-0.801 4.274,-2.83Z" style="fill:#969223;"/><path d="M1806.763,2513.184c-1.133,-3.01 -2.861,-4.133 0.25,-4.943c3.109,-0.809 4.75,1.215 5.015,1.54c0.316,0.389 4.773,9.928 -5.265,3.402Z" style="fill:#e1db35;"/><path d="M723.723,2259.692l2.236,1.75c-0.602,1.399 -1.205,2.799 -1.807,4.198c-1.666,9.003 -4.947,2.495 -4.998,2.065c-0.574,-4.897 1.197,-4.314 4.569,-8.013Z" style="fill:#c0bb2d;"/><path d="M694.937,2139.88c0.861,0.922 1.722,1.844 2.583,2.767c-3,3.315 -6.514,6.458 -7.109,6.99c-1.336,-0.835 -2.672,-1.67 -4.008,-2.505c4.411,-3.549 4.255,-3.437 8.535,-7.252Z" style="fill:#898520;"/><path d="M1562.767,2316.897c-4.999,-7.948 3.991,-4.55 4.285,-4.281c1.979,1.806 2.781,11.093 -4.285,4.281Z" style="fill:#e1db35;"/><path d="M1690.998,2715.679c0.612,1.387 1.224,2.774 1.837,4.161c-2.549,3.34 -2.486,3.255 -5.994,5.661c-1.319,-0.689 -2.638,-1.378 -3.956,-2.067c4.537,-3.5 4.46,-3.418 8.114,-7.756Z" style="fill:#77741c;"/><path d="M1311.725,1870.756c3.025,-3.295 3.449,-3.544 3.818,-3.761c0.34,-0.2 6.062,-0.957 0.851,4.856c-5.237,5.842 -4.644,-0.38 -4.669,-1.094Z" style="fill:#817e1e;"/><path d="M637.242,2332.352c-11.215,3.584 1.445,-9.874 3.828,-5.744c0.276,0.478 0.65,1.127 -3.828,5.744Z" style="fill:#86821f;"/><path d="M1423.654,2228.067c0.312,0.387 10.606,13.191 -0.293,6.207c-0.189,-0.121 0.006,-0.227 -1.824,-2.137c-0.289,-0.302 -4.779,-4.989 -0.043,-5.222c0.815,-0.04 1.345,1.191 2.16,1.151Z" style="fill:#84811f;"/><path d="M383.085,1875.097c2.316,3.971 6.536,4.751 2.353,6.535c-2.098,0.895 -13.485,-9.673 -2.353,-6.535Z" style="fill:#918e22;"/><path d="M1598.892,2728.1c2.62,-2.459 2.112,-3.904 5.759,-3.277c3.417,0.588 -2.309,5.883 -2.709,6.253c-4.995,4.62 -3.134,-2.646 -3.05,-2.977Z" style="fill:#74711b;"/><path d="M1462.582,2240.218c0.078,-0.858 -0.808,-1.62 -0.73,-2.478c0.356,-3.927 7.06,2.245 7.335,4.189c1.033,7.32 -6.252,-1.294 -6.604,-1.711Z" style="fill:#878320;"/><path d="M484.959,2199.627c4.586,0.072 3.833,7.417 2.489,8.373c-0.569,0.405 -5.952,1.98 -2.489,-8.373Z" style="fill:#d2cc31;"/><path d="M1639.526,2303.081c0.403,0.396 6.341,6.228 2.509,6.608c-1.881,0.187 -6.197,-3.499 -6.403,-4.762c-0.464,-2.845 1.111,-1.868 3.894,-1.845Z" style="fill:#86821f;"/><path d="M574.764,2075.338c-1.888,-5.946 -2.58,-5.915 -1.733,-7.99c0.779,-1.909 2.922,-1.617 3.205,-1.578c0.767,0.105 3.698,0.677 -1.472,9.568Z" style="fill:#cec830;"/><path d="M583.464,2099.224c2.949,10.179 -2.972,7.818 -3.225,7.237c-0.746,-1.713 -0.371,-3.803 -0.313,-4.129c0.807,-4.499 3.352,-3.025 3.538,-3.107Z" style="fill:#d5cf32;"/><path d="M1625.492,2232.614c6.089,6.451 1.215,6.977 0.695,6.808c-0.291,-0.095 -3.529,-3.444 -3.827,-3.752c-2.515,-2.602 -0.356,-3.37 3.132,-3.055Z" style="fill:#696718;"/><path d="M1672.789,2350.298c0.324,0.369 6.686,7.609 0.14,6.131c-0.107,-0.024 -11.495,-10.829 -0.14,-6.131Z" style="fill:#78751c;"/><path d="M762.875,2852.143c1.267,-0.102 10.815,-0.87 15.884,0.054c0.878,0.16 1.139,1.602 2.017,1.762c-8.929,0.015 -13.719,1.115 -17.902,-1.816Z" style="fill:#c1bf8d;fill-opacity:0.22;"/><path d="M1641.531,1898.183c-0.827,-2.754 -2.36,-3.754 0.042,-4.182c0.349,-0.062 2.164,-0.385 3.86,2.172c7.314,11.025 -3.658,2.262 -3.902,2.01Z" style="fill:#77741b;"/><path d="M654.796,2417.22c0.424,0.736 1.098,1.307 1.522,2.042c0.395,0.686 0.914,3.388 0.82,3.585c-0.452,0.949 -1.784,1.275 -2.235,2.224c-2.79,-2.378 -2.426,-2.546 -3.503,-6.15c0.823,-0.723 0.802,-0.56 3.396,-1.702Z" style="fill:#dad433;"/><path d="M675.851,2477.944c-3.15,11.123 -5.073,-0.516 -4.467,-1.831c1.57,-3.407 3.115,-1.749 4.467,1.831Z" style="fill:#cbc62f;"/><path d="M1367.622,2195.462c2.009,3.923 5.261,6.346 0.864,6.038c-0.735,-0.051 -12.27,-9.932 -0.864,-6.038Z" style="fill:#83801f;"/><path d="M416.989,2120.153c-1.667,2.242 -1.582,2.319 -1.8,2.422c-0.548,0.26 -1.087,-1.059 -1.635,-0.8c-4.184,-8.602 1.953,-6.479 2.266,-6.066c0.222,0.293 0.087,0.329 1.169,4.443Z" style="fill:#d9d333;"/><path d="M1466.666,2307.795c0.558,0.536 1.59,0.341 2.148,0.877c4.045,3.886 -4.079,7.465 -5.654,2.011c-0.595,-2.06 0.702,-1.461 3.507,-2.888Z" style="fill:#dcd634;"/><path d="M632.619,2055.371c-4.068,11.889 -4.706,-1.322 -4.479,-1.822c1.583,-3.485 3.121,-1.762 4.479,1.822Z" style="fill:#cbc630;"/><path d="M622.758,2031.701c1.37,-3.021 1.267,-4.825 4.055,-3.032c2.378,1.529 -0.129,12.256 -4.055,3.032Z" style="fill:#d9d433;"/><path d="M527.224,2252.466c7.481,2.931 -3.076,7.222 -3.701,3.246c-0.47,-2.99 0.749,-2.467 3.701,-3.246Z" style="fill:#e2dc35;"/><path d="M397.481,1887.244c0.569,0.527 1.6,0.316 2.169,0.843c4.825,4.467 -8.82,6.046 -5.529,0.519c0,-0 3.091,-1.253 3.36,-1.362Z" style="fill:#dbd533;"/><path d="M1406.043,2207.919c3.452,4.299 0.347,7.947 -3.826,4.191c-0.337,-0.304 -3.24,-2.916 3.826,-4.191Z" style="fill:#dbd533;"/><path d="M930.327,2259.641l1.942,0.442c-1.559,4.665 -1.341,4.759 -2.155,5.468c-2.227,1.938 -2.337,0.316 -4.265,-1.934c2.265,-2.086 2.189,-2.023 4.479,-3.976Z" style="fill:#8d8921;"/><path d="M805.35,2620.168c-0.927,0.307 -1.855,0.614 -2.782,0.921c-0.136,-0.296 -1.698,-3.695 -1.698,-3.695c-0.057,-1.94 5.853,-5.478 4.48,2.774Z" style="fill:#e0da34;"/><path d="M1419.449,1804.922c-9.862,-3.179 0.298,-5.303 1.628,-4.49c0.241,0.147 2.251,1.377 0.629,3.474c-0.505,0.653 -1.753,0.363 -2.258,1.016Z" style="fill:#e0da34;"/><path d="M444.736,1863.645c3.324,1.148 3.431,0.981 3.59,1.24c3.216,5.211 -10.445,3.983 -5.747,-0.393c0.565,-0.527 1.592,-0.32 2.157,-0.847Z" style="fill:#ddd734;"/><path d="M911.584,2377.628c-4.655,9.638 -5.274,-1.306 -4.868,-1.89c2.176,-3.133 3.222,-1.442 4.868,1.89Z" style="fill:#d8d333;"/><path d="M800.593,2603.664c-7.056,10.119 -4.364,-2.782 -3.57,-3.346c2.777,-1.97 2.815,0.024 3.57,3.346Z" style="fill:#d1cc31;"/><path d="M627.809,2118.145c-2.284,8.68 -6.215,-1.974 -3.471,-3.019c2.695,-1.027 2.449,0.338 3.471,3.019Z" style="fill:#dad433;"/><path d="M1612.054,2714.314c0.499,0.713 1.845,0.438 2.345,1.152c2.999,4.283 -8.926,5.045 -6.251,0.162c0.158,-0.289 0.283,-0.095 3.906,-1.313Z" style="fill:#dfd934;"/><path d="M925.49,2226.414l2.755,3.132c-3.544,2.765 -3.454,2.878 -3.826,2.988c-8.038,2.384 0.708,-5.781 1.071,-6.12Z" style="fill:#888420;"/><path d="M642.016,1988.473c1.282,-2.612 0.933,-4.176 3.659,-2.936c2.452,1.115 0.386,11.027 -3.659,2.936Z" style="fill:#dfda34;"/><path d="M761.991,2450.257c1.207,-3.331 1.05,-3.427 1.304,-3.597c5.02,-3.367 4.22,9.061 -0.228,5.691c-0.625,-0.474 -0.451,-1.619 -1.076,-2.093Z" style="fill:#ddd734;"/><path d="M738.209,2520.925c-2.619,9.127 -5.726,-0.156 -4.359,-1.598c1.985,-2.094 2.198,-0.377 4.359,1.598Z" style="fill:#d8d333;"/><path d="M541.216,1839.057c-1.703,9.486 -4.712,0.904 -4.549,-0.071c0.58,-3.474 2.287,-2.647 4.549,0.071Z" style="fill:#d4ce32;"/><path d="M815.164,2656.723c0.157,-0.38 2.114,-5.11 3.97,-3.256c1.264,1.263 0.579,12.877 -3.97,3.256Z" style="fill:#cec830;"/><path d="M660.968,2522.208c-0.482,-0.637 -1.692,-0.374 -2.174,-1.011c-1.4,-1.85 0.434,-3.261 0.655,-3.431c1.396,-1.074 10.137,0.949 1.519,4.442Z" style="fill:#ddd734;"/><path d="M550.82,2228.259c-1.223,8.269 -4.781,1.512 -4.478,-0.202c0.617,-3.495 2.355,-2.608 4.478,0.202Z" style="fill:#d6d132;"/><path d="M916.145,2151.626c0.998,-3.032 0.909,-4.715 3.521,-3.093c2.565,1.592 -0.479,11.631 -3.521,3.093Z" style="fill:#dad533;"/><path d="M1770.76,2536.937c0.992,-3.157 0.835,-3.249 1.071,-3.41c4.845,-3.31 3.853,9.208 -0.345,5.115c-0.442,-0.431 -0.283,-1.274 -0.725,-1.705Z" style="fill:#d6d132;"/><path d="M431.084,1921.625c0.508,-3.643 0.598,-5.769 3.574,-3.626c1.159,0.834 2.101,11.384 -3.574,3.626Z" style="fill:#d8d333;"/><path d="M556.107,1888.495c1.235,-6.504 3.58,-3.929 3.85,-3.605c0.827,0.994 0.765,4.219 0.186,4.963c-1.695,2.176 -1.923,0.306 -4.036,-1.358Z" style="fill:#d6d032;"/><path d="M425.869,2147.814c-0.506,0.445 -0.255,1.428 -0.761,1.873c-4.536,3.99 -5.638,-8.216 -0.487,-5.306c0.254,0.144 0.092,0.254 1.248,3.433Z" style="fill:#dbd633;"/><path d="M1512.771,2277.421c0.643,-0.475 0.278,-1.739 0.921,-2.214c2.007,-1.485 3.212,0.45 3.357,0.682c0.955,1.534 -1.037,9.768 -4.278,1.532Z" style="fill:#d4ce31;"/><path d="M1752.436,2658.727c-0.469,0.513 -0.221,1.454 -0.69,1.967c-4.371,4.778 -5.436,-8.436 -0.536,-5.386c0.247,0.154 0.091,0.253 1.226,3.419Z" style="fill:#d8d232;"/><path d="M406.371,2104.348c1.28,-2.973 1.133,-3.084 1.382,-3.211c5.16,-2.632 3.853,9.136 -0.483,5.363c-0.587,-0.51 -0.313,-1.642 -0.9,-2.152Z" style="fill:#dcd633;"/><path d="M1648.684,2476.075c1.089,-3.281 0.914,-3.392 1.174,-3.538c5.093,-2.87 4.102,8.992 -0.38,5.32c-0.503,-0.412 -0.291,-1.37 -0.794,-1.782Z" style="fill:#dbd633;"/><path d="M382.739,1917.661c1.176,-3.325 1.012,-3.429 1.27,-3.591c4.712,-2.953 4.001,9.105 -0.309,5.725c-0.614,-0.481 -0.347,-1.653 -0.961,-2.134Z" style="fill:#d1cc31;"/><path d="M1742.924,2672.387c-0.596,0.511 -0.32,1.658 -0.915,2.17c-4.419,3.794 -5.494,-7.782 -0.584,-5.392c0.256,0.124 0.111,0.239 1.499,3.222Z" style="fill:#dcd633;"/><path d="M531.744,2275.242c-2.297,10.21 -4.685,0.518 -4.637,0.15c0.453,-3.462 2.047,-2.329 4.637,-0.15Z" style="fill:#d7d232;"/><path d="M762.262,2424.836c-3.433,8.823 -5.112,-0.252 -4.32,-1.542c0.143,-0.233 1.326,-2.16 3.349,-0.662c0.645,0.478 0.326,1.726 0.971,2.204Z" style="fill:#d4ce32;"/><path d="M814.873,2699.889c0.578,-2.363 -0.062,-2.777 1.498,-3.524c4.676,-2.239 3.696,8.568 -0.36,5.783c-0.695,-0.477 -0.443,-1.781 -1.138,-2.258Z" style="fill:#dfd934;"/><path d="M795.874,2587.966c-4.522,11.285 -4.456,-1.158 -4.3,-1.442c1.628,-2.95 2.798,-1.569 4.3,1.442Z" style="fill:#d5cf32;"/><path d="M646.839,2267.493c-5.132,7.604 -4.836,-2.87 -3.522,-3.72c3.055,-1.976 2.978,0.152 3.522,3.72Z" style="fill:#d2cd31;"/><path d="M632.278,2070.929c1.302,-3.068 1.147,-3.188 1.406,-3.314c4.967,-2.402 3.799,8.768 -0.38,5.472c-0.626,-0.493 -0.401,-1.665 -1.026,-2.159Z" style="fill:#ded834;"/><path d="M622.881,2017.88c-0.686,0.498 -0.406,1.799 -1.093,2.297c-4.069,2.95 -5.186,-7.605 -0.447,-5.651c1.505,0.621 0.922,1.03 1.54,3.355Z" style="fill:#ded834;"/><path d="M738.398,2660.788c0.648,-0.474 0.451,-1.67 1.099,-2.144c0.554,-0.406 2.796,0.004 3.082,0.477c0.661,1.093 -0.982,11.631 -4.181,1.667Z" style="fill:#d2cc31;"/><path d="M1634.513,1907.893c1.495,-2.915 1.351,-3.045 1.614,-3.148c4.716,-1.845 3.384,8.513 -0.71,5.47c-0.667,-0.495 -0.237,-1.827 -0.904,-2.322Z" style="fill:#dcd734;"/><path d="M1264.374,2038.854c0.46,0.485 1.419,0.216 1.879,0.702c4.161,4.385 -7.473,5.34 -5.074,0.508c0.122,-0.245 0.237,-0.09 3.194,-1.209Z" style="fill:#d4ce31;"/><path d="M1521.771,2789.103c2.318,0.631 2.711,0.061 3.406,1.528c2.144,4.525 -8.279,3.474 -5.623,-0.422c0.465,-0.682 1.752,-0.424 2.217,-1.106Z" style="fill:#d8d232;"/><path d="M642.178,2348.172c0.61,-0.487 0.261,-1.687 0.872,-2.173c2.178,-1.737 3.34,0.284 3.481,0.528c0.378,0.657 -0.064,11.616 -4.353,1.646Z" style="fill:#c8c32f;"/><path d="M572.496,2076.385c1.187,0.886 2.373,1.773 3.56,2.659c-1.19,0.581 -2.38,1.162 -3.57,1.743c-4.745,-4.287 -1.771,-5.045 -1.355,-5.128c0.505,-0.101 0.859,0.826 1.364,0.725Z" style="fill:#888520;"/><path d="M373.363,1850.892c0.476,0.452 -0.241,1.503 0.235,1.955c0.498,0.474 1.454,-0.125 2.051,0.217c0.237,0.136 2.518,1.442 1.276,3.168c-2.87,3.99 -2.83,-0.659 -6.899,-3.359c2.957,-1.621 2.852,-1.458 3.338,-1.981Z" style="fill:#6f6c1a;"/><path d="M1555.251,2299.001c3.641,4.561 3.342,5.08 3.088,5.517c-1.079,1.867 -1.527,0.443 -5.153,-1.457c0.229,-0.283 -0.163,-0.429 2.065,-4.061Z" style="fill:#75711b;"/><path d="M1390.072,1710.368c-7.488,0.514 -7.05,1.619 -7.949,2.01c-2.006,0.871 -2.002,0.135 -5.954,-1.323c4.634,-0.229 9.269,-0.458 13.903,-0.687Z" style="fill:#a19f71;fill-opacity:0.2;"/><path d="M1507.838,1697.27c5.03,-1.113 4.924,-0.814 9.965,-0.295c-0.84,0.206 -1.181,1.423 -2.022,1.629c-5.624,1.38 -7.05,-1.184 -7.943,-1.334Z" style="fill:#c8c7a3;fill-opacity:0.19;"/><path d="M904.802,2228.601c3.423,-3.485 3.414,-4.857 4.971,-3.456c0.366,0.329 0.725,0.562 -1.303,5.079c-0.391,-0.391 -1.241,0.097 -1.632,-0.294c-0.74,-0.741 0.515,-1.096 -0.261,-1.602c-0.899,-0.587 -0.893,0.849 -1.775,0.273Z" style="fill:#827f1e;"/><path d="M416.989,2120.153c2.641,3.273 5.937,3.8 2.268,6.056c-2.363,1.453 -2.168,-0.171 -3.973,-2.205c0.568,-1.284 1.137,-2.567 1.705,-3.851Z" style="fill:#5a5815;"/><path d="M1475.291,2786.658c5.935,-6.164 4.407,1.02 4.285,1.358c-1.281,3.56 -3.274,2.186 -4.285,-1.358Z" style="fill:#6c6919;"/><path d="M579.532,2534.562c-4.857,4.838 -5.183,-2.113 -2.851,-2.85c2.53,-0.799 2.262,0.326 2.851,2.85Z" style="fill:#77741c;"/><path d="M671.212,2355.979c1.353,-2.231 1.412,-3.38 3.432,-1.92c1.481,1.071 0.47,8.167 -3.432,1.92Z" style="fill:#7f7c1e;"/><path d="M541.637,2438.337c0.734,-2.564 0.42,-3.857 2.904,-2.872c1.909,0.756 2.106,7.729 -2.904,2.872Z" style="fill:#827e1e;"/><path d="M1356.339,2184.32c-7.461,-1.441 -0.433,-4.935 0.793,-3.754c1.719,1.656 0.84,1.928 -0.793,3.754Z" style="fill:#6a6719;"/><path d="M523.681,2266.771c-1.599,-1.782 -2.639,-2.073 -0.913,-3.624c1.748,-1.57 7.526,2.658 0.913,3.624Z" style="fill:#84811f;"/><path d="M455.131,1841.307c0.233,-0.209 3.29,-2.948 3.854,-0.631c0.074,0.304 -1.398,10.462 -3.854,0.631Z" style="fill:#85821f;"/><path d="M1714.754,2637.026c1.346,-2.186 1.4,-3.518 3.493,-1.915c0.756,0.579 1.358,8.838 -3.493,1.915Z" style="fill:#7e7b1d;"/><path d="M637.59,2605.6c1.452,-2.047 1.55,-3.35 3.483,-1.764c0.438,0.359 1.564,9.364 -3.483,1.764Z" style="fill:#a09c25;"/><path d="M576.056,2079.044c5.2,9.092 -3.14,2.122 -3.57,1.743c1.19,-0.581 2.38,-1.162 3.57,-1.743Z" style="fill:#484610;"/><path d="M863.106,2735.333c-4.003,6.121 -4.267,0.322 -4.265,-0.02c0.037,-5.62 4.06,-0.253 4.265,0.02Z" style="fill:#a29e26;"/><path d="M628.099,2134.138c0.232,-0.214 3.333,-3.075 3.884,-0.662c0.07,0.307 -1.251,10.426 -3.884,0.662Z" style="fill:#7e7b1e;"/><path d="M742.836,2534.616c-4.914,4.452 -4.477,-2.221 -2.924,-2.914c2.537,-1.133 2.256,0.313 2.924,2.914Z" style="fill:#7b781c;"/><path d="M492.932,1768.823c-0.903,2.645 -0.312,4.419 -2.863,3.163c-0.306,-0.151 -4.928,-5.34 2.863,-3.163Z" style="fill:#83801f;"/><path d="M1761.798,2613.462c1.444,-2.046 1.464,-3.396 3.482,-1.779c0.265,0.213 1.893,9.361 -3.482,1.779Z" style="fill:#9e9a25;"/><path d="M1002.506,1813.529c-2.148,2.579 -3.879,3.608 -4.28,0.27c-0.041,-0.341 0.299,-7.69 4.28,-0.27Z" style="fill:#989423;"/><path d="M842.528,2373.402c1.549,1.873 1.395,1.754 1.549,1.873c1.485,1.153 1.728,0.529 3.191,1.665l-1.649,2.874c-0.371,-0.451 -1.293,-0.096 -1.664,-0.546c-0.365,-0.444 0.129,-1.239 -0.197,-1.713c-0.915,-1.332 -1.184,-0.242 -1.213,-0.338c-0.559,-1.889 0.574,-1.818 -0.017,-3.814Z" style="fill:#c0bfa6;fill-opacity:0.15;"/><path d="M897.047,2312.777c1.539,-2.103 1.571,-3.388 3.527,-1.844c0.205,0.162 1.67,9.61 -3.527,1.844Z" style="fill:#9e9925;"/><path d="M335.103,1876.299c1.208,-2.372 0.743,-3.984 2.944,-2.865c1.47,0.747 2.043,7.413 -2.944,2.865Z" style="fill:#918d22;"/><path d="M320.012,1821.846c-0.948,2.524 -0.384,4.149 -2.844,3.067c-0.306,-0.135 -4.715,-5.193 2.844,-3.067Z" style="fill:#76731b;"/><path d="M820.226,2605.61c2.122,-2.692 4.175,-3.443 4.206,-0.01c0.003,0.336 -0.105,5.736 -4.206,0.01Z" style="fill:#b8b32b;"/><path d="M582.276,2550.418c-5.891,-4.122 -0.314,-4.315 0.031,-4.308c3.481,0.069 2.644,2.107 -0.031,4.308Z" style="fill:#b2ae2a;"/><path d="M959.71,2139.812c2.062,-2.639 4.054,-3.388 4.129,-0.014c0.007,0.33 -0.155,5.335 -4.129,0.014Z" style="fill:#b9b42b;"/><path d="M1691.327,2336.47c1.491,-1.697 1.297,-2.81 3.199,-1.725c2.114,1.205 -0.795,7.588 -3.199,1.725Z" style="fill:#7c791d;"/><path d="M819.849,2591.821c-2.166,2.501 -3.85,3.45 -4.21,0.157c-0.997,-9.141 4.041,-0.449 4.21,-0.157Z" style="fill:#ada928;"/><path d="M662.933,2527.102l1.923,-0.155c0.008,0.778 1.233,1.199 1.241,1.977c0.029,2.908 -3.066,2.395 -3.392,2.341c-2.766,-0.458 -0.678,-1.582 0.228,-4.164Z" style="fill:#7d791d;"/><path d="M641.959,2181.275c3.318,-0.508 3.46,-0.814 3.571,-0.547c1.126,2.716 -2.96,5.816 -3.571,0.547Z" style="fill:#4c4a11;"/><path d="M389.709,1954.766c-1.738,-1.486 -2.926,-1.39 -1.603,-3.345c0.569,-0.84 8.601,-0.654 1.603,3.345Z" style="fill:#aaa628;"/><path d="M668.764,2550.451c-5.554,-4.193 -0.306,-4.324 0.039,-4.313c3.564,0.113 2.66,2.147 -0.039,4.313Z" style="fill:#b8b32b;"/><path d="M1458.824,2198.533c-6.041,-4.049 -0.312,-4.283 0.03,-4.279c3.518,0.041 2.745,2.135 -0.03,4.279Z" style="fill:#a5a027;"/><path d="M551.279,2351.92c1.221,-2.38 0.763,-3.981 2.949,-2.867c1.429,0.728 2.045,7.373 -2.949,2.867Z" style="fill:#8f8b21;"/><path d="M455.033,1904.076c1.523,-1.673 1.353,-2.8 3.237,-1.662c1.786,1.078 -0.607,7.787 -3.237,1.662Z" style="fill:#837f1e;"/><path d="M551.148,2466.102c1.497,-1.638 1.406,-2.688 3.264,-1.502c1.085,0.692 0.218,8.162 -3.264,1.502Z" style="fill:#9b9724;"/><path d="M1733.473,2688.245c-2.874,6.22 -5.059,-0.683 -3.268,-1.753c0.862,-0.514 1.602,-0.117 1.724,-0.052c1.096,0.588 0.374,1.177 1.545,1.805Z" style="fill:#7d791d;"/><path d="M1265.213,2047.903c6.651,3.944 0.66,5.579 -0.223,4.768c-1.725,-1.587 -0.556,-1.79 0.223,-4.768Z" style="fill:#afab29;"/><path d="M918.367,2161.604c5.769,4.078 0.281,4.271 -0.059,4.254c-3.481,-0.177 -2.591,-2.148 0.059,-4.254Z" style="fill:#b8b32b;"/><path d="M1517.302,2800.352c-2.971,8.962 -4.027,-0.188 -3.964,-0.501c0.53,-2.612 3.727,0.286 3.964,0.501Z" style="fill:#7b781d;"/><path d="M735.682,2353.5c-0.641,-1.163 -1.22,-0.437 -1.821,-1.525c-0.068,-0.123 -0.492,-0.893 0.011,-1.755c1.047,-1.793 8.052,0.321 1.809,3.28Z" style="fill:#73701b;"/><path d="M765.048,2507.568c2.526,2.153 3.458,3.895 0.134,4.217c-8.379,0.811 -0.422,-4.041 -0.134,-4.217Z" style="fill:#aca828;"/><path d="M443.852,1872.978c1.977,7.326 -2.71,3.718 -2.882,3.406c-0.173,-0.312 -1.505,-2.721 2.882,-3.406Z" style="fill:#b2ad2a;"/><path d="M584.777,1986.418c3.769,-8.434 4.368,0.035 4.337,0.382c-0.269,3.073 -1.633,1.097 -4.337,-0.382Z" style="fill:#898520;"/><path d="M645.111,2334.643c4.094,4.16 -3.127,4.441 -2.969,1.756c0.016,-0.275 0.213,-0.126 2.969,-1.756Z" style="fill:#a7a327;"/><path d="M680.376,2375.627c-2.208,2.406 -3.899,3.378 -4.165,0.096c-0.027,-0.332 0.24,-6.57 4.165,-0.096Z" style="fill:#b2ad29;"/><path d="M582.245,2396.79c-6.945,-4.117 1.129,-4.715 1.949,-3.414c0.611,0.971 0.138,1.8 0.061,1.935c-0.699,1.225 -1.352,0.327 -2.01,1.479Z" style="fill:#76721b;"/><path d="M733.413,2312.764c-2.085,2.718 -4.11,3.592 -4.244,0.049c-0.013,-0.339 0.113,-5.895 4.244,-0.049Z" style="fill:#aba628;"/><path d="M584.972,2121.785c0.358,-2.989 0.29,-4.758 2.904,-3.045c8.245,5.402 -2.575,3.115 -2.904,3.045Z" style="fill:#8b8821;"/><path d="M419.069,2137.304c-6.47,-3.085 0.801,-4.983 1.818,-3.278c0.514,0.862 0.082,1.641 0.014,1.765c-0.604,1.089 -1.187,0.35 -1.831,1.513Z" style="fill:#74711b;"/><path d="M387.371,1780.073c-5.106,5.31 -3.799,-1.884 -3.714,-1.994c1.796,-2.34 2.26,-0.502 3.714,1.994Z" style="fill:#888520;"/><path d="M656.609,2298.955c-0.23,0.243 -3.564,3.768 -4.172,0.322c-0.058,-0.33 0.417,-7.869 4.172,-0.322Z" style="fill:#8c8821;"/><path d="M1647.347,2456.692c4.423,4.999 -2.102,4.349 -2.822,2.947c-1.148,-2.237 0.491,-1.762 2.822,-2.947Z" style="fill:#77741c;"/><path d="M1770.978,2501.393c-0.227,0.252 -3.721,4.134 -4.234,0.283c-0.045,-0.336 0.353,-7.622 4.234,-0.283Z" style="fill:#949023;"/><path d="M670.592,2332.387c-4.475,4.464 -4.119,-2.978 -1.844,-2.94c0.278,0.005 0.132,0.211 1.844,2.94Z" style="fill:#b2ae2a;"/><path d="M551.052,2528.954c4.137,-5.819 4.26,-0.289 4.247,0.051c-0.13,3.427 -2.144,2.674 -4.247,-0.051Z" style="fill:#aba628;"/><path d="M1630.187,2664.616c1.504,-1.626 1.406,-2.573 3.248,-1.506c1.233,0.714 0.002,7.836 -3.248,1.506Z" style="fill:#918d22;"/><path d="M421.017,1856.786c-2.238,2.357 -3.769,3.242 -4.129,0.084c-0.916,-8.033 3.952,-0.363 4.129,-0.084Z" style="fill:#c5c02e;"/><path d="M733.338,2509.331c-4.204,7.159 -3.998,-1.116 -3.339,-1.565c1.912,-1.301 1.829,-0.139 3.339,1.565Z" style="fill:#a29e25;"/><path d="M1604.276,2249.89c-2.552,-2.25 -3.347,-4.125 -0.015,-4.213c0.337,-0.009 5.205,0.016 0.015,4.213Z" style="fill:#cbc52f;"/><path d="M607.624,2051.701c0.016,0.611 0.949,0.948 0.965,1.559c0.096,3.765 -6.815,1.467 -4.116,-1.301c0.177,-0.181 0.233,-0.019 3.151,-0.258Z" style="fill:#cfca30;"/><path d="M1735.957,2466.048c2.454,2.206 3.406,4.128 0.011,4.205c-0.336,0.008 -5.215,-0.033 -0.011,-4.205Z" style="fill:#cbc630;"/><path d="M733.254,2705.963c-0.269,0.512 0.312,1.223 0.043,1.735c-1.874,3.575 -5.909,-1.525 -3.163,-3.022c0,-0 2.87,1.184 3.12,1.287Z" style="fill:#908c22;"/><path d="M690.119,2542.753c-3.891,7.102 -3.935,-1.01 -3.266,-1.457c1.814,-1.211 1.742,-0.138 3.266,1.457Z" style="fill:#a7a327;"/><path d="M1554.894,2810.053c-4.706,8.615 -3.428,-1.391 -3.299,-1.48c1.814,-1.262 1.75,-0.101 3.299,1.48Z" style="fill:#969223;"/><path d="M603.593,2212.456c-3.877,3.856 -4.682,-3.193 -1.737,-2.979c0.275,0.02 0.125,0.214 1.737,2.979Z" style="fill:#8a8620;"/><path d="M1686.458,2322.634c-4.45,7.373 -4.096,-1.258 -3.39,-1.71c1.998,-1.278 1.885,-0.055 3.39,1.71Z" style="fill:#888520;"/><path d="M950.012,2183.041c0.207,-0.268 4.208,-5.457 4.232,0.019c0.001,0.339 -0.116,5.3 -4.232,-0.019Z" style="fill:#aaa628;"/><path d="M914.235,2439.908c-5.533,-1.895 0.372,-5.357 1.552,-3.116c0.972,1.846 -0.104,1.656 -1.552,3.116Z" style="fill:#6c6919;"/><path d="M1761.852,2623.229c0.164,-0.3 5.097,-9.361 4.268,0.224c-0.264,3.057 -1.569,1.108 -4.268,-0.224Z" style="fill:#959223;"/><path d="M1447.234,2190.958c1.574,-1.524 1.509,-2.706 3.277,-1.409c0.586,0.43 0.885,2.718 0.42,3.297c-1.799,2.239 -2.258,0.656 -3.698,-1.888Z" style="fill:#afaa29;"/><path d="M1724.346,2697.968c3.997,-5.651 4.209,-0.318 4.205,0.018c-0.04,3.4 -1.934,2.546 -4.205,-0.018Z" style="fill:#aaa528;"/><path d="M897.137,2558.325c1.552,-2.743 1.402,-2.932 1.672,-2.956c2.961,-0.263 2.488,2.985 2.44,3.31c-0.462,3.171 -3.875,-0.125 -4.112,-0.355Z" style="fill:#84811f;"/><path d="M593.873,2110.367c-4.162,7.57 -3.612,-1.118 -3.235,-1.395c1.765,-1.297 1.75,-0.114 3.235,1.395Z" style="fill:#bcb72c;"/><path d="M1651.442,2550.618c2.532,2.227 3.292,4.061 0.017,4.146c-0.332,0.009 -5.336,-0.021 -0.017,-4.146Z" style="fill:#cac52f;"/><path d="M550.727,2342.224c-4.729,4.491 -4.119,-3.041 -1.954,-2.93c0.281,0.014 0.14,0.211 1.954,2.93Z" style="fill:#bab52b;"/><path d="M1324.862,1858.746c-0.222,0.266 -4.007,4.805 -4.329,0.168c-0.024,-0.346 0.206,-6.583 4.329,-0.168Z" style="fill:#908d22;"/><path d="M1216.824,2660.604c-0.224,0.259 -4.07,4.711 -4.285,0.107c-0.016,-0.343 0.205,-6.447 4.285,-0.107Z" style="fill:#979323;"/><path d="M1470.396,2177.181c-4.019,6.164 -4.247,0.254 -4.232,-0.084c0.153,-3.41 2.006,-2.462 4.232,0.084Z" style="fill:#979223;"/><path d="M647.336,2206.661c1.516,-1.61 1.519,-2.851 3.317,-1.478c0.051,0.039 1.767,9.925 -3.317,1.478Z" style="fill:#b4af2a;"/><path d="M570.632,2505.336c0.541,-0.88 -0.364,-0.967 0.147,-1.799c0.086,-0.14 0.715,-1.164 1.682,-1.178c2.185,-0.032 2.916,7.469 -1.83,2.977Z" style="fill:#b5b02a;"/><path d="M603.591,2586.023c-3.697,7.589 -3.948,-1.077 -3.268,-1.503c1.925,-1.205 1.776,-0.024 3.268,1.503Z" style="fill:#9b9724;"/><path d="M1686.267,2753.257c-2.407,9.515 -3.813,-0.361 -3.705,-0.519c0.675,-0.982 1.916,-0.808 2.093,-0.783c1.215,0.17 0.477,1.144 1.612,1.302Z" style="fill:#7d7a1d;"/><path d="M929.857,2198.608c-0.624,0.02 -0.919,1.043 -1.543,1.064c-3.757,0.122 -1.568,-6.673 1.17,-4.166c0,0 0.343,2.854 0.373,3.102Z" style="fill:#cdc830;"/><path d="M1794.524,2444.504c-3.941,7.237 -4.311,-1.133 -3.359,-1.708c0.942,-0.569 1.614,-0.228 1.739,-0.164c1.161,0.591 0.382,1.243 1.62,1.873Z" style="fill:#817e1e;"/><path d="M1460.677,2173.193c-4.765,4.54 -3.981,-2.996 -1.835,-2.972c0.968,0.011 1.597,1.03 1.683,1.17c0.514,0.833 -0.392,0.922 0.152,1.802Z" style="fill:#b4af2a;"/><path d="M713.958,2245.94c-4.573,4.311 -4.015,-2.795 -1.94,-2.789c1.006,0.003 1.594,0.848 1.683,0.976c0.566,0.813 -0.34,0.954 0.258,1.812Z" style="fill:#c6c12e;"/><path d="M619.781,2324.962c0.895,0.454 0.875,-0.508 1.716,-0.081c0.161,0.082 1.032,0.524 1.484,1.706c0.185,0.483 -6.447,6.456 -3.2,-1.625Z" style="fill:#969223;"/><path d="M1710.488,2731.365c0.525,-0.844 -0.397,-0.937 0.158,-1.828c0.087,-0.14 0.725,-1.165 1.706,-1.166c1.993,-0.003 3.25,7.711 -1.864,2.994Z" style="fill:#bab52b;"/><path d="M699.73,2581.965c-0.718,0.399 -0.798,1.545 -1.517,1.944c-2.671,1.484 -4.077,-4.818 0.197,-4.256c0.211,0.028 0.098,0.171 1.32,2.312Z" style="fill:#817e1e;"/><path d="M637.098,2153.621c-0.155,0.281 -5.355,9.687 -4.009,-0.135c0.421,-3.071 1.823,-2.005 4.009,0.135Z" style="fill:#afab29;"/><path d="M497.79,1947.204c-0.355,0.496 0.07,1.312 -0.285,1.808c-2.41,3.367 -5.772,-3.742 -1.697,-3.68c0.218,0.003 0.147,0.139 1.982,1.872Z" style="fill:#c6c12e;"/><path d="M725.814,2679.969c-1.544,-1.499 -2.562,-1.357 -1.438,-3.222c0.658,-1.091 7.964,-0.032 1.438,3.222Z" style="fill:#a39f26;"/><path d="M690.532,2409.062c4.05,-5.573 4.167,-0.293 4.154,0.039c-0.129,3.31 -1.98,2.565 -4.154,-0.039Z" style="fill:#b6b12b;"/><path d="M882.877,2692.076c1.671,-1.85 1.952,-3.41 3.51,-1.483c0.192,0.237 1.859,7.99 -3.51,1.483Z" style="fill:#cbc62f;"/><path d="M1352.609,2173.198c-4.922,4.562 -3.895,-2.994 -1.854,-2.982c0.973,0.006 1.608,1.026 1.695,1.166c0.551,0.885 -0.361,0.978 0.16,1.816Z" style="fill:#b9b42b;"/><path d="M1470.764,2810.021c2.176,-2.21 3.606,-3.081 4.005,-0.072c1.113,8.394 -3.838,0.345 -4.005,0.072Z" style="fill:#bab62b;"/><path d="M1376.221,2792.297c-5.236,4.738 -3.856,-3.065 -1.954,-3.013c0,0 1.798,2.772 1.954,3.013Z" style="fill:#b7b12b;"/><path d="M1301.755,1886.301c2.211,-2.296 3.7,-3.155 4.045,-0.078c0.889,7.929 -3.873,0.352 -4.045,0.078Z" style="fill:#bcb72c;"/><path d="M388.057,1972.634c0.442,-0.861 -0.543,-0.846 -0.072,-1.762c0.084,-0.163 0.529,-1.029 1.739,-1.483c0.377,-0.142 6.78,6.662 -1.667,3.245Z" style="fill:#9c9824;"/><path d="M1710.409,2576.123c1.804,-2.09 1.71,-2.255 1.948,-2.257c0.249,-0.003 2.163,-0.023 2.134,2.261c-0.041,3.258 -1.906,2.53 -4.083,-0.004Z" style="fill:#c7c22e;"/><path d="M570.571,2192.871c1.606,-2.172 1.808,-3.723 3.604,-1.749c0.216,0.237 2.33,8.212 -3.604,1.749Z" style="fill:#beb92c;"/><path d="M536.99,2422.802c1.906,-1.677 1.84,-1.811 2.059,-1.812c3.925,-0.006 0.673,6.889 -1.782,3.687c-0.384,-0.501 0.107,-1.374 -0.277,-1.875Z" style="fill:#cdc730;"/><path d="M1639.963,2387.563c2.809,-1.046 2.806,-1.262 3.026,-1.127c2.688,1.641 -1.244,6.423 -3.085,2.898c-0.273,-0.523 0.332,-1.247 0.059,-1.771Z" style="fill:#a39f26;"/><path d="M1484.19,2304.846c-4.657,4.233 -4.075,-3.055 -1.78,-2.999c0.98,0.024 1.604,1.074 1.689,1.217c0.495,0.834 -0.433,0.899 0.092,1.782Z" style="fill:#a5a126;"/><path d="M1592.688,2393.322c4.011,-5.909 4.209,-0.257 4.193,0.078c-0.167,3.338 -1.951,2.41 -4.193,-0.078Z" style="fill:#a09b25;"/><path d="M1769.337,2601.578c-0.517,-0.329 -1.319,0.217 -1.836,-0.112c-3.566,-2.269 3.742,-6.183 3.489,-1.79c-0.012,0.201 -0.122,0.141 -1.653,1.901Z" style="fill:#bfbb2d;"/><path d="M364.076,1903.954c1.874,-1.593 1.812,-1.72 2.024,-1.72c4.036,0.005 0.597,6.882 -1.802,3.605c-0.374,-0.511 0.151,-1.375 -0.222,-1.885Z" style="fill:#cec830;"/><path d="M1700.763,2393.324c3.988,-5.835 4.181,-0.263 4.163,0.07c-0.175,3.344 -1.945,2.378 -4.163,-0.07Z" style="fill:#a4a026;"/><path d="M1798.874,2468.025c-1.687,2.246 -1.982,3.877 -3.677,1.774c-1.349,-1.673 0.085,-3.02 0.272,-3.196c1.719,-1.616 1.754,-0.206 3.406,1.422Z" style="fill:#c8c22f;"/><path d="M1522.393,2290.847c0.545,-2.744 0.426,-4.154 2.94,-2.979c12.701,5.938 -2.611,3.041 -2.94,2.979Z" style="fill:#76721b;"/><path d="M1564.03,2209.152c-0.849,2.626 -0.366,4.53 -2.873,3.15c-0.299,-0.164 -4.716,-5.084 2.873,-3.15Z" style="fill:#74701b;"/><path d="M955.844,2128.278c2.628,0.401 2.685,0.262 2.838,0.433c2.603,2.915 -4.321,4.596 -4.191,1.34c0.03,-0.743 1.323,-1.03 1.353,-1.773Z" style="fill:#c3bd2e;"/><path d="M483.597,2192.836c-2.76,1.441 -4.239,3.338 -4.384,0.177c-0.016,-0.351 0.314,-7.01 4.384,-0.177Z" style="fill:#83801f;"/><path d="M1710.384,2566.293c0.159,-0.15 1.987,-1.87 1.987,-1.87c3.991,0.001 0.725,6.863 -1.661,3.658c-0.362,-0.486 0.035,-1.302 -0.326,-1.788Z" style="fill:#c8c32f;"/><path d="M1629.731,2542.735c-0.329,0.51 0.152,1.301 -0.177,1.81c-2.181,3.383 -6.136,-3.536 -1.727,-3.441c0.201,0.004 0.141,0.121 1.904,1.631Z" style="fill:#c0bb2d;"/><path d="M1470.366,2289.244c-3.577,6.959 -3.745,-0.894 -3.159,-1.26c1.7,-1.063 1.656,-0.125 3.159,1.26Z" style="fill:#938f22;"/><path d="M1399.844,2200.742c-3.975,5.223 -4.113,0.296 -4.09,-0.03c0.227,-3.264 1.876,-2.235 4.09,0.03Z" style="fill:#c4bf2e;"/><path d="M1517.831,2322.595c2.209,-2.252 3.854,-3.184 4.049,-0.02c0.02,0.323 -0.03,5.316 -4.049,0.02Z" style="fill:#c6c02e;"/><path d="M637.012,2318.528c-0.598,0.028 -0.814,1.084 -1.412,1.112c-3.935,0.184 -1.957,-6.363 0.856,-3.968c0.177,0.151 0.041,0.212 0.556,2.856Z" style="fill:#a8a427;"/><path d="M1056.55,2348.143c-0.123,3.302 -0.246,6.604 -0.369,9.906c-0.122,-0.78 -1.145,-1.222 -1.267,-2.002c-0.915,-5.871 1.41,-6.813 1.636,-7.904Z" style="fill:#bfbe94;fill-opacity:0.28;"/><path d="M334.474,1850.951c-4.446,8.009 -3.175,-1.179 -3.157,-1.192c1.661,-1.146 1.62,-0.159 3.157,1.192Z" style="fill:#a4a026;"/><path d="M334.869,1784.11c2.836,-1.206 4.103,-3.431 4.459,-0.305c0.04,0.355 0.019,7.043 -4.459,0.305Z" style="fill:#9d9924;"/><path d="M1631.874,2296.781c-1.176,-2.941 -1.417,-2.941 -1.267,-3.169c1.582,-2.397 6.113,1.383 3.03,3.122c-0.512,0.289 -1.251,-0.242 -1.763,0.047Z" style="fill:#959123;"/><path d="M387.94,1980.694c2.889,-1.133 2.886,-1.363 3.112,-1.221c2.542,1.592 -1.345,6.1 -3.091,3.014c-0.294,-0.52 0.273,-1.273 -0.021,-1.793Z" style="fill:#9f9b25;"/><path d="M786.826,2576.178c2.442,-0.874 3.366,-2.355 3.809,-0.062c0.575,2.979 -2.848,3.677 -3.834,1.928c-0.306,-0.542 0.331,-1.324 0.026,-1.866Z" style="fill:#aeaa29;"/><path d="M636.95,2263.782c-1.257,2.527 -0.864,4.303 -2.914,2.918c-1.776,-1.2 -0.245,-4.438 1.231,-4.351c0.735,0.044 0.947,1.389 1.683,1.433Z" style="fill:#aeaa28;"/><path d="M1586.5,1809.826c0.025,0.771 1.389,1.061 1.414,1.831c0.126,3.899 -7.485,0.391 -3.252,-1.916c0.539,-0.294 1.3,0.379 1.839,0.085Z" style="fill:#bab52b;"/><path d="M1755.479,2648.517c-0.518,-0.271 -1.234,0.339 -1.752,0.068c-4.26,-2.229 3.376,-5.758 3.162,-1.799c-0.04,0.743 -1.37,0.988 -1.41,1.731Z" style="fill:#9b9724;"/><path d="M1521.684,1793.888c-0.796,-0.007 -1.127,1.422 -1.923,1.415c-3.481,-0.03 -0.356,-7.404 1.96,-3.356c0.321,0.562 -0.359,1.379 -0.037,1.941Z" style="fill:#b8b42b;"/><path d="M658.448,2060.066c0.835,0.027 1.494,-0.95 2.329,-0.922c4.264,0.139 1.911,3.424 1.721,3.688c-0.292,0.408 -1.179,-0.087 -1.471,0.321l-2.579,-3.087Z" style="fill:#5e5c16;"/><path d="M823.938,2857.419c1.327,-0.285 0.788,-1.065 2.029,-1.332c0.308,-0.066 2.178,-0.468 3.935,0.049c0.836,0.246 1.155,1.45 1.991,1.696c-2.652,-0.138 -5.304,-0.276 -7.955,-0.413Z" style="fill:#c1c08b;fill-opacity:0.21;"/><path d="M1678.262,2691.261c0.947,1.877 1.852,1.036 2.784,2.883c0.045,0.09 0.125,0.247 -0.868,0.914c-0.283,0.19 -4.531,2.29 -1.917,-3.797Z" style="fill:#706c1a;"/><path d="M890.639,1811.526c1.131,5.509 1.347,5.477 1.221,5.945c-0.354,1.314 -1.237,0.59 -1.613,1.988c0.131,-2.645 0.262,-5.289 0.392,-7.934Z" style="fill:#bfbe92;fill-opacity:0.26;"/><path d="M888.673,1839.041c0.097,0.476 1.213,5.946 1.213,5.946c-0.373,1.394 -1.251,0.678 -1.603,1.989c0.13,-2.645 0.259,-5.29 0.389,-7.935Z" style="fill:#bfbe92;fill-opacity:0.26;"/><path d="M1446.944,1703.216c4.34,-0.47 4.271,-0.628 5.977,-0.419c-3.667,1.701 -3.624,1.949 -3.953,1.834c-0.777,-0.271 -1.246,-1.144 -2.023,-1.415Z" style="fill:#c7c6a1;fill-opacity:0.14;"/><path d="M849.367,2373.594c-0.766,7 -2.993,5.63 -3.748,6.22l1.649,-2.874c0.889,-1.843 0.892,-1.733 2.099,-3.345Z" style="fill:#a6a57c;fill-opacity:0.26;"/><path d="M485.663,1649.638c-1.934,0.992 -1.51,1.799 -4.015,2.058c-1.054,0.109 -0.85,0.251 -1.868,0.356c2.494,-2.235 2.545,-1.961 5.883,-2.415Z" style="fill:#afae88;fill-opacity:0.17;"/><path d="M215.922,1935.714c0.691,1.97 1.383,3.94 2.074,5.91c-1.581,-2.827 -1.43,-2.798 -2.074,-5.91Z" style="fill:#a9a884;fill-opacity:0.19;"/><path d="M1401.885,1902.651c0.868,-0.369 1.258,-1.499 2.127,-1.868c0.27,-0.115 0.263,0.065 3.555,0.882c-1.894,0.329 -3.788,0.657 -5.682,0.986Z" style="fill:#c9c8a6;fill-opacity:0.16;"/><path d="M438.484,1673.182c-3.601,1.779 -3.418,2.042 -5.84,2.415c2.547,-2.185 2.61,-1.896 5.84,-2.415Z" style="fill:#a09f6e;fill-opacity:0.2;"/><path d="M1761.586,2176.488c3.367,0.35 3.49,-0.014 6.107,2.285c-1.908,-0.249 -1.797,-0.441 -6.107,-2.285Z" style="fill:#acaa77;fill-opacity:0.23;"/><path d="M669.142,1714.424c3.28,0.842 3.388,0.329 5.832,2.49c-5.879,-0.779 -5.659,-2.398 -5.832,-2.49Z" style="fill:#acab7c;fill-opacity:0.2;"/><path d="M708.017,2851.799c3.684,-1.446 3.657,-1.691 3.972,-1.559c0.789,0.328 1.197,1.295 1.986,1.623l-5.958,-0.064Z" style="fill:#bebd96;fill-opacity:0.23;"/><path d="M1048.435,1700.705c3.241,0.81 3.38,0.281 5.842,2.449c-5.82,-0.819 -5.801,-2.428 -5.842,-2.449Z" style="fill:#aba878;fill-opacity:0.2;"/><path d="M1659.349,2148.95c2.973,0.265 2.816,0.238 5.674,1.04c-0.284,0.069 -3.554,0.863 -3.554,0.863c-0.871,-0.379 -1.249,-1.524 -2.12,-1.903Z" style="fill:#c9c89f;fill-opacity:0.19;"/><path d="M1109.604,1819.455l-0.075,5.953c-0.467,-1.212 -1.055,-0.695 -1.563,-2.012c0,-0 1.506,-3.626 1.637,-3.941Z" style="fill:#bdbb94;fill-opacity:0.24;"/><path d="M1113.527,1754.601l-0.068,5.95c-0.46,-1.212 -1.054,-0.694 -1.554,-2.01c-0.121,-0.319 0.118,-0.286 1.622,-3.94Z" style="fill:#bcbb94;fill-opacity:0.24;"/><path d="M1242.825,2850.93c2.966,-0.648 2.894,-0.148 5.661,1.018c-2.952,-0.271 -2.801,-0.259 -5.661,-1.018Z" style="fill:#c5c39b;fill-opacity:0.24;"/><path d="M416.989,2120.153c-0.568,1.284 -1.137,2.567 -1.705,3.851l-1.73,-2.228c0.548,-0.26 1.087,1.059 1.635,0.8c0.218,-0.103 0.133,-0.179 1.8,-2.422Z" style="fill:#7e7a1d;"/><path d="M1331.532,2878.259c2.963,-0.441 2.728,0.159 5.371,1.232c-2.889,-0.343 -2.736,-0.331 -5.371,-1.232Z" style="fill:#bcba82;fill-opacity:0.25;"/><path d="M629.647,1691.108c2.32,0.742 2.221,0.647 4.05,2.228c-3.717,-0.613 -3.199,-1.549 -4.05,-2.228Z" style="fill:#b9b889;fill-opacity:0.19;"/><path d="M725.959,2261.442l1.789,2.164c-0.636,0.263 -1.299,-0.983 -1.935,-0.72c0,0 -1.528,2.533 -1.661,2.753c0.602,-1.399 1.205,-2.799 1.807,-4.198Z" style="fill:#494711;"/><path d="M606.061,1677.38c2.283,0.717 2.19,0.618 4.035,2.206c-3.525,-0.617 -3.06,-1.432 -4.035,-2.206Z" style="fill:#b8b683;fill-opacity:0.17;"/><path d="M686.243,1723.48c1.747,1.291 1.793,1.088 2.742,3.062c-0.78,-0.744 -1.046,0.314 -1.773,-0.38c-0.165,-0.157 -0.072,-0.199 -0.969,-2.681Z" style="fill:#cecda4;fill-opacity:0.19;"/><path d="M1376.094,2035.833c1.788,1.493 1.766,1.327 2.779,3.257c-2.027,-2.019 -2.163,-1.792 -2.779,-3.257Z" style="fill:#c5c593;fill-opacity:0.22;"/></g></g><path d="M3930.917,1922.884c-7.228,300.097 -14.457,600.194 -21.685,900.291c76.114,13.216 152.227,26.433 228.341,39.649l34.441,-133.409l183.697,114.414c45.177,-14.326 90.357,-28.651 135.537,-42.977c-61.233,-131.816 -122.463,-263.636 -183.693,-395.453c64.524,-120.807 129.051,-241.614 193.578,-362.421c-69.841,-38.435 -139.682,-76.874 -209.526,-115.31c-30.457,65.374 -60.919,130.752 -91.376,196.13l0,-240.141c-89.772,13.074 -179.541,26.152 -269.313,39.226" style="fill-rule:nonzero;"/><path d="M2810.894,1941.117c-63.279,325.297 -126.559,650.59 -189.838,975.887c24.087,19.392 48.178,38.784 72.265,58.176c228.944,3.972 457.889,7.944 686.833,11.916c-5.422,-348.661 -10.844,-697.318 -16.267,-1045.979c-62.931,6.359 -125.862,12.718 -188.797,19.081c-13.318,14.517 -26.639,29.037 -39.96,43.558c-17.612,164.709 -35.228,329.419 -52.84,494.128c-9.417,-14.794 -18.83,-29.592 -28.243,-44.386c8.776,-136.841 17.552,-273.679 26.328,-410.52c-18.174,-17.721 -36.352,-35.441 -54.526,-53.162c-71.651,-16.233 -143.305,-32.466 -214.956,-48.699" style="fill-rule:nonzero;"/><path d="M2034.022,1635.224c9.619,427.259 19.242,854.518 28.861,1281.781l75.237,40.271l280.671,-40.271l55.635,-73.18l0,-445.478c96.068,-33.736 192.135,-67.469 288.203,-101.201c25.972,-162.281 51.948,-324.559 77.924,-486.84l-287.023,-117.678c-173.167,-19.133 -346.338,-38.27 -519.508,-57.404" style="fill-rule:nonzero;"/><path d="M3360.062,2975.181c14.509,-331.577 29.022,-663.155 43.532,-994.732c16.42,-10.17 32.837,-20.336 49.257,-30.502c22.63,3.099 45.259,6.194 67.889,9.293c43.603,64.422 87.206,128.841 130.808,193.263c-19.561,-73.566 -39.117,-147.127 -58.678,-220.689c86.317,21.367 172.639,42.733 258.956,64.1l46.065,51.659c3.781,258.533 7.558,517.069 11.339,775.601c-53.259,15.899 -106.522,31.799 -159.782,47.698c-15.626,-6.224 -31.248,-12.452 -46.874,-18.676c-19.302,-39.121 -38.6,-78.238 -57.902,-117.359c-16.203,52.727 -32.41,105.455 -48.613,158.182c-14.247,10.631 -28.49,21.258 -42.737,31.889c-64.419,16.758 -128.841,33.515 -193.26,50.273" style="fill-rule:nonzero;"/><path d="M2579.801,2106.79l-236.506,0l44.491,-206.068l217.774,37.469l-25.758,168.599Zm182.827,-293.861c-208.17,-27.156 -416.34,-54.305 -624.506,-81.457l0,1131.352c84.38,-5.134 168.764,-10.267 253.144,-15.401c-15.989,-178.968 -31.983,-357.939 -47.972,-536.907c124.693,-36.135 249.386,-72.269 374.078,-108.404c15.086,-129.729 30.169,-259.458 45.255,-389.183" style="fill:#dc0097;fill-rule:nonzero;"/><path d="M2859.044,2003.757l-133.476,913.248l576.05,-56.201l35.123,-802.604l-175.621,50.932l-14.052,505.797l-161.573,-77.275l45.66,-435.548l-172.11,-98.35Z" style="fill:#dc0097;fill-rule:nonzero;"/><path d="M3425.726,2808.702l51.517,-765.724l224.8,491.749l0,-491.749l161.573,56.786l0,679.084c-44.491,9.949 -88.982,19.902 -133.476,29.854l-168.599,-316.124c-4.096,117.082 -8.195,234.164 -12.291,351.25c-41.175,-11.71 -82.349,-23.416 -123.524,-35.127" style="fill:#dc0097;fill-rule:nonzero;"/><path d="M4064.414,1962.193l-93.666,821.921l135.815,0l0,-340.709l189.677,314.951l91.324,-23.416l-192.016,-361.784l234.164,-319.639l-161.573,-39.807l-114.744,232.283l0,-304.875l-88.982,21.074Z" style="fill:#dc0097;fill-rule:nonzero;"/></g></svg>